<?xml version="1.0"?>
<svg xmlns="http://www.w3.org/2000/svg" width="289" height="45" viewBox="0 0 289 45" fill="none">
  <style>
    #Parts path {
      fill: black;
    }
    @media (prefers-color-scheme: dark) {
      #Parts path {
        fill: white;
      }
    }
  </style>
  <g id="Logo horizontal">
    <path id="Manager node" d="M61.0462 4.38218C62.5695 3.5241 64.4305 3.5241 65.9538 4.38218L78.7074 11.5658C80.2803 12.4518 81.2535 14.117 81.2535 15.9223V30.0777C81.2535 31.883 80.2803 33.5482 78.7074 34.4342L65.9538 41.6178C64.4305 42.4759 62.5695 42.4759 61.0462 41.6178L48.2926 34.4342C46.7197 33.5482 45.7465 31.883 45.7465 30.0777V15.9223C45.7465 14.117 46.7197 12.4518 48.2926 11.5658L61.0462 4.38218Z" fill="#D1B43C"/>
    <path id="Firefighter node" d="M106.956 1.87651C107.756 0.904367 109.244 0.904365 110.044 1.87651L114.022 6.71041C114.446 7.22469 115.097 7.49454 115.76 7.43015L121.991 6.82501C123.244 6.70331 124.297 7.75585 124.175 9.00897L123.57 15.24C123.505 15.9029 123.775 16.5544 124.29 16.9776L129.123 20.9557C130.096 21.7557 130.096 23.2443 129.123 24.0443L124.29 28.0224C123.775 28.4456 123.505 29.0971 123.57 29.76L124.175 35.991C124.297 37.2442 123.244 38.2967 121.991 38.175L115.76 37.5698C115.097 37.5055 114.446 37.7753 114.022 38.2896L110.044 43.1235C109.244 44.0956 107.756 44.0956 106.956 43.1235L102.978 38.2896C102.554 37.7753 101.903 37.5055 101.24 37.5698L95.009 38.175C93.7559 38.2967 92.7033 37.2442 92.825 35.991L93.4302 29.76C93.4945 29.0971 93.2247 28.4456 92.7104 28.0224L87.8765 24.0443C86.9044 23.2443 86.9044 21.7557 87.8765 20.9557L92.7104 16.9776C93.2247 16.5544 93.4945 15.9029 93.4302 15.24L92.825 9.00898C92.7033 7.75585 93.7558 6.70331 95.009 6.82501L101.24 7.43015C101.903 7.49453 102.554 7.22469 102.978 6.71041L106.956 1.87651Z" fill="#F2BE56"/>
    <circle id="Exile node" cx="19" cy="23" r="19" fill="#62A294"/>
    <g id="Parts">
      <path id="Vector" d="M275.028 38.576C272.084 38.576 269.588 38.08 267.54 37.088C265.492 36.064 263.748 34.752 262.308 33.152L267.108 28.304C269.38 30.864 272.18 32.144 275.508 32.144C277.3 32.144 278.628 31.776 279.492 31.04C280.356 30.304 280.788 29.328 280.788 28.112C280.788 27.184 280.532 26.416 280.02 25.808C279.508 25.168 278.468 24.736 276.9 24.512L273.588 24.08C270.036 23.632 267.428 22.56 265.764 20.864C264.132 19.168 263.316 16.912 263.316 14.096C263.316 12.592 263.604 11.216 264.18 9.96798C264.756 8.71998 265.572 7.64798 266.628 6.75198C267.716 5.85598 269.028 5.16798 270.564 4.68798C272.132 4.17598 273.908 3.91998 275.892 3.91998C278.42 3.91998 280.644 4.31998 282.564 5.11998C284.484 5.91998 286.132 7.08798 287.508 8.62398L282.66 13.52C281.86 12.592 280.884 11.84 279.732 11.264C278.612 10.656 277.188 10.352 275.46 10.352C273.828 10.352 272.612 10.64 271.812 11.216C271.012 11.792 270.612 12.592 270.612 13.616C270.612 14.768 270.916 15.6 271.524 16.112C272.164 16.624 273.188 16.992 274.596 17.216L277.908 17.744C281.364 18.288 283.924 19.36 285.588 20.96C287.252 22.528 288.084 24.768 288.084 27.68C288.084 29.28 287.796 30.752 287.22 32.096C286.644 33.44 285.796 34.592 284.676 35.552C283.588 36.512 282.228 37.264 280.596 37.808C278.964 38.32 277.108 38.576 275.028 38.576Z"/>
      <path id="Vector_2" d="M250.68 10.976V38H243.384V10.976H234.312V4.49597H259.752V10.976H250.68Z"/>
      <path id="Vector_3" d="M212.836 38H205.54V4.49597H221.428C222.964 4.49597 224.356 4.75197 225.604 5.26397C226.852 5.77597 227.908 6.51197 228.772 7.47197C229.668 8.39997 230.356 9.51997 230.836 10.832C231.316 12.144 231.556 13.6 231.556 15.2C231.556 17.472 231.044 19.456 230.02 21.152C229.028 22.848 227.508 24.08 225.46 24.848L232.036 38H223.924L218.068 25.712H212.836V38ZM220.516 19.568C221.604 19.568 222.452 19.296 223.06 18.752C223.7 18.176 224.02 17.344 224.02 16.256V14.144C224.02 13.056 223.7 12.24 223.06 11.696C222.452 11.12 221.604 10.832 220.516 10.832H212.836V19.568H220.516Z"/>
      <path id="Vector_4" d="M193.32 38L190.92 30.032H179.736L177.336 38H169.944L180.984 4.49597H190.008L200.904 38H193.32ZM185.4 11.12H185.16L181.464 23.84H189.144L185.4 11.12Z"/>
      <path id="Vector_5" d="M144.696 38V4.49597H160.536C162.104 4.49597 163.512 4.76797 164.76 5.31197C166.008 5.82397 167.064 6.54397 167.928 7.47197C168.824 8.39997 169.512 9.53597 169.992 10.88C170.472 12.192 170.712 13.632 170.712 15.2C170.712 16.8 170.472 18.256 169.992 19.568C169.512 20.88 168.824 22 167.928 22.928C167.064 23.856 166.008 24.592 164.76 25.136C163.512 25.648 162.104 25.904 160.536 25.904H151.992V38H144.696ZM151.992 19.568H159.672C160.76 19.568 161.608 19.296 162.216 18.752C162.856 18.176 163.176 17.344 163.176 16.256V14.144C163.176 13.056 162.856 12.24 162.216 11.696C161.608 11.12 160.76 10.832 159.672 10.832H151.992V19.568Z"/>
    </g>
  </g>
</svg>
