<svg width="134" height="44" viewBox="0 0 134 44" fill="none" xmlns="http://www.w3.org/2000/svg">
<path d="M63.5881 2.25513C65.1148 1.39224 66.9823 1.39215 68.509 2.25513L81.4777 9.58716C83.0468 10.4743 84.0168 12.1372 84.0168 13.9397V28.4221C84.0166 30.2245 83.0467 31.8877 81.4777 32.7747L68.509 40.1057C66.9822 40.9688 65.1149 40.9687 63.5881 40.1057L50.6193 32.7747C49.0503 31.8877 48.0795 30.2245 48.0793 28.4221V13.9397C48.0793 12.1372 49.0502 10.4742 50.6193 9.58716L63.5881 2.25513Z" fill="#D1B43C"/>
<path d="M63.5881 2.25513C65.1148 1.39224 66.9823 1.39215 68.509 2.25513L81.4777 9.58716C83.0468 10.4743 84.0168 12.1372 84.0168 13.9397V28.4221C84.0166 30.2245 83.0467 31.8877 81.4777 32.7747L68.509 40.1057C66.9822 40.9688 65.1149 40.9687 63.5881 40.1057L50.6193 32.7747C49.0503 31.8877 48.0795 30.2245 48.0793 28.4221V13.9397C48.0793 12.1372 49.0502 10.4742 50.6193 9.58716L63.5881 2.25513Z" stroke="#D1B43C"/>
<path d="M110.843 1.87695C111.643 0.904806 113.131 0.904805 113.931 1.87695L117.665 6.41309C118.088 6.92736 118.74 7.19719 119.403 7.13281L125.251 6.56543C126.504 6.44373 127.556 7.49593 127.434 8.74902L126.867 14.5977C126.803 15.2605 127.072 15.9118 127.587 16.335L132.124 20.0684C133.096 20.8684 133.096 22.3572 132.124 23.1572L127.587 26.8906C127.072 27.3139 126.803 27.966 126.867 28.6289L127.434 34.4766C127.556 35.7297 126.504 36.7819 125.251 36.6602L119.403 36.0928C118.74 36.0284 118.088 36.2982 117.665 36.8125L113.931 41.3496C113.131 42.3216 111.643 42.3216 110.843 41.3496L107.109 36.8125C106.686 36.2983 106.035 36.0285 105.372 36.0928L99.5232 36.6602C98.2701 36.7818 97.2179 35.7297 97.3396 34.4766L97.907 28.6289C97.9714 27.966 97.7015 27.3139 97.1873 26.8906L92.6511 23.1572C91.679 22.3572 91.679 20.8684 92.6511 20.0684L97.1873 16.335C97.7015 15.9118 97.9713 15.2605 97.907 14.5977L97.3396 8.74902C97.218 7.49598 98.2701 6.4438 99.5232 6.56543L105.372 7.13281C106.035 7.19708 106.686 6.92729 107.109 6.41309L110.843 1.87695Z" fill="#F2BE56"/>
<path d="M110.843 1.87695C111.643 0.904806 113.131 0.904805 113.931 1.87695L117.665 6.41309C118.088 6.92736 118.74 7.19719 119.403 7.13281L125.251 6.56543C126.504 6.44373 127.556 7.49593 127.434 8.74902L126.867 14.5977C126.803 15.2605 127.072 15.9118 127.587 16.335L132.124 20.0684C133.096 20.8684 133.096 22.3572 132.124 23.1572L127.587 26.8906C127.072 27.3139 126.803 27.966 126.867 28.6289L127.434 34.4766C127.556 35.7297 126.504 36.7819 125.251 36.6602L119.403 36.0928C118.74 36.0284 118.088 36.2982 117.665 36.8125L113.931 41.3496C113.131 42.3216 111.643 42.3216 110.843 41.3496L107.109 36.8125C106.686 36.2983 106.035 36.0285 105.372 36.0928L99.5232 36.6602C98.2701 36.7818 97.2179 35.7297 97.3396 34.4766L97.907 28.6289C97.9714 27.966 97.7015 27.3139 97.1873 26.8906L92.6511 23.1572C91.679 22.3572 91.679 20.8684 92.6511 20.0684L97.1873 16.335C97.7015 15.9118 97.9713 15.2605 97.907 14.5977L97.3396 8.74902C97.218 7.49598 98.2701 6.4438 99.5232 6.56543L105.372 7.13281C106.035 7.19708 106.686 6.92729 107.109 6.41309L110.843 1.87695Z" stroke="#F2BE56"/>
<circle cx="19.0194" cy="21.6129" r="19.0194" fill="#62A294"/>
<circle cx="19.0194" cy="21.6129" r="19.0194" stroke="#62A294"/>
</svg>
