<svg width="600" height="600" viewBox="0 0 600 600" fill="none" xmlns="http://www.w3.org/2000/svg">
<g clip-path="url(#clip0_182_11)">
<path d="M600 0H0V600H600V0Z" fill="white"/>
<path d="M446.922 72.255C446.53 77.991 450.179 82.912 455.071 83.246C459.964 83.58 462.904 79.109 463.295 73.373C463.687 67.637 461.382 62.808 456.49 62.474C451.597 62.139 447.313 66.519 446.922 72.255Z" fill="#F7F9F9"/>
<path d="M448.046 72.332C447.875 74.839 448.54 77.244 449.92 79.105C451.26 80.912 453.116 81.983 455.148 82.122C457.101 82.257 458.727 81.506 459.982 79.894C461.211 78.315 461.988 75.972 462.171 73.296C462.463 69.023 461.13 63.92 456.413 63.598C456.263 63.587 456.115 63.582 455.967 63.582C451.89 63.582 448.382 67.403 448.046 72.332ZM454.995 84.37C452.294 84.186 449.849 82.793 448.11 80.447C446.411 78.156 445.59 75.219 445.797 72.178C446.232 65.831 451.071 60.978 456.567 61.349C461.734 61.703 464.89 66.565 464.42 73.45C464.203 76.613 463.284 79.32 461.76 81.278C460.169 83.322 458.046 84.391 455.59 84.391C455.394 84.391 455.195 84.384 454.995 84.37Z" fill="#80959B"/>
<path d="M409.053 72.255C409.444 77.991 405.796 82.912 400.903 83.246C396.01 83.58 393.071 79.109 392.679 73.373C392.287 67.637 394.592 62.808 399.485 62.474C404.377 62.139 408.661 66.519 409.053 72.255Z" fill="#F7F9F9"/>
<path d="M400.008 63.582C399.859 63.582 399.711 63.587 399.561 63.598C394.844 63.92 393.512 69.023 393.803 73.296C393.986 75.972 394.764 78.315 395.993 79.894C397.247 81.506 398.874 82.257 400.826 82.122C402.858 81.983 404.715 80.912 406.054 79.105C407.434 77.244 408.1 74.839 407.928 72.332C407.592 67.403 404.085 63.582 400.008 63.582ZM400.384 84.391C397.929 84.391 395.805 83.322 394.214 81.278C392.691 79.32 391.771 76.613 391.555 73.45C391.084 66.565 394.241 61.703 399.408 61.349C404.904 60.978 409.742 65.831 410.177 72.178C410.384 75.219 409.564 78.156 407.865 80.447C406.126 82.793 403.68 84.186 400.98 84.37C400.78 84.384 400.581 84.391 400.384 84.391Z" fill="#80959B"/>
<path d="M456.339 502.644C459.514 484.94 462.62 474.318 464.45 456.376C465.671 444.407 463.194 430.508 463.705 422.09C464.192 414.041 473.682 388.038 476.143 352.012C479.092 327.908 477.273 306.237 474.416 287.23C473.312 279.878 467.856 257.136 467.143 242.002C465.73 212.001 469.926 193.313 470.594 189.88C471.261 186.447 472.476 183.365 473.866 179.706C473.936 179.523 474.145 179.365 474.162 179.46C474.421 180.904 474.36 187.534 477.5 201.67C482.075 222.267 485.865 241.228 486.728 247.504C489.478 267.505 496.146 281.548 499.41 296.117C500.029 298.879 499.806 303.283 499.683 305.992C499.607 307.664 499.63 309.831 499.889 312.884C500.036 314.611 500.539 317.401 500.969 319.081C502.24 324.048 505.712 337.851 505.935 339.104C506.213 340.664 507.316 341.644 508.561 341.511C509.805 341.379 510.367 340.536 510.264 338.644C510.081 335.278 507.957 328.791 507.784 325.943C507.764 325.613 508.024 325.342 508.37 325.406L509.583 325.547C509.794 325.586 509.958 325.743 509.992 325.941C510.292 327.687 512.736 336.818 514.61 343.342C515.064 344.925 516.347 345.923 517.632 345.681C518.917 345.439 519.512 344.158 519.313 342.77C518.895 339.866 515.599 328.316 515.034 325.836C514.969 325.548 515.163 325.273 515.469 325.212L516.512 325.06C516.818 324.989 517.129 325.152 517.211 325.438C518.084 328.425 522.979 344.213 523.398 345.557C523.861 347.049 525.107 347.658 526.495 347.36C527.882 347.063 528.305 346.09 528.107 344.033C527.926 342.157 522.857 326.305 522.051 323.623C521.982 323.393 522.111 323.158 522.349 323.073L523.307 322.741C523.57 322.64 523.87 322.761 523.965 323.013C524.939 325.582 529.068 338.725 529.909 340.231C530.847 341.909 531.946 342.509 533.295 342.152C534.643 341.795 534.888 339.884 534.52 338.616C534.316 338.073 532.191 329.194 530.618 325.018C529.792 322.826 525.401 311.125 526.898 311.478C528.209 311.788 531.444 317.56 531.921 318.259C532.594 319.248 534.635 322.987 537.92 322.917C539.799 322.877 539.759 322.273 538.948 320.353C537.212 317.067 535.368 312.072 533.18 308.752C530.749 305.063 527.186 301.96 523.383 298.702C521.515 297.101 519.643 295.202 518.773 289.973C517.034 279.549 516.862 271.441 514.318 254.646C512.127 240.169 508.25 233.982 506.686 217.964C505.839 209.281 503.7 196.038 502.364 184.572C497.731 144.805 486.485 140.082 482.154 137.083C476.439 133.126 460.238 128.203 450.276 123.778C446.429 122.069 443.753 118.348 443.753 113.964C443.754 111.134 443.754 106.82 443.754 103.76C443.754 101.687 444.522 99.665 445.994 98.204C450.223 94.006 454.28 86.603 455.365 78.122C457.273 63.216 456.516 56.089 456.516 56.089C456.516 37.03 441.959 27.702 427.934 27.32H428.041C414.016 27.702 399.458 37.03 399.458 56.089C399.458 56.089 398.78 63.52 400.609 78.122C401.741 87.16 405.616 93.956 409.738 98.014C411.284 99.537 412.22 101.568 412.22 103.739C412.22 106.8 412.221 111.127 412.221 113.964C412.221 118.348 409.545 122.069 405.698 123.778C395.736 128.203 379.9 132.836 373.82 137.083C369.501 140.1 358.243 144.805 353.61 184.572C352.274 196.038 350.135 209.281 349.288 217.964C347.724 233.982 343.847 240.169 341.655 254.646C339.112 271.441 338.939 279.549 337.201 289.973C336.33 295.202 334.459 297.101 332.59 298.702C328.788 301.96 325.225 305.063 322.795 308.752C320.607 312.072 318.762 317.067 317.027 320.353C316.215 322.273 316.176 322.877 318.054 322.917C321.339 322.987 323.38 319.248 324.054 318.259C324.53 317.56 327.765 311.788 329.076 311.478C330.573 311.125 326.182 322.826 325.356 325.018C323.783 329.194 321.658 338.073 321.454 338.616C321.087 339.884 321.331 341.795 322.68 342.152C324.028 342.509 325.127 341.909 326.065 340.231C326.906 338.725 331.035 325.582 332.009 323.013C332.104 322.761 332.404 322.64 332.667 322.741L333.625 323.073C333.863 323.158 333.993 323.393 333.923 323.623C333.117 326.305 328.048 342.157 327.867 344.033C327.669 346.09 328.092 347.063 329.48 347.36C330.867 347.658 332.113 347.049 332.577 345.557C332.995 344.213 337.89 328.425 338.762 325.438C338.845 325.152 339.156 324.989 339.462 325.06L340.505 325.212C340.811 325.273 341.005 325.548 340.939 325.836C340.375 328.316 337.091 339.728 336.673 342.632C336.473 344.02 337.069 345.301 338.354 345.543C339.638 345.785 340.921 344.787 341.376 343.204C343.25 336.68 345.682 327.687 345.982 325.941C346.016 325.743 346.18 325.586 346.391 325.547L347.604 325.406C347.95 325.342 348.21 325.613 348.19 325.943C348.017 328.791 346.201 335.567 346.154 338.937C346.127 340.832 346.722 341.652 347.971 341.734C349.22 341.816 350.282 340.793 350.497 339.223C350.67 337.962 353.734 324.048 355.005 319.081C355.435 317.401 355.939 314.611 356.085 312.884C356.344 309.831 356.367 307.664 356.291 305.992C356.168 303.283 355.946 298.879 356.564 296.117C359.828 281.548 366.496 267.505 369.246 247.504C370.109 241.228 373.899 222.267 378.474 201.67C381.615 187.534 381.553 180.904 381.812 179.46C381.829 179.365 383.918 183.027 385.179 189.115C386.685 196.379 390.323 206.21 388.831 242.002C388.2 257.14 382.662 279.878 381.558 287.23C378.701 306.237 376.882 327.908 379.831 352.012C382.566 387.652 391.423 414.069 392.27 422.09C393.158 430.508 390.964 444.117 391.524 456.376C392.348 474.39 396.46 484.94 399.636 502.644C400.234 505.982 406.677 539.519 402.836 547.202C400.519 551.98 393.842 553.788 388.309 559.02C387.105 560.159 387.216 563.623 390.733 565.189C408.505 570.583 415.087 573.09 418.989 572.63C423.266 572.126 428.061 570.722 427.563 560.339C427.441 557.794 426.908 555.288 426.174 552.849C424.404 546.972 424.179 542.469 423.955 537.224C423.317 528.708 424.03 521.253 424.033 511.572C424.034 506.417 424.265 501.258 424.694 496.122C425.574 485.607 426.732 468.237 426.415 458.885C426.037 447.703 425.092 438.441 424.239 433.485C423.312 428.1 423.125 422.627 423.592 417.183C424.265 409.329 425.94 369.978 426.205 360.804C426.837 338.889 426.76 325.187 426.918 305.877H429.056C429.215 325.285 429.071 338.97 429.73 361.012C430.002 370.082 431.691 409.793 432.341 416.812C432.859 422.399 432.673 428.02 431.724 433.551C430.874 438.506 429.935 447.753 429.559 458.885C429.241 468.291 430.413 485.791 431.295 496.303C431.716 501.328 431.939 506.375 431.945 511.417C431.958 523.662 432.589 530.298 432.019 537.224C431.795 542.469 431.57 546.972 429.8 552.849C429.066 555.288 428.533 557.794 428.411 560.339C427.913 570.722 432.709 572.126 436.985 572.63C440.887 573.09 447.469 570.583 465.241 565.189C468.759 563.623 468.869 560.159 467.665 559.02C462.133 553.788 455.455 551.98 453.138 547.202C449.297 539.519 455.74 505.982 456.339 502.644Z" fill="#F7F9F9"/>
<path d="M537.92 322.917L537.83 322.918C534.598 322.918 532.588 319.239 531.921 318.259C531.444 317.56 528.209 311.788 526.898 311.478L526.835 311.47C525.531 311.47 529.804 322.858 530.618 325.017C532.191 329.194 534.316 338.072 534.52 338.616C534.888 339.884 534.643 341.795 533.295 342.152C533.046 342.218 532.806 342.251 532.574 342.251C531.547 342.251 530.674 341.599 529.909 340.231C529.068 338.725 524.939 325.582 523.965 323.013C523.893 322.821 523.702 322.705 523.499 322.705L523.307 322.741L522.349 323.073C522.111 323.158 521.982 323.393 522.051 323.623C522.857 326.305 527.926 342.157 528.107 344.033C528.305 346.09 527.882 347.063 526.495 347.36C526.266 347.409 526.042 347.434 525.825 347.434C524.719 347.434 523.784 346.803 523.398 345.557C522.979 344.213 518.084 328.425 517.211 325.438C517.142 325.198 516.911 325.043 516.656 325.043L516.512 325.06L515.469 325.212C515.163 325.273 514.969 325.548 515.034 325.836C515.599 328.316 518.895 339.866 519.313 342.77C519.512 344.158 518.917 345.439 517.632 345.681C517.503 345.705 517.375 345.717 517.245 345.717C516.098 345.717 515.018 344.766 514.61 343.342C512.736 336.818 510.292 327.687 509.992 325.941C509.958 325.743 509.794 325.586 509.583 325.547L508.37 325.406L508.269 325.397C507.975 325.397 507.766 325.645 507.784 325.943C507.957 328.791 510.081 335.278 510.264 338.644C510.367 340.536 509.805 341.379 508.561 341.511L508.337 341.523C507.186 341.523 506.196 340.57 505.935 339.104C505.712 337.851 502.24 324.048 500.969 319.081C500.539 317.401 500.036 314.611 499.889 312.884C499.63 309.831 499.607 307.664 499.683 305.992C499.806 303.283 500.029 298.879 499.41 296.117C496.146 281.548 489.478 267.504 486.728 247.504C485.865 241.228 482.075 222.266 477.5 201.67C475.725 193.679 474.973 188.09 474.608 184.477C475.389 181.977 475.987 179.415 476.011 176.785C476.033 176.046 474.922 175.825 474.665 176.529C472.316 182.963 470.523 189.496 469.407 196.245C468.291 202.994 467.604 209.812 467.22 216.64C466.744 225.085 466.745 233.554 467.143 242.002C467.856 257.136 473.312 279.878 474.416 287.23C477.273 306.237 479.092 327.908 476.143 352.012C473.682 388.038 464.192 414.041 463.705 422.09C463.195 430.508 465.671 444.407 464.45 456.376C462.62 474.318 459.514 484.94 456.339 502.644C455.74 505.982 449.297 539.519 453.139 547.202C455.455 551.98 462.133 553.788 467.665 559.02C468.869 560.159 468.759 563.623 465.241 565.189C448.847 570.164 441.975 572.683 437.945 572.683C437.606 572.683 437.288 572.666 436.985 572.63C432.709 572.126 427.913 570.722 428.411 560.339C428.533 557.794 429.066 555.288 429.8 552.849C431.57 546.972 431.795 542.469 432.019 537.224C432.589 530.298 431.958 523.662 431.945 511.417C431.939 506.375 431.716 501.328 431.295 496.303C430.413 485.791 429.241 468.291 429.559 458.885C429.935 447.753 430.874 438.506 431.724 433.551C432.673 428.02 432.859 422.399 432.341 416.812C431.691 409.793 430.002 370.082 429.73 361.012C429.071 338.97 429.215 325.285 429.056 305.877H426.918C426.76 325.187 426.837 338.889 426.205 360.804C425.94 369.978 424.265 409.329 423.592 417.182C423.125 422.627 423.312 428.1 424.239 433.485C425.092 438.441 426.037 447.703 426.415 458.885C426.732 468.237 425.574 485.607 424.694 496.121C424.265 501.258 424.034 506.417 424.033 511.572C424.03 521.253 423.317 528.708 423.955 537.224C424.179 542.469 424.404 546.972 426.174 552.849C426.908 555.288 427.441 557.794 427.563 560.339C428.061 570.722 423.266 572.126 418.989 572.63C418.686 572.666 418.368 572.683 418.029 572.683C413.999 572.683 407.126 570.164 390.733 565.189C387.216 563.623 387.105 560.159 388.309 559.02C393.842 553.788 400.519 551.98 402.836 547.202C406.677 539.519 400.234 505.982 399.636 502.644C396.46 484.94 392.348 474.39 391.524 456.376C390.964 444.117 393.158 430.508 392.27 422.09C391.423 414.07 382.566 387.652 379.831 352.012C376.882 327.908 378.701 306.237 381.558 287.23C382.662 279.878 388.2 257.14 388.831 242.002C390.323 206.21 386.685 196.379 385.179 189.115C384.877 187.657 384.504 186.227 384.053 184.808C383.217 182.024 382.345 179.29 381.309 176.529C381.206 176.274 380.956 176.091 380.664 176.09C379.172 176.187 380.28 180.846 381.37 184.433C381.007 188.044 380.257 193.645 378.474 201.67C373.899 222.266 370.109 241.228 369.246 247.504C366.496 267.504 359.828 281.548 356.564 296.117C355.946 298.879 356.168 303.283 356.291 305.992C356.367 307.664 356.344 309.831 356.085 312.884C355.939 314.611 355.435 317.401 355.005 319.081C353.734 324.048 350.67 337.962 350.497 339.223C350.29 340.734 349.298 341.739 348.111 341.739L347.971 341.734C346.722 341.652 346.127 340.832 346.154 338.937C346.201 335.567 348.017 328.791 348.19 325.943C348.208 325.645 347.999 325.397 347.705 325.397L347.604 325.406L346.391 325.547C346.181 325.586 346.016 325.743 345.982 325.941C345.682 327.687 343.25 336.68 341.376 343.204C340.967 344.628 339.887 345.579 338.739 345.579C338.611 345.579 338.482 345.567 338.354 345.543C337.069 345.301 336.473 344.02 336.673 342.632C337.091 339.728 340.375 328.316 340.939 325.836C341.005 325.548 340.811 325.273 340.505 325.212L339.462 325.06L339.317 325.043C339.064 325.043 338.832 325.198 338.762 325.438C337.89 328.425 332.995 344.213 332.577 345.557C332.189 346.803 331.256 347.434 330.15 347.434C329.932 347.434 329.708 347.409 329.48 347.36C328.092 347.063 327.669 346.09 327.867 344.033C328.048 342.157 333.117 326.305 333.923 323.623C333.993 323.393 333.863 323.158 333.625 323.073L332.667 322.741L332.476 322.705C332.272 322.705 332.082 322.821 332.009 323.013C331.035 325.582 326.906 338.725 326.065 340.231C325.3 341.599 324.428 342.251 323.4 342.251C323.168 342.251 322.928 342.218 322.68 342.152C321.331 341.795 321.087 339.884 321.454 338.616C321.658 338.072 323.783 329.194 325.356 325.017C326.17 322.858 330.444 311.47 329.139 311.47L329.076 311.478C327.765 311.788 324.53 317.56 324.054 318.259C323.386 319.239 321.376 322.918 318.144 322.918L318.054 322.917C316.176 322.877 316.215 322.273 317.027 320.353C318.763 317.067 320.607 312.072 322.794 308.752C325.225 305.063 328.788 301.96 332.59 298.702C334.459 297.101 336.33 295.202 337.201 289.973C338.939 279.549 339.112 271.441 341.655 254.646C343.847 240.169 347.724 233.982 349.288 217.964C350.135 209.281 352.274 196.038 353.61 184.572C358.243 144.805 369.501 140.1 373.82 137.083C379.9 132.836 395.736 128.203 405.698 123.778C409.545 122.069 412.221 118.348 412.221 113.964C412.221 111.127 412.22 106.8 412.22 103.739C412.22 101.568 411.284 99.537 409.738 98.014C405.616 93.956 401.741 87.16 400.609 78.122C398.78 63.52 399.458 56.089 399.458 56.089C399.458 37.054 413.979 27.726 427.987 27.322L427.934 27.32L427.987 27.317L428.041 27.32L427.987 27.322C441.995 27.726 456.516 37.054 456.516 56.089C456.516 56.089 457.273 63.216 455.365 78.122C454.28 86.603 450.223 94.006 445.994 98.204C444.522 99.665 443.754 101.687 443.754 103.76C443.754 106.82 443.754 111.134 443.753 113.964C443.753 118.348 446.429 122.069 450.276 123.778C460.238 128.203 476.439 133.126 482.154 137.083C486.485 140.082 497.731 144.805 502.364 184.572C503.7 196.038 505.839 209.281 506.687 217.964C508.25 233.982 512.127 240.169 514.318 254.646C516.862 271.441 517.034 279.549 518.773 289.973C519.643 295.202 521.515 297.101 523.383 298.702C527.186 301.96 530.749 305.063 533.18 308.752C535.368 312.072 537.212 317.067 538.948 320.353C539.759 322.273 539.799 322.877 537.92 322.917ZM426.522 433.092C425.65 428.025 425.44 422.738 425.9 417.38C426.377 411.807 427.342 390.819 427.968 375.581C428.596 390.767 429.567 411.979 430.034 417.026C430.54 422.486 430.341 427.914 429.441 433.159C428.971 435.903 428.432 440.206 427.987 445.681C427.539 440.177 426.996 435.849 426.522 433.092ZM426.269 537.125L426.268 537.088L426.265 537.051C425.865 531.714 426.011 526.687 426.166 521.363C426.255 518.276 426.348 515.084 426.349 511.573C426.35 506.616 426.57 501.483 427.003 496.315C427.352 492.143 427.697 487.513 427.989 482.87C428.392 489.246 428.828 494.602 428.987 496.497C429.407 501.509 429.623 506.53 429.628 511.42C429.633 516.167 429.73 520.047 429.815 523.471C429.947 528.739 430.051 532.901 429.711 537.034L429.707 537.079L429.705 537.125C429.509 541.709 429.337 545.722 427.987 550.759C426.637 545.722 426.465 541.709 426.269 537.125ZM541.081 319.451L541.043 319.359L540.996 319.271C540.376 318.097 539.727 316.662 539.04 315.143C537.83 312.467 536.579 309.701 535.114 307.477C532.428 303.402 528.424 299.971 524.891 296.943C523.465 295.72 521.848 294.335 521.057 289.592C520.241 284.689 519.773 280.293 519.232 275.203C518.63 269.547 517.948 263.137 516.61 254.299C515.622 247.779 514.294 242.889 513.012 238.16C511.384 232.161 509.847 226.495 508.992 217.739C508.528 212.986 507.688 206.929 506.798 200.516C506.049 195.115 505.274 189.53 504.665 184.304C500.211 146.075 489.504 139.112 484.359 135.766C484.038 135.557 483.741 135.365 483.473 135.179C479.71 132.573 472.246 129.784 464.344 126.831C459.735 125.109 454.97 123.328 451.217 121.661C448.042 120.251 446.07 117.301 446.07 113.965V108.492L446.071 103.76C446.071 102.255 446.638 100.829 447.626 99.848C451.665 95.837 456.424 88.101 457.663 78.416C459.467 64.322 458.93 57.056 458.832 55.976C458.805 46.579 455.421 38.631 449.04 32.984C443.529 28.108 436.149 25.281 428.24 25.012L427.987 25.001L427.734 25.012C412.987 25.517 397.192 35.4 397.142 55.991C397.06 57.021 396.57 64.516 398.31 78.41C399.364 86.822 402.936 94.569 408.112 99.665C409.267 100.801 409.904 102.248 409.904 103.739V113.965C409.905 117.301 407.932 120.251 404.758 121.661C401.052 123.307 396.397 125.027 391.895 126.691C383.986 129.614 376.515 132.375 372.494 135.184C372.22 135.375 371.917 135.573 371.587 135.789C366.449 139.149 355.755 146.143 351.309 184.304C350.7 189.53 349.925 195.115 349.176 200.516C348.286 206.928 347.446 212.986 346.982 217.739C346.128 226.495 344.59 232.161 342.962 238.16C341.679 242.889 340.352 247.779 339.365 254.299C338.026 263.137 337.344 269.547 336.743 275.203C336.201 280.293 335.734 284.689 334.916 289.592C334.126 294.335 332.509 295.72 331.083 296.943C327.55 299.97 323.546 303.402 320.86 307.477C319.395 309.701 318.144 312.467 316.934 315.143C316.247 316.662 315.598 318.097 314.978 319.271L314.932 319.359L314.893 319.451C314.39 320.642 313.701 322.272 314.656 323.747C315.586 325.182 317.343 325.219 318.005 325.233L318.144 325.234C320.632 325.234 322.525 323.854 323.849 322.428C323.641 322.992 323.421 323.583 323.189 324.201C321.989 327.386 320.521 333.047 319.733 336.088C319.536 336.847 319.333 337.631 319.27 337.842L319.254 337.884L319.228 337.972C318.881 339.174 318.81 340.989 319.653 342.479C320.198 343.44 321.062 344.12 322.086 344.391C322.528 344.508 322.97 344.568 323.4 344.568C324.023 344.568 324.771 344.444 325.542 344.036C325.24 347.971 327.242 349.25 328.994 349.625C329.38 349.708 329.769 349.75 330.15 349.75C332.339 349.75 334.116 348.407 334.789 346.245C334.825 346.128 334.882 345.944 334.958 345.7C335.578 346.792 336.614 347.572 337.925 347.82C338.193 347.87 338.467 347.896 338.739 347.896C340.952 347.896 342.906 346.267 343.602 343.844C343.809 343.126 344.029 342.352 344.258 341.542C345.081 343.597 346.904 343.985 347.819 344.046C347.918 344.052 348.015 344.055 348.111 344.055C350.503 344.055 352.428 342.197 352.792 339.537C352.945 338.44 355.958 324.702 357.249 319.656C357.68 317.971 358.226 315.051 358.393 313.08C358.629 310.3 358.699 307.947 358.605 305.887L358.595 305.653C358.481 303.167 358.291 299.005 358.825 296.623C360.045 291.175 361.761 285.77 363.576 280.048C366.499 270.839 369.811 260.402 371.541 247.819C372.432 241.344 376.299 222.147 380.736 202.173C381.827 197.259 382.536 193.256 383.008 190.045C383.171 190.799 383.353 191.584 383.549 192.425C385.248 199.722 387.815 210.75 386.517 241.905C386.072 252.575 383.067 267.484 381.079 277.35C380.246 281.483 379.588 284.747 379.267 286.886C376.964 302.208 374.279 325.65 377.526 352.241C379.455 377.318 384.466 398.175 387.462 410.642C388.727 415.909 389.727 420.07 389.966 422.333C390.398 426.421 390.053 432.024 389.689 437.956C389.315 444.041 388.929 450.333 389.21 456.482C389.763 468.58 391.812 477.533 393.98 487.011C395.114 491.965 396.286 497.088 397.356 503.053L397.49 503.789C403.591 536.983 401.538 544.617 400.764 546.166C399.697 548.366 397.171 549.959 394.246 551.804C391.884 553.294 389.207 554.983 386.717 557.337C385.591 558.402 385.083 560.181 385.39 561.981C385.786 564.296 387.39 566.236 389.791 567.305L389.923 567.363L390.06 567.405C393.901 568.571 397.219 569.602 400.099 570.497C409.749 573.495 414.593 575 418.029 575C418.455 575 418.869 574.977 419.26 574.931C422.452 574.554 425.904 573.58 427.987 570.2C430.071 573.58 433.523 574.554 436.714 574.931C437.105 574.977 437.519 575 437.945 575C441.381 575 446.224 573.495 455.874 570.497C458.755 569.602 462.072 568.571 465.914 567.405L466.052 567.363L466.183 567.305C468.584 566.236 470.188 564.296 470.584 561.981C470.891 560.181 470.383 558.402 469.256 557.337C466.767 554.983 464.09 553.294 461.728 551.804C458.803 549.959 456.277 548.366 455.223 546.191C454.436 544.617 452.383 536.982 458.484 503.788L458.619 503.053C459.67 497.194 460.706 492.147 461.708 487.267C463.754 477.306 465.521 468.703 466.755 456.611C467.48 449.497 466.94 441.776 466.463 434.964C466.128 430.165 465.811 425.633 466.017 422.23C466.163 419.819 467.3 415.197 468.74 409.345C471.939 396.343 476.773 376.699 478.45 352.231C481.694 325.644 479.01 302.206 476.707 286.886C476.385 284.742 475.73 281.463 474.902 277.312C472.933 267.453 469.959 252.554 469.457 241.893C468.579 223.257 469.679 206.145 472.726 191.032L472.868 190.323C472.893 190.189 472.921 190.056 472.948 189.924C473.42 193.155 474.133 197.197 475.238 202.172C479.676 222.147 483.543 241.344 484.433 247.819C486.163 260.402 489.476 270.839 492.398 280.049C494.214 285.77 495.929 291.175 497.149 296.623C497.683 299.006 497.493 303.168 497.38 305.655L497.369 305.887C497.275 307.947 497.345 310.3 497.581 313.08C497.748 315.051 498.294 317.971 498.725 319.656C500.274 325.71 503.466 338.45 503.655 339.51C504.109 342.06 506.034 343.84 508.337 343.84C508.492 343.84 508.648 343.832 508.805 343.815C509.571 343.734 510.968 343.395 511.834 342.052C512.021 342.715 512.205 343.362 512.383 343.982C513.078 346.405 515.034 348.033 517.245 348.033C517.518 348.033 517.792 348.008 518.06 347.957C519.386 347.708 520.431 346.913 521.047 345.802C521.107 345.995 521.154 346.145 521.185 346.245C521.857 348.407 523.635 349.75 525.825 349.75C526.205 349.75 526.594 349.708 526.98 349.625C528.732 349.25 530.734 347.971 530.432 344.036C531.204 344.444 531.951 344.568 532.574 344.568C533.004 344.568 533.446 344.508 533.888 344.391C534.912 344.12 535.777 343.44 536.321 342.479C537.164 340.989 537.093 339.174 536.746 337.972L536.72 337.884L536.705 337.842C536.641 337.631 536.438 336.847 536.241 336.088C535.453 333.047 533.985 327.386 532.786 324.201C532.553 323.583 532.333 322.992 532.125 322.428C533.449 323.855 535.342 325.234 537.83 325.234L537.97 325.233C538.631 325.219 540.389 325.182 541.318 323.747C542.274 322.272 541.585 320.642 541.081 319.451Z" fill="#80959B"/>
<path d="M359.759 234.414C359.459 234.414 359.143 234.398 358.81 234.365C357.101 234.06 355.688 231.896 354.944 230.504C354.763 230.163 354.737 229.992 354.843 229.992C354.937 229.992 355.136 230.129 355.424 230.405C356.272 231.222 358.316 231.866 360.604 231.866C362.157 231.866 363.824 231.569 365.305 230.829C365.908 230.526 366.462 230.385 366.815 230.385C367.31 230.385 367.409 230.665 366.691 231.174C364.032 233.055 362.523 234.414 359.759 234.414Z" fill="#C7D1D3"/>
<path d="M496.215 234.414C493.451 234.414 491.942 233.055 489.283 231.174C488.565 230.665 488.664 230.385 489.159 230.385C489.512 230.385 490.066 230.526 490.669 230.829C492.15 231.569 493.817 231.866 495.371 231.866C497.659 231.866 499.702 231.222 500.55 230.405C500.838 230.129 501.037 229.992 501.132 229.992C501.237 229.992 501.211 230.163 501.03 230.504C500.286 231.896 498.873 234.06 497.164 234.365C496.831 234.398 496.515 234.414 496.215 234.414Z" fill="#C7D1D3"/>
<path d="M469.447 309.697C468.17 311.193 466.77 312.533 465.223 313.651C456.742 319.94 440.849 319.399 432.63 312.897C428.562 309.68 429.082 303.273 428.945 298.654C428.794 293.556 428.929 289.648 428.754 284.55C428.724 283.687 428.695 282.824 428.666 281.962C428.634 281.055 427.27 281.068 427.24 281.962L426.991 295.976C426.917 298.297 426.726 302.999 426.629 304.808C426.484 307.486 425.934 310.284 424.226 312.088C422.648 313.755 420.565 314.884 418.473 315.773C407.91 319.774 394.045 319.053 386.528 309.697C385.993 309.065 384.993 309.75 385.377 310.477C389.396 318.196 398.964 321.362 407.211 320.748C414.328 320.256 422.748 318.367 426.906 311.952C427.062 311.627 427.35 311.015 427.57 310.361C427.842 310.424 428.128 310.418 428.397 310.344C428.616 311.006 428.906 311.627 429.068 311.952C433.225 318.366 441.647 320.257 448.763 320.747C457.013 321.361 466.575 318.197 470.597 310.477C471.007 309.771 469.948 309.056 469.447 309.697Z" fill="#80959B"/>
<path d="M414.195 196.119C413.719 196.119 413.679 195.548 413.941 195.291C417.097 192.197 419.534 189.784 420.572 186.188C421.175 184.099 421.199 176.464 421.295 169.973C421.36 165.607 421.702 163.225 422.068 163.225C422.393 163.225 422.736 165.096 422.921 169.113C423.033 171.536 424.075 184.627 421.875 188.65C419.775 192.487 416.625 194.929 414.708 195.961C414.5 196.073 414.33 196.119 414.195 196.119Z" fill="#CBD5D9"/>
<path d="M441.779 196.119C441.644 196.119 441.474 196.073 441.266 195.961C439.349 194.929 436.199 192.487 434.1 188.65C431.899 184.627 432.941 171.536 433.053 169.113C433.239 165.096 433.582 163.225 433.906 163.225C434.272 163.225 434.614 165.607 434.679 169.973C434.775 176.464 434.8 184.099 435.403 186.188C436.44 189.784 438.877 192.197 442.033 195.291C442.296 195.548 442.255 196.119 441.779 196.119Z" fill="#CBD5D9"/>
<path d="M427.73 258.701H427.729C427.044 258.701 426.949 257.907 426.875 256.6C426.201 244.779 426.788 225.023 427.071 217.078C427.129 215.488 427.148 214.951 427.793 214.951H427.794C428.44 214.952 428.458 215.488 428.512 217.081C429.255 238.878 428.875 251.189 428.582 256.587C428.511 257.902 428.418 258.7 427.73 258.701Z" fill="#CBD5D9"/>
<path d="M454.801 426.752C454.247 426.752 453.547 426.565 452.93 426.352C451.035 425.697 448.678 425.433 446.623 425.433C444.753 425.433 443.133 425.652 442.336 425.995C442.07 426.109 441.724 426.258 441.419 426.258C441.198 426.258 440.999 426.18 440.864 425.957C440.665 425.629 440.783 425.283 441.217 424.927C442.194 424.128 444.148 422.776 446.277 422.685H446.281C449.835 422.685 451.496 423.489 454.011 424.707L454.945 425.156C455.233 425.293 456 425.658 455.738 426.299C455.602 426.629 455.25 426.752 454.801 426.752Z" fill="#CBD5D9"/>
<path d="M401.173 426.752C400.724 426.752 400.372 426.629 400.237 426.299C399.974 425.658 400.741 425.293 401.03 425.156L401.964 424.707C404.479 423.489 406.141 422.685 409.672 422.685C411.826 422.776 413.78 424.128 414.757 424.927C415.191 425.283 415.31 425.63 415.111 425.957C414.975 426.18 414.775 426.257 414.555 426.257C414.25 426.257 413.906 426.109 413.639 425.996C412.843 425.652 411.223 425.433 409.353 425.433C407.298 425.433 404.941 425.697 403.044 426.352C402.427 426.565 401.727 426.752 401.173 426.752Z" fill="#CBD5D9"/>
<path d="M190.947 72.255C190.556 77.991 194.204 82.912 199.097 83.246C203.99 83.58 206.929 79.109 207.321 73.373C207.713 67.637 205.408 62.808 200.515 62.474C195.623 62.139 191.339 66.519 190.947 72.255Z" fill="#F7F9F9"/>
<path d="M192.072 72.332C191.9 74.839 192.566 77.244 193.946 79.105C195.285 80.912 197.142 81.983 199.174 82.122C201.126 82.257 202.753 81.506 204.007 79.894C205.236 78.315 206.014 75.972 206.197 73.296C206.489 69.023 205.156 63.92 200.439 63.598C200.289 63.587 200.141 63.582 199.992 63.582C195.915 63.582 192.408 67.403 192.072 72.332ZM199.02 84.37C196.32 84.186 193.874 82.793 192.135 80.447C190.437 78.156 189.616 75.219 189.823 72.178C190.258 65.831 195.096 60.978 200.592 61.349C205.759 61.703 208.916 66.565 208.445 73.45C208.229 76.613 207.309 79.32 205.786 81.278C204.195 83.322 202.071 84.391 199.615 84.391C199.419 84.391 199.22 84.384 199.02 84.37Z" fill="#80959B"/>
<path d="M153.078 72.255C153.47 77.991 149.821 82.912 144.929 83.246C140.036 83.58 137.096 79.109 136.705 73.373C136.313 67.637 138.618 62.808 143.51 62.474C148.403 62.139 152.687 66.519 153.078 72.255Z" fill="#F7F9F9"/>
<path d="M144.033 63.582C143.885 63.582 143.737 63.587 143.587 63.598C138.87 63.92 137.537 69.023 137.829 73.296C138.012 75.972 138.789 78.315 140.018 79.894C141.273 81.506 142.899 82.257 144.852 82.122C146.884 81.983 148.74 80.912 150.08 79.105C151.46 77.244 152.125 74.839 151.954 72.332C151.618 67.403 148.11 63.582 144.033 63.582ZM144.41 84.391C141.954 84.391 139.831 83.322 138.24 81.278C136.716 79.32 135.797 76.613 135.58 73.45C135.11 66.565 138.266 61.703 143.433 61.349C148.929 60.978 153.768 65.831 154.203 72.178C154.41 75.219 153.589 78.156 151.89 80.447C150.151 82.793 147.706 84.186 145.005 84.37C144.805 84.384 144.606 84.391 144.41 84.391Z" fill="#80959B"/>
<path d="M171.916 306.856C171.884 311.01 171.861 314.909 171.84 318.697C171.762 332.293 171.694 344.035 171.209 360.833C170.943 370.087 169.274 409.329 168.594 417.267C168.125 422.739 168.338 428.139 169.23 433.319C170.029 437.959 171.023 447.104 171.42 458.852C171.718 467.667 170.722 483.963 169.691 496.273C169.264 501.366 169.044 506.575 169.038 511.754C169.034 514.854 168.98 517.558 168.932 519.944C168.826 525.172 168.744 529.301 169.169 534.991L169.304 536.871C169.561 540.538 169.826 544.329 170.736 548.371C171.362 551.149 171.669 556.586 171.872 560.183L171.879 560.313C172.069 556.403 172.401 551.112 172.93 548.762C173.986 544.07 174.285 540.273 174.575 536.601L174.696 535.089C175.112 530.031 175.082 526.138 175.033 519.687C175.015 517.349 174.995 514.666 174.991 511.453C174.985 506.528 174.761 501.376 174.324 496.141C173.299 483.859 172.309 467.614 172.605 458.852C173.002 447.126 173.991 438.008 174.784 433.386C175.704 428.024 175.908 422.478 175.391 416.903C174.723 409.7 173.028 369.436 172.777 361.042C172.292 344.84 172.24 332.967 172.185 320.396C172.166 316.077 172.147 311.637 172.11 306.856H171.916ZM178.736 572.6C177.383 572.6 176.327 572.435 175.507 572.094L175.351 572.029C174.044 571.489 172.588 570.887 171.962 568.606C171.906 568.908 171.835 569.215 171.744 569.531L171.715 569.634L171.664 569.728C170.909 571.124 169.719 571.619 168.669 572.056L168.577 572.093C167.757 572.435 166.693 572.6 165.324 572.6C164.038 572.6 162.64 572.46 161.288 572.323L160.656 572.26C159.27 572.123 157.716 572.089 156.069 572.052C154.465 572.016 152.806 571.979 151.162 571.845C138.976 570.843 134.415 569.445 134.334 566.685C134.221 562.842 136.166 559.909 139.109 555.469C141.099 552.467 143.576 548.732 146.178 543.527C147.687 540.51 148.368 531.306 143.045 504.596C142.879 503.764 142.758 503.154 142.697 502.817C141.621 496.821 140.446 491.683 139.309 486.713C137.154 477.295 135.119 468.399 134.571 456.422C134.293 450.344 134.678 444.089 135.049 438.04C135.417 432.05 135.764 426.392 135.321 422.193C135.073 419.843 134.114 415.852 132.787 410.328C129.798 397.893 124.798 377.079 122.88 352.086C119.648 325.68 122.322 302.34 124.615 287.085C124.931 284.979 125.586 281.728 126.416 277.613C128.412 267.706 131.429 252.736 131.878 241.961C133.184 210.625 130.591 199.491 128.877 192.122C128.644 191.121 128.429 190.199 128.246 189.314C127.736 186.856 127.081 184.787 126.495 183.228C126.182 186.786 125.487 192.742 123.457 201.883C119.013 221.885 115.138 241.128 114.243 247.637C112.528 260.107 109.234 270.487 106.328 279.645C104.503 285.395 102.779 290.826 101.546 296.331C100.974 298.888 101.161 302.997 101.285 305.715L101.296 305.947C101.387 307.945 101.319 310.242 101.088 312.967C100.945 314.644 100.448 317.496 99.98 319.324C98.671 324.438 95.642 338.268 95.493 339.356C95.222 341.335 93.841 342.719 92.136 342.719L91.932 342.712C90.662 342.628 89.158 341.904 89.199 338.924C89.227 336.956 89.8 334.033 90.355 331.204C90.712 329.385 91.052 327.652 91.188 326.441L90.902 326.476C90.399 328.877 88.167 337.122 86.343 343.475C85.813 345.32 84.375 346.56 82.764 346.56C82.576 346.56 82.387 346.542 82.198 346.506C80.479 346.183 79.44 344.495 79.729 342.492C80.008 340.548 81.48 335.104 82.663 330.731C83.183 328.808 83.644 327.107 83.892 326.108L83.622 326.07C82.531 329.748 78.037 344.241 77.537 345.848C77.038 347.454 75.781 348.414 74.175 348.414C73.888 348.414 73.594 348.381 73.3 348.318C70.552 347.729 70.817 344.975 70.917 343.939C71.057 342.491 73.494 334.613 75.977 326.668C76.349 325.479 76.658 324.492 76.859 323.836L76.786 323.811C76.372 324.973 75.639 327.196 74.868 329.531C72.905 335.479 71.475 339.761 70.946 340.709C70.01 342.382 68.826 343.231 67.426 343.231C67.112 343.231 66.784 343.186 66.454 343.099C65.77 342.918 65.213 342.475 64.841 341.82C64.202 340.689 64.278 339.241 64.538 338.343C64.608 338.135 64.823 337.307 65.05 336.431C65.833 333.413 67.29 327.793 68.465 324.672C70.581 319.054 71.646 315.659 72.116 313.783C71.506 314.618 70.64 315.928 69.42 317.949C69.167 318.368 68.98 318.677 68.889 318.811C68.827 318.901 68.754 319.015 68.668 319.149C67.756 320.57 65.62 323.898 62.17 323.898L62.058 323.897C61.213 323.879 60.283 323.761 59.803 323.02C59.275 322.205 59.63 321.2 60.15 319.972C60.825 318.686 61.482 317.232 62.178 315.694C63.366 313.065 64.595 310.348 66.002 308.213C68.584 304.294 72.512 300.928 75.978 297.958C77.844 296.358 79.455 294.641 80.26 289.812C81.084 284.869 81.554 280.454 82.098 275.341C82.698 269.7 83.378 263.306 84.711 254.499C85.687 248.056 87.004 243.204 88.277 238.512C89.92 232.456 91.472 226.737 92.338 217.869C92.799 213.142 93.638 207.097 94.526 200.698C95.276 195.29 96.051 189.699 96.662 184.458C101.036 146.919 111.376 140.157 116.345 136.907C116.687 136.684 117.001 136.478 117.285 136.28C121.165 133.57 128.557 130.838 136.384 127.945C140.905 126.274 145.581 124.546 149.326 122.882C152.991 121.255 155.267 117.837 155.267 113.965L155.266 100.611C150.489 96.996 145.051 89.333 143.662 78.244C141.841 63.704 142.481 56.308 142.508 56C142.505 36.678 157.108 27.182 171.028 26.384L171.031 26.34L172.937 26.337L172.942 26.384C186.904 27.18 201.496 36.664 201.522 56.04C201.594 56.774 202.199 63.901 200.363 78.247C199.039 88.598 193.504 96.979 188.76 100.609L188.759 113.965C188.758 117.837 191.035 121.254 194.7 122.882C198.489 124.566 203.275 126.354 207.902 128.083C215.724 131.006 223.112 133.767 226.737 136.278C227.016 136.47 227.323 136.67 227.656 136.887C232.631 140.122 242.982 146.854 247.363 184.458C247.974 189.701 248.75 195.295 249.501 200.705C250.388 207.102 251.226 213.144 251.687 217.869C252.553 226.736 254.105 232.455 255.748 238.51C257.021 243.203 258.338 248.056 259.312 254.499C260.647 263.307 261.327 269.701 261.928 275.343C262.472 280.455 262.942 284.869 263.765 289.812C264.569 294.64 266.18 296.358 268.047 297.958C271.514 300.929 275.443 304.296 278.023 308.213C279.431 310.348 280.659 313.066 281.848 315.695C282.543 317.233 283.2 318.686 283.839 319.896C284.395 321.2 284.75 322.205 284.222 323.021C283.742 323.761 282.813 323.879 281.966 323.897L281.855 323.898C278.407 323.898 276.27 320.572 275.358 319.151C275.272 319.017 275.198 318.902 275.136 318.811C275.046 318.677 274.86 318.372 274.609 317.956C273.392 315.939 272.526 314.63 271.911 313.791C272.383 315.669 273.448 319.063 275.56 324.672C276.734 327.789 278.191 333.405 278.973 336.422C279.201 337.302 279.416 338.134 279.467 338.279C279.747 339.242 279.823 340.691 279.183 341.82C278.813 342.476 278.255 342.918 277.572 343.099C277.242 343.186 276.914 343.231 276.599 343.231C275.199 343.231 274.015 342.382 273.079 340.71C272.55 339.762 271.123 335.484 269.162 329.544C268.39 327.204 267.654 324.975 267.239 323.81L267.166 323.836C267.37 324.497 267.681 325.494 268.057 326.695C270.536 334.627 272.968 342.493 273.108 343.938C273.208 344.975 273.473 347.729 270.726 348.318C270.432 348.381 270.137 348.414 269.851 348.414C268.244 348.414 266.988 347.454 266.488 345.848C265.986 344.236 261.484 329.716 260.402 326.066L260.131 326.106C260.377 327.098 260.834 328.795 261.349 330.712C262.542 335.152 264.027 340.677 264.309 342.63C264.596 344.634 263.557 346.32 261.838 346.643C261.65 346.679 261.459 346.697 261.271 346.697C259.661 346.697 258.222 345.457 257.694 343.613C255.952 337.545 253.639 328.957 253.123 326.475L252.842 326.443C253.003 327.725 253.446 329.57 253.912 331.508C254.529 334.077 255.167 336.734 255.268 338.59C255.429 341.567 253.955 342.352 252.69 342.485C252.58 342.497 252.471 342.503 252.363 342.503C250.72 342.503 249.335 341.177 248.996 339.276C248.785 338.089 245.372 324.509 244.046 319.324C243.636 317.724 243.096 314.839 242.939 312.968C242.708 310.25 242.639 307.954 242.73 305.947L242.742 305.702C242.865 302.987 243.052 298.884 242.479 296.331C241.246 290.826 239.522 285.394 237.697 279.643C234.791 270.485 231.498 260.106 229.783 247.637C228.886 241.125 225.012 221.882 220.569 201.883C218.571 192.889 217.866 186.979 217.546 183.402C216.716 185.666 216.023 187.798 215.581 190.068L215.44 190.772C212.373 205.995 211.265 223.215 212.147 241.956C212.655 252.717 215.64 267.675 217.616 277.572C218.442 281.707 219.093 284.973 219.411 287.085C221.703 302.338 224.378 325.677 221.141 352.13C219.481 376.46 214.659 396.058 211.468 409.026C209.955 415.175 208.863 419.618 208.709 422.149C208.497 425.64 208.817 430.215 209.156 435.06C209.629 441.817 210.165 449.477 209.451 456.476C208.224 468.5 206.464 477.072 204.425 486.998C203.421 491.887 202.382 496.941 201.328 502.817C201.268 503.156 201.146 503.769 200.978 504.607C196.708 526.046 195.654 539.141 197.847 543.527C200.449 548.731 202.926 552.467 204.917 555.468C207.86 559.909 209.805 562.842 209.692 566.685C209.611 569.445 205.05 570.843 192.864 571.845C191.219 571.979 189.56 572.016 187.957 572.052C186.31 572.089 184.756 572.123 183.37 572.26L182.702 572.327C181.373 572.462 179.998 572.6 178.736 572.6Z" fill="#F7F9F9"/>
<path d="M152.854 424.026C148.849 424.026 147.226 422.417 144.028 420.02C143.31 419.481 143.38 419.208 143.849 419.208C144.251 419.208 144.944 419.408 145.686 419.812C147.763 420.943 150.269 421.389 152.466 421.389C154.563 421.389 156.377 420.983 157.266 420.377C157.62 420.138 157.864 420.019 157.98 420.019C158.119 420.019 158.074 420.189 157.815 420.525C156.784 421.853 154.884 423.889 152.854 424.026Z" fill="#CBD5D9"/>
<path d="M172.032 109.125C170.266 109.125 168.495 108.912 166.872 108.488C163.225 107.532 158.027 104.617 153.938 101.233C153.445 100.825 153.376 100.095 153.784 99.603C154.192 99.111 154.922 99.041 155.415 99.449C159.208 102.587 164.16 105.383 167.459 106.247C170.335 107 173.738 107.001 176.562 106.248C179.346 105.506 185.217 102.676 188.55 99.502C189.013 99.062 189.746 99.08 190.188 99.542C190.629 100.005 190.611 100.738 190.148 101.179C186.491 104.663 180.254 107.661 177.159 108.486C175.561 108.912 173.799 109.125 172.032 109.125Z" fill="#80959B"/>
<path d="M191.172 424.026C189.142 423.889 187.241 421.853 186.211 420.525C185.952 420.189 185.907 420.019 186.045 420.019C186.161 420.019 186.405 420.138 186.76 420.377C187.649 420.983 189.463 421.389 191.56 421.389C193.756 421.389 196.263 420.943 198.34 419.812C199.082 419.408 199.775 419.208 200.176 419.208C200.646 419.208 200.716 419.481 199.997 420.02C196.8 422.417 195.176 424.026 191.172 424.026Z" fill="#CBD5D9"/>
<path d="M172.013 257.907C173.55 257.907 174.795 258.811 174.795 259.926C174.795 261.041 173.55 261.944 172.013 261.944C170.476 261.944 169.23 261.041 169.23 259.926C169.23 258.811 170.476 257.907 172.013 257.907Z" fill="#80959B"/>
<path d="M178.632 196.906C178.18 196.906 175.076 196.225 171.933 196.221H171.907C170.392 196.221 168.869 196.392 167.671 196.563C166.472 196.733 165.599 196.904 165.387 196.904C165.346 196.904 165.33 196.897 165.341 196.883C166.948 194.736 169.483 193.661 172.016 193.661C174.548 193.661 177.079 194.734 178.685 196.883C178.697 196.899 178.679 196.906 178.632 196.906Z" fill="#CBD5D9"/>
<path d="M281.946 322.917L281.856 322.918C278.624 322.918 276.614 319.239 275.946 318.259C275.47 317.56 272.235 311.788 270.924 311.478L270.861 311.47C269.557 311.47 273.83 322.858 274.644 325.017C276.217 329.194 278.342 338.073 278.546 338.616C278.913 339.884 278.668 341.795 277.32 342.152C277.072 342.218 276.832 342.251 276.6 342.251C275.572 342.251 274.699 341.599 273.935 340.231C273.094 338.725 268.964 325.582 267.991 323.013C267.918 322.821 267.728 322.705 267.524 322.705L267.333 322.741L266.375 323.073C266.137 323.158 266.007 323.393 266.077 323.623C266.883 326.305 271.952 342.157 272.133 344.033C272.331 346.09 271.908 347.063 270.52 347.36C270.292 347.409 270.068 347.434 269.85 347.434C268.744 347.434 267.811 346.803 267.423 345.557C267.005 344.213 262.109 328.425 261.238 325.438C261.168 325.198 260.936 325.043 260.682 325.043L260.538 325.06L259.495 325.212C259.189 325.273 258.996 325.548 259.061 325.836C259.625 328.316 262.921 339.866 263.339 342.77C263.538 344.158 262.942 345.439 261.657 345.681C261.528 345.705 261.4 345.717 261.272 345.717C260.124 345.717 259.045 344.766 258.635 343.342C256.762 336.818 254.318 327.687 254.018 325.941C253.984 325.743 253.82 325.586 253.609 325.547L252.395 325.406L252.295 325.397C252.001 325.397 251.792 325.645 251.81 325.943C251.983 328.791 254.107 335.278 254.29 338.644C254.392 340.536 253.831 341.379 252.586 341.511L252.363 341.523C251.212 341.523 250.222 340.57 249.961 339.104C249.738 337.851 246.266 324.048 244.995 319.081C244.565 317.401 244.061 314.611 243.915 312.884C243.656 309.831 243.633 307.664 243.709 305.992C243.832 303.283 244.054 298.879 243.436 296.117C240.172 281.548 233.504 267.505 230.754 247.504C229.891 241.228 226.101 222.267 221.525 201.67C220.006 194.828 219.238 189.754 218.819 186.169C218.674 184.926 218.776 183.674 219.125 182.472C219.515 181.128 219.912 179.789 220.361 178.472C220.715 177.407 221.11 176.413 221.662 175.501C221.807 175.258 221.793 174.94 221.602 174.708C221.36 174.413 220.925 174.37 220.629 174.613C217.009 178.582 215.646 184.934 214.553 190.216C214.102 192.393 213.701 194.579 213.346 196.773C211.714 206.859 211 217.093 210.894 227.303C210.842 232.204 210.938 237.106 211.169 242.002C211.882 257.136 217.338 279.878 218.442 287.23C221.299 306.237 223.118 327.908 220.169 352.012C217.708 388.038 208.218 414.041 207.73 422.09C207.22 430.508 209.697 444.407 208.476 456.376C206.645 474.318 203.54 484.94 200.364 502.644C199.766 505.982 193.13 536.282 196.971 543.965C203.328 556.68 208.889 560.633 208.712 566.657C208.69 567.414 207.952 568.038 206.711 568.558C206.01 568.853 205.181 568.43 205.053 567.68C204.947 567.057 204.755 566.44 204.396 565.844C204.035 565.242 203.505 564.569 203.04 564.775C202.548 564.992 202.812 565.875 202.898 566.165L202.899 566.166C203.287 567.456 203.161 568.28 203.001 569.323C202.987 569.416 202.973 569.515 202.959 569.611C202.257 569.75 201.509 569.878 200.725 569.997C199.909 570.12 199.167 569.536 199.061 568.718C198.966 567.992 198.775 567.286 198.36 566.595C197.999 565.995 197.476 565.321 197.004 565.527C196.512 565.744 196.776 566.626 196.863 566.916C197.25 568.205 197.125 569.03 196.965 570.07C196.945 570.203 196.925 570.343 196.905 570.482C196.091 570.569 195.259 570.65 194.416 570.726C193.618 570.799 192.913 570.205 192.84 569.406C192.746 568.379 192.527 567.386 191.947 566.422C191.521 565.711 190.903 564.91 190.374 565.143C190.004 565.306 189.959 565.836 190.237 566.761V566.762C190.439 567.436 190.486 568.281 190.472 569.039C190.45 570.148 189.541 571.036 188.432 571.062C187.754 571.078 187.085 571.092 186.432 571.111C185.513 571.138 184.76 570.43 184.68 569.513C184.543 567.932 184.119 566.755 183.92 565.34C183.635 563.337 181.535 563.344 181.265 565.35C181.084 566.688 181.846 566.743 182.015 569.354C182.09 570.505 181.202 571.506 180.05 571.576C179.601 571.604 179.162 571.62 178.738 571.62C177.645 571.62 176.656 571.51 175.883 571.189C174.384 570.566 173.022 570.102 172.698 567.218C172.639 565.723 172.676 564.033 172.698 564.052C172.806 561.327 173.164 552.184 173.886 548.977C175.103 543.57 175.327 539.363 175.672 535.17C176.241 528.251 175.985 523.677 175.97 511.456C175.965 506.492 175.761 501.527 175.344 496.58C174.46 486.101 173.264 468.374 173.584 458.885C173.961 447.753 174.9 438.506 175.75 433.551C176.698 428.02 176.885 422.399 176.367 416.812C175.716 409.793 174.028 370.082 173.756 361.012C173.124 339.896 173.229 326.437 173.1 308.282C173.201 308.27 173.298 308.256 173.372 308.245C177.361 307.644 179.094 304.829 179.166 304.71C179.302 304.482 179.266 304.189 179.077 304.001C178.887 303.812 178.595 303.781 178.368 303.918C175.606 305.599 172.395 306.479 169.23 305.492C167.997 305.107 166.764 304.591 165.658 303.918C165.432 303.777 165.139 303.812 164.949 304.001C164.76 304.189 164.723 304.482 164.86 304.71C164.932 304.829 166.664 307.644 170.654 308.245C170.728 308.256 170.824 308.27 170.925 308.281C170.792 326.346 170.836 339.815 170.23 360.804C169.966 369.978 168.291 409.329 167.617 417.183C167.15 422.627 167.338 428.1 168.265 433.485C169.117 438.441 170.063 447.703 170.441 458.885C170.758 468.27 169.592 485.73 168.711 496.233C168.282 501.346 168.062 506.47 168.058 511.601C168.052 521.29 167.556 526.557 168.193 535.064C168.514 539.354 168.697 543.772 169.78 548.586C170.622 552.324 170.879 561.172 171.095 563.339C171.115 565.511 171.386 567.218 170.802 569.262C170.194 570.386 169.235 570.759 168.201 571.189C167.427 571.51 166.428 571.62 165.323 571.62C164.888 571.62 164.437 571.603 163.976 571.575C162.824 571.505 161.936 570.505 162.011 569.353C162.18 566.743 162.941 566.688 162.761 565.35C162.491 563.344 160.39 563.337 160.106 565.34C159.907 566.755 159.483 567.932 159.345 569.513C159.266 570.43 158.513 571.138 157.594 571.111C156.94 571.092 156.272 571.078 155.594 571.062C154.485 571.036 153.575 570.148 153.554 569.039C153.539 568.281 153.586 567.436 153.789 566.762V566.761C154.066 565.836 154.021 565.307 153.652 565.143C153.126 564.909 152.505 565.711 152.078 566.422C151.501 567.384 151.281 568.373 151.186 569.408C151.113 570.206 150.408 570.799 149.61 570.727C148.767 570.65 147.936 570.569 147.121 570.482C147.101 570.343 147.081 570.203 147.061 570.07C146.901 569.029 146.776 568.206 147.162 566.917C147.25 566.626 147.514 565.745 147.021 565.527C146.555 565.32 146.026 565.994 145.666 566.595C145.251 567.286 145.059 567.992 144.964 568.718C144.858 569.536 144.117 570.12 143.301 569.997C142.516 569.878 141.769 569.75 141.067 569.611C141.053 569.515 141.039 569.416 141.025 569.323C140.865 568.28 140.739 567.456 141.126 566.166V566.165C141.213 565.875 141.478 564.993 140.985 564.775C140.523 564.569 139.991 565.242 139.63 565.844C139.271 566.44 139.079 567.057 138.973 567.68C138.845 568.43 138.016 568.853 137.315 568.558C136.074 568.038 135.336 567.414 135.313 566.657C135.136 560.633 140.698 556.68 147.055 543.965C150.896 536.282 144.26 505.982 143.661 502.644C140.486 484.94 136.374 474.39 135.55 456.376C134.989 444.117 137.184 430.508 136.295 422.09C135.449 414.07 126.592 387.652 123.857 352.012C120.908 327.908 122.727 306.237 125.584 287.23C126.688 279.878 132.226 257.14 132.857 242.002C133.333 230.584 133.52 219.074 132.45 207.681C131.938 202.226 130.97 196.824 129.735 191.487C128.914 187.939 128.141 184.428 126.959 180.974C126.172 178.689 125.346 176.266 123.396 174.613C123.177 174.433 122.859 174.4 122.602 174.554C122.26 174.757 122.164 175.21 122.386 175.538C123.549 177.737 124.262 180.13 124.936 182.546C125.261 183.708 125.352 184.917 125.213 186.116C124.796 189.704 124.028 194.795 122.5 201.67C117.925 222.267 114.135 241.228 113.272 247.504C110.522 267.505 103.854 281.548 100.59 296.117C99.971 298.879 100.194 303.283 100.317 305.992C100.393 307.664 100.37 309.831 100.111 312.884C99.964 314.611 99.46 317.401 99.031 319.081C97.76 324.048 94.695 337.962 94.522 339.223C94.316 340.734 93.324 341.739 92.136 341.739L91.996 341.734C90.747 341.652 90.152 340.832 90.179 338.937C90.226 335.567 92.043 328.791 92.215 325.943C92.234 325.645 92.024 325.397 91.73 325.397L91.63 325.406L90.417 325.547C90.206 325.586 90.042 325.743 90.007 325.941C89.708 327.687 87.275 336.68 85.401 343.204C84.992 344.628 83.913 345.579 82.765 345.579C82.637 345.579 82.508 345.567 82.379 345.543C81.094 345.301 80.499 344.02 80.698 342.632C81.116 339.728 84.401 328.316 84.964 325.836C85.03 325.548 84.836 325.273 84.53 325.212L83.487 325.06L83.343 325.043C83.089 325.043 82.857 325.198 82.787 325.438C81.915 328.425 77.02 344.213 76.602 345.557C76.215 346.803 75.281 347.434 74.175 347.434C73.957 347.434 73.733 347.409 73.505 347.36C72.118 347.063 71.694 346.09 71.893 344.033C72.074 342.157 77.142 326.305 77.949 323.623C78.018 323.393 77.888 323.158 77.65 323.073L76.693 322.741L76.501 322.705C76.298 322.705 76.107 322.821 76.034 323.013C75.061 325.582 70.932 338.725 70.09 340.231C69.326 341.599 68.453 342.251 67.426 342.251C67.193 342.251 66.953 342.218 66.705 342.152C65.357 341.795 65.112 339.884 65.479 338.616C65.684 338.073 67.809 329.194 69.382 325.017C70.195 322.858 74.469 311.47 73.165 311.47L73.102 311.478C71.79 311.788 68.555 317.56 68.079 318.259C67.411 319.239 65.402 322.918 62.169 322.918L62.079 322.917C60.201 322.877 60.241 322.273 61.052 320.353C62.788 317.067 64.632 312.072 66.82 308.752C69.251 305.063 72.814 301.96 76.616 298.702C78.484 297.1 80.355 295.202 81.227 289.973C82.964 279.549 83.137 271.441 85.68 254.646C87.873 240.169 91.75 233.982 93.313 217.964C94.16 209.281 96.299 196.039 97.635 184.572C102.269 144.805 113.527 140.1 117.846 137.083C123.926 132.836 139.762 128.203 149.724 123.778C153.571 122.069 156.247 118.348 156.247 113.964C156.246 109.168 156.246 100.116 156.246 100.116C151.302 96.585 145.993 88.968 144.635 78.122C142.806 63.52 143.484 56.089 143.484 56.089C143.484 37.054 158.005 27.726 172.013 27.322L171.959 27.32L172.013 27.317L172.066 27.32L172.013 27.322C186.021 27.726 200.542 37.054 200.542 56.089C200.542 56.089 201.299 63.216 199.391 78.122C198.114 88.099 192.724 96.585 187.78 100.116C187.78 100.116 187.779 109.168 187.779 113.964C187.779 118.348 190.455 122.069 194.302 123.778C204.264 128.203 220.465 133.126 226.18 137.083C230.511 140.082 241.757 144.805 246.39 184.572C247.726 196.039 249.865 209.281 250.712 217.964C252.276 233.982 256.153 240.169 258.345 254.646C260.888 271.441 261.061 279.549 262.799 289.973C263.67 295.202 265.541 297.1 267.41 298.702C271.212 301.96 274.774 305.063 277.205 308.752C279.393 312.072 281.238 317.067 282.973 320.353C283.785 322.273 283.824 322.877 281.946 322.917ZM170.547 433.092C169.675 428.024 169.466 422.738 169.925 417.381C170.403 411.807 171.368 390.819 171.994 375.581C172.622 390.768 173.593 411.981 174.06 417.026C174.566 422.486 174.367 427.914 173.467 433.159C172.996 435.902 172.458 440.207 172.013 445.681C171.565 440.176 171.022 435.849 170.547 433.092ZM171.875 547.312C171.118 543.647 170.874 540.156 170.638 536.774C170.593 536.143 170.55 535.515 170.503 534.891C170.081 529.264 170.164 525.163 170.268 519.971C170.316 517.579 170.371 514.867 170.375 511.756C170.381 506.615 170.599 501.443 171.023 496.386C171.18 494.503 171.612 489.194 172.012 482.865C172.302 487.488 172.645 492.097 172.992 496.253C173.426 501.447 173.648 506.562 173.654 511.455C173.658 514.67 173.678 517.357 173.696 519.696C173.747 526.328 173.775 529.981 173.363 534.98L173.242 536.499C172.981 539.814 172.711 543.233 171.875 547.312ZM285.107 319.451L285.068 319.359L285.022 319.271C284.402 318.097 283.753 316.662 283.066 315.143C281.856 312.467 280.605 309.701 279.14 307.477C276.454 303.402 272.45 299.971 268.917 296.943C267.491 295.72 265.874 294.335 265.084 289.592C264.266 284.689 263.799 280.293 263.257 275.204C262.656 269.547 261.974 263.137 260.635 254.299C259.648 247.779 258.321 242.889 257.038 238.16C255.41 232.161 253.872 226.494 253.018 217.739C252.554 212.986 251.714 206.929 250.824 200.516C250.075 195.115 249.3 189.53 248.691 184.304C244.237 146.075 233.53 139.112 228.384 135.766C228.063 135.557 227.767 135.365 227.499 135.179C223.736 132.573 216.272 129.784 208.37 126.831C203.761 125.109 198.995 123.328 195.243 121.661C192.067 120.251 190.095 117.301 190.096 113.965V101.253C194.937 97.252 200.364 88.768 201.689 78.416C203.493 64.322 202.956 57.056 202.858 55.976C202.831 46.579 199.446 38.631 193.065 32.984C187.555 28.108 180.174 25.281 172.264 25.012L172.013 25.001L171.761 25.012C157.013 25.516 141.218 35.399 141.168 55.991C141.086 57.021 140.596 64.516 142.336 78.41C143.725 89.503 149.065 97.324 153.929 101.262L153.93 113.965C153.93 117.301 151.958 120.251 148.783 121.661C145.077 123.307 140.423 125.027 135.921 126.691C128.011 129.614 120.54 132.375 116.519 135.184C116.246 135.375 115.942 135.573 115.613 135.789C110.474 139.15 99.78 146.143 95.334 184.304C94.725 189.53 93.951 195.115 93.201 200.516C92.312 206.929 91.471 212.986 91.007 217.739C90.153 226.494 88.615 232.161 86.987 238.16C85.704 242.889 84.377 247.779 83.39 254.299C82.052 263.137 81.37 269.547 80.768 275.204C80.227 280.293 79.759 284.689 78.942 289.592C78.151 294.335 76.535 295.72 75.108 296.943C71.575 299.971 67.571 303.402 64.886 307.477C63.42 309.701 62.169 312.467 60.96 315.143C60.273 316.662 59.624 318.097 59.004 319.271L58.957 319.359L58.918 319.451C58.415 320.642 57.726 322.272 58.681 323.747C59.611 325.182 61.369 325.219 62.03 325.233L62.169 325.235C64.657 325.235 66.55 323.855 67.874 322.428C67.667 322.992 67.447 323.583 67.214 324.201C66.014 327.386 64.547 333.047 63.758 336.088C63.561 336.847 63.358 337.631 63.295 337.842L63.279 337.884L63.254 337.972C62.906 339.174 62.835 340.989 63.678 342.478C64.223 343.44 65.087 344.12 66.112 344.391C66.554 344.508 66.996 344.568 67.426 344.568C68.048 344.568 68.796 344.444 69.567 344.036C69.266 347.971 71.267 349.25 73.019 349.625C73.405 349.708 73.794 349.75 74.175 349.75C76.364 349.75 78.142 348.407 78.814 346.245C78.851 346.128 78.908 345.944 78.983 345.7C79.603 346.792 80.639 347.572 81.95 347.82C82.218 347.87 82.492 347.896 82.765 347.896C84.977 347.896 86.931 346.267 87.628 343.844C87.834 343.126 88.054 342.352 88.283 341.542C89.107 343.597 90.929 343.985 91.844 344.046C91.943 344.052 92.04 344.055 92.136 344.055C94.528 344.055 96.453 342.197 96.818 339.537C96.971 338.44 99.984 324.701 101.275 319.655C101.706 317.971 102.252 315.051 102.419 313.08C102.655 310.3 102.724 307.947 102.631 305.887L102.62 305.653C102.507 303.167 102.317 299.005 102.851 296.623C104.071 291.175 105.786 285.771 107.602 280.049C110.524 270.84 113.837 260.402 115.567 247.819C116.457 241.345 120.324 222.147 124.762 202.172C125.853 197.259 126.562 193.256 127.034 190.045C127.197 190.799 127.379 191.584 127.575 192.425C129.272 199.722 131.841 210.75 130.542 241.905C130.098 252.575 127.093 267.484 125.105 277.35C124.272 281.483 123.614 284.747 123.293 286.886C120.99 302.208 118.305 325.651 121.551 352.241C123.48 377.318 128.492 398.175 131.487 410.641C132.753 415.909 133.753 420.07 133.992 422.333C134.423 426.421 134.079 432.024 133.715 437.956C133.341 444.041 132.955 450.333 133.236 456.482C133.789 468.58 135.837 477.533 138.006 487.011C139.139 491.965 140.311 497.088 141.381 503.053C141.443 503.395 141.566 504.014 141.734 504.859C147.259 532.585 146.141 540.612 144.983 542.93C142.417 548.061 139.966 551.759 137.996 554.73C135.021 559.216 132.872 562.457 132.998 566.725C133.121 570.912 139.438 572.222 151.052 573.176C152.737 573.315 154.417 573.352 156.041 573.388C157.66 573.424 159.19 573.458 160.525 573.59L161.149 573.652C162.535 573.792 163.968 573.937 165.323 573.937C166.893 573.937 168.09 573.743 169.09 573.328L169.177 573.292C170.031 572.937 171.123 572.484 172.029 571.503C172.92 572.471 173.996 572.915 174.842 573.265L174.994 573.328C175.994 573.743 177.183 573.937 178.738 573.937C180.067 573.937 181.477 573.794 182.841 573.656L183.501 573.59C184.836 573.458 186.365 573.424 187.985 573.388C189.609 573.352 191.289 573.315 192.973 573.176C204.588 572.222 210.905 570.912 211.028 566.725C211.153 562.457 209.004 559.216 206.03 554.73C204.06 551.759 201.608 548.061 199.043 542.93C197.885 540.612 196.766 532.585 202.292 504.859C202.46 504.014 202.583 503.395 202.645 503.053C203.695 497.194 204.732 492.148 205.734 487.268C207.78 477.306 209.547 468.703 210.78 456.612C211.506 449.497 210.966 441.776 210.489 434.964C210.153 430.166 209.836 425.633 210.043 422.23C210.189 419.819 211.326 415.197 212.766 409.345C215.965 396.343 220.799 376.699 222.475 352.231C225.72 325.644 223.036 302.206 220.733 286.886C220.411 284.742 219.756 281.463 218.927 277.311C216.959 267.452 213.985 252.553 213.483 241.893C212.605 223.257 213.705 206.145 216.752 191.032L216.893 190.323C216.919 190.189 216.946 190.056 216.974 189.924C217.446 193.155 218.159 197.197 219.264 202.172C223.701 222.146 227.568 241.343 228.459 247.819C230.189 260.402 233.501 270.84 236.424 280.049C238.239 285.77 239.955 291.175 241.175 296.623C241.709 299.005 241.519 303.167 241.405 305.653L241.395 305.887C241.301 307.947 241.37 310.3 241.606 313.08C241.774 315.051 242.319 317.971 242.751 319.655C244.3 325.709 247.491 338.449 247.68 339.51C248.135 342.059 250.06 343.84 252.363 343.84C252.517 343.84 252.673 343.832 252.83 343.815C253.597 343.733 254.994 343.395 255.86 342.052C256.047 342.715 256.23 343.362 256.409 343.982C257.105 346.405 259.06 348.033 261.272 348.033C261.544 348.033 261.818 348.008 262.086 347.957C263.412 347.708 264.456 346.913 265.074 345.802C265.134 345.995 265.18 346.145 265.211 346.245C265.883 348.407 267.661 349.75 269.85 349.75C270.231 349.75 270.62 349.708 271.006 349.625C272.758 349.25 274.76 347.971 274.458 344.036C275.229 344.444 275.977 344.568 276.6 344.568C277.03 344.568 277.472 344.508 277.914 344.391C278.938 344.12 279.802 343.44 280.347 342.478C281.19 340.989 281.119 339.174 280.771 337.972L280.746 337.884L280.73 337.842C280.667 337.631 280.464 336.847 280.267 336.088C279.479 333.047 278.011 327.386 276.811 324.201C276.579 323.583 276.359 322.992 276.151 322.428C277.475 323.855 279.368 325.235 281.856 325.235L281.996 325.233C282.657 325.219 284.414 325.182 285.344 323.747C286.299 322.272 285.61 320.642 285.107 319.451Z" fill="#80959B"/>
<path d="M77.899 315.157C77.706 315.157 77.519 315.061 77.409 314.887C77.248 314.631 77.31 314.295 77.552 314.114C80.741 311.733 85.172 307.882 86.823 301.934C86.891 301.69 87.11 301.508 87.358 301.508C87.375 301.508 87.392 301.509 87.41 301.511C87.681 301.524 87.906 301.723 87.951 301.99C87.978 302.143 88.559 305.763 85.375 309.477C82.571 312.747 78.347 314.997 78.169 315.091C78.083 315.136 77.99 315.157 77.899 315.157Z" fill="#CBD5D9"/>
<path d="M266.126 315.157C266.035 315.157 265.942 315.136 265.856 315.091C265.678 314.997 261.454 312.747 258.651 309.477C255.466 305.763 256.047 302.142 256.074 301.99C256.12 301.723 256.345 301.524 256.616 301.511C256.631 301.509 256.648 301.508 256.665 301.508C256.919 301.508 257.134 301.689 257.203 301.934C258.854 307.882 263.284 311.733 266.473 314.114C266.715 314.295 266.778 314.631 266.617 314.887C266.507 315.061 266.319 315.157 266.126 315.157Z" fill="#CBD5D9"/>
</g>
<defs>
<clipPath id="clip0_182_11">
<rect width="600" height="600" fill="white"/>
</clipPath>
</defs>
</svg>
