<svg width="426" height="368" viewBox="0 0 426 368" fill="none" xmlns="http://www.w3.org/2000/svg">
<path d="M90.8587 199.556C92.8228 201.751 96.1945 201.939 98.3896 199.975C100.585 198.011 100.772 194.639 98.808 192.444C96.8439 190.249 93.4722 190.061 91.2771 192.025C89.082 193.989 88.8947 197.361 90.8587 199.556ZM171.832 128.055C171.862 127.504 171.44 127.032 170.889 127.002L161.903 126.502C161.351 126.472 160.879 126.894 160.849 127.445C160.818 127.997 161.24 128.469 161.792 128.499L169.779 128.943L169.336 136.931C169.305 137.482 169.727 137.954 170.279 137.985C170.83 138.015 171.302 137.593 171.333 137.042L171.832 128.055ZM95.5001 196.745L171.5 128.745L170.167 127.255L94.1665 195.255L95.5001 196.745Z" fill="url(#paint0_linear_59_60)"/>
<path d="M228.04 256.329C230.984 256.215 233.277 253.736 233.163 250.793C233.048 247.85 230.57 245.556 227.626 245.671C224.683 245.785 222.39 248.264 222.504 251.207C222.618 254.15 225.097 256.444 228.04 256.329ZM224.512 147.266C224.107 146.891 223.474 146.915 223.099 147.321L216.987 153.927C216.612 154.332 216.637 154.965 217.042 155.34C217.447 155.715 218.08 155.691 218.455 155.285L223.888 149.413L229.76 154.846C230.166 155.221 230.798 155.197 231.173 154.791C231.549 154.386 231.524 153.753 231.119 153.378L224.512 147.266ZM228.833 250.961L224.833 147.961L222.834 148.039L226.834 251.039L228.833 250.961Z" fill="url(#paint1_linear_59_60)"/>
<circle cx="211.734" cy="101.77" r="48.2698" fill="#62A294" fill-opacity="0.2" stroke="#62A294"/>
<path d="M210.863 242.859L225.211 250.3C226.837 251.144 228.776 251.122 230.382 250.243L244.562 242.486C247.047 241.127 250.155 242.374 251.011 245.074L255.895 260.481C256.448 262.227 257.835 263.583 259.592 264.098L275.104 268.639C277.822 269.435 279.138 272.515 277.834 275.03L270.393 289.377C269.549 291.003 269.571 292.942 270.45 294.549L278.207 308.728C279.567 311.214 278.319 314.322 275.619 315.178L260.212 320.061C258.466 320.615 257.11 322.001 256.595 323.759L252.054 339.27C251.258 341.989 248.178 343.305 245.663 342.001L231.316 334.559C229.69 333.716 227.751 333.738 226.144 334.617L211.965 342.374C209.479 343.733 206.371 342.486 205.515 339.785L200.632 324.378C200.078 322.632 198.692 321.277 196.934 320.762L181.423 316.221C178.704 315.425 177.388 312.345 178.693 309.83L186.134 295.482C186.977 293.857 186.955 291.917 186.076 290.311L178.319 276.131C176.96 273.646 178.207 270.538 180.908 269.682L196.315 264.798C198.061 264.245 199.417 262.859 199.931 261.101L204.473 245.589C205.268 242.871 208.348 241.555 210.863 242.859Z" fill="#F2BE56" fill-opacity="0.2" stroke="#F2BE56"/>
<path d="M76.3229 185.754L117.506 208.312C118.948 209.102 119.844 210.615 119.844 212.259V256.927C119.844 258.571 118.948 260.084 117.506 260.874L76.3229 283.432C74.9761 284.169 73.3461 284.169 71.9993 283.432L30.8161 260.874C29.3743 260.084 28.4779 258.571 28.4779 256.927V212.259C28.4779 210.615 29.3743 209.102 30.8161 208.312L71.9993 185.754C73.3461 185.017 74.9761 185.017 76.3229 185.754Z" fill="#D1B43C" fill-opacity="0.3" stroke="#D1B43C"/>
<path d="M273.333 10.001C273.333 4.75419 277.587 0.5 282.833 0.5H415.833C421.08 0.5 425.333 4.75329 425.333 10V195C425.333 200.247 421.08 204.5 415.833 204.5H282.833C277.587 204.5 273.333 200.246 273.333 194.999V194.81V194.621V194.433V194.244V194.056V193.868V193.68V193.492V193.304V193.116V192.929V192.741V192.554V192.367V192.18V191.993V191.806V191.619V191.433V191.246V191.06V190.874V190.688V190.502V190.316V190.13V189.945V189.759V189.574V189.389V189.204V189.019V188.834V188.649V188.465V188.28V188.096V187.912V187.727V187.543V187.36V187.176V186.992V186.809V186.625V186.442V186.259V186.076V185.893V185.71V185.527V185.345V185.162V184.98V184.798V184.615V184.433V184.252V184.07V183.888V183.707V183.525V183.344V183.163V182.982V182.801V182.62V182.439V182.258V182.078V181.897V181.717V181.537V181.357V181.177V180.997V180.817V180.638V180.458V180.279V180.099V179.92V179.741V179.562V179.383V179.205V179.026V178.847V178.669V178.491V178.312V178.134V177.956V177.778V177.601V177.423V177.245V177.068V176.891V176.713V176.536V176.359V176.182V176.005V175.829V175.652V175.476V175.299V175.123V174.947V174.771V174.595V174.419V174.243V174.067V173.892V173.716V173.541V173.365V173.19V173.015V172.84V172.665V172.491V172.316V172.141V171.967V171.792V171.618V171.444V171.27V171.096V170.922V170.748V170.575V170.401V170.227V170.054V169.881V169.708V169.534V169.361V169.188V169.016V168.843V168.67V168.498V168.325V168.153V167.981V167.809V167.637V167.465V167.293V167.121V166.949V166.778V166.606V166.435V166.263V166.092V165.921V165.75V165.579V165.408V165.237V165.067V164.896V164.726V164.555V164.385V164.215V164.044V163.874V163.704V163.535V163.365V163.195V163.025V162.856V162.687V162.517V162.348V162.179V162.01V161.841V161.672V161.503V161.334V161.165V160.997V160.828V160.66V160.492V160.323V160.155V159.987V159.819V159.651V159.483V159.316V159.148V158.98V158.813V158.646V158.478V158.311V158.144V157.977V157.81V157.643V157.476V157.309V157.142V156.976V156.809V156.643V156.477V156.31V156.144V155.978V155.812V155.646V155.48V155.314V155.148V154.983V154.817V154.652V154.486V154.321V154.155V153.99V153.825V153.66V153.495V153.33V153.165V153.001V152.836V152.671V152.507V152.342V152.178V152.013V151.849V151.685V151.521V151.357V151.193V151.029V150.865V150.701V150.538V150.374V150.211V150.047V149.884V149.72V149.557V149.394V149.231V149.068V148.905V148.742V148.579V148.416V148.253V148.091V147.928V147.766V147.603V147.441V147.278V147.116V146.954V146.792V146.63V146.468V146.306V146.144V145.982V145.82V145.659V145.497V145.336V145.174V145.013V144.851V144.69V144.529V144.368V144.206V144.045V143.884V143.723V143.563V143.402V143.241V143.08V142.92V142.759V142.599V142.438V142.278V142.117V141.957V141.797V141.637V141.477V141.317V141.157V140.997V140.837V140.677V140.517V140.358V140.198V140.038V139.879V139.719V139.56V139.4V139.241V139.082V138.923V138.764V138.604V138.445V138.286V138.127V137.969V137.81V137.651V137.492V137.334V137.175V137.016V136.858V136.699V136.541V136.382V136.224V136.066V135.908V135.749V135.591V135.433V135.275V135.117V134.959V134.801V134.644V134.486V134.328V134.17V134.013V133.855V133.698V133.54V133.383V133.225V133.068V132.91V132.753V132.596V132.439V132.282V132.125V131.967V131.81V131.653V131.497V131.34V131.183V131.026V130.869V130.713V130.556V130.399V130.243V130.086V129.93V129.773V129.617V129.46V129.304V129.148V128.991V128.835V128.679V128.523V128.367V128.211V128.055V127.899V127.743V127.587V127.431V127.275V127.119V126.963V126.808V126.652V126.496V126.341V126.185V126.03V125.874V125.719V125.563V125.408V125.252V125.097V124.942V124.786V124.631V124.476V124.321V124.166V124.01V123.855V123.7V123.545V123.39V123.235V123.08V122.925V122.771V122.616V122.461V122.306V122.151V121.997V121.842V121.687V121.533V121.378V121.224V121.069V120.914V120.76V120.605V120.451V120.297V120.142V119.988V119.834V119.679V119.525V119.371V119.216V119.062V118.908V118.754V118.6V118.446V118.292V118.138V117.983V117.829V117.675V117.522V117.368V117.214V117.06V116.906V116.752V116.598V116.444V116.291V116.137V115.983V115.829V115.676V115.522V115.368V115.215V115.061V114.907V114.754V114.6V114.447V114.293V114.139V113.986V113.832V113.679V113.526V113.372V113.219V113.065V112.912V112.758V112.605V112.452V112.298V112.145V111.992V111.838V111.685V111.532V111.379V111.225V111.072V110.919V110.766V110.613V110.459V110.306V110.153V110C273.333 109.879 273.291 109.788 273.274 109.755C273.252 109.711 273.228 109.676 273.21 109.652C273.174 109.603 273.132 109.556 273.093 109.516C273.013 109.432 272.904 109.331 272.778 109.22C272.524 108.994 272.166 108.696 271.743 108.351C271.325 108.01 270.828 107.61 270.297 107.183C269.768 106.757 269.203 106.303 268.649 105.852C267.524 104.938 266.409 104.01 265.576 103.252C265.159 102.871 264.823 102.543 264.594 102.285C264.493 102.17 264.421 102.078 264.373 102.008C264.417 101.951 264.483 101.877 264.574 101.785C264.799 101.56 265.132 101.276 265.549 100.948C266.38 100.294 267.493 99.5046 268.619 98.7232C269.001 98.4576 269.385 98.1927 269.759 97.9349C270.479 97.4386 271.16 96.9686 271.717 96.5712C272.141 96.2694 272.503 96.002 272.762 95.7912C272.89 95.687 273.005 95.5872 273.091 95.4981C273.134 95.4543 273.181 95.4011 273.221 95.3419C273.248 95.3029 273.333 95.1751 273.333 95V94.8469V94.6937V94.5406V94.3874V94.2342V94.081V93.9278V93.7746V93.6213V93.4681V93.3148V93.1615V93.0082V92.8549V92.7016V92.5483V92.3949V92.2416V92.0882V91.9348V91.7814V91.6279V91.4745V91.321V91.1676V91.0141V90.8605V90.707V90.5535V90.3999V90.2463V90.0927V89.9391V89.7855V89.6318V89.4781V89.3244V89.1707V89.017V88.8632V88.7094V88.5557V88.4018V88.248V88.0941V87.9403V87.7864V87.6324V87.4785V87.3245V87.1705V87.0165V86.8625V86.7084V86.5543V86.4002V86.2461V86.0919V85.9377V85.7835V85.6293V85.475V85.3208V85.1664V85.0121V84.8577V84.7034V84.549V84.3945V84.24V84.0855V83.931V83.7765V83.6219V83.4673V83.3127V83.158V83.0033V82.8486V82.6938V82.5391V82.3842V82.2294V82.0745V81.9196V81.7647V81.6097V81.4548V81.2997V81.1447V80.9896V80.8345V80.6793V80.5241V80.3689V80.2137V80.0584V79.9031V79.7477V79.5923V79.4369V79.2814V79.126V78.9704V78.8149V78.6593V78.5037V78.348V78.1923V78.0366V77.8808V77.725V77.5691V77.4133V77.2573V77.1014V76.9454V76.7893V76.6333V76.4772V76.321V76.1648V76.0086V75.8523V75.696V75.5397V75.3833V75.2269V75.0704V74.9139V74.7573V74.6007V74.4441V74.2874V74.1307V73.974V73.8172V73.6603V73.5034V73.3465V73.1895V73.0325V72.8755V72.7184V72.5612V72.404V72.2468V72.0895V71.9322V71.7748V71.6174V71.4599V71.3024V71.1449V70.9873V70.8296V70.6719V70.5142V70.3564V70.1985V70.0407V69.8827V69.7247V69.5667V69.4086V69.2505V69.0923V68.9341V68.7758V68.6175V68.4591V68.3007V68.1422V67.9837V67.8251V67.6665V67.5078V67.3491V67.1903V67.0314V66.8726V66.7136V66.5546V66.3956V66.2365V66.0773V65.9181V65.7588V65.5995V65.4401V65.2807V65.1212V64.9617V64.8021V64.6424V64.4827V64.323V64.1632V64.0033V63.8433V63.6834V63.5233V63.3632V63.203V63.0428V62.8826V62.7222V62.5618V62.4014V62.2409V62.0803V61.9197V61.759V61.5982V61.4374V61.2765V61.1156V60.9546V60.7936V60.6324V60.4713V60.31V60.1487V59.9874V59.8259V59.6644V59.5029V59.3413V59.1796V59.0179V58.8561V58.6942V58.5323V58.3703V58.2082V58.0461V57.8839V57.7216V57.5593V57.3969V57.2344V57.0719V56.9093V56.7467V56.5839V56.4212V56.2583V56.0954V55.9324V55.7693V55.6062V55.443V55.2797V55.1164V54.953V54.7895V54.6259V54.4623V54.2986V54.1349V53.971V53.8071V53.6432V53.4791V53.315V53.1508V52.9866V52.8222V52.6578V52.4934V52.3288V52.1642V51.9995V51.8347V51.6699V51.505V51.34V51.1749V51.0098V50.8445V50.6792V50.5139V50.3484V50.1829V50.0173V49.8516V49.6859V49.5201V49.3542V49.1882V49.0221V48.856V48.6898V48.5235V48.3571V48.1907V48.0241V47.8575V47.6908V47.5241V47.3572V47.1903V47.0233V46.8562V46.689V46.5218V46.3544V46.187V46.0195V45.852V45.6843V45.5166V45.3487V45.1808V45.0128V44.8448V44.6766V44.5084V44.34V44.1716V44.0031V43.8345V43.6659V43.4971V43.3283V43.1594V42.9904V42.8213V42.6521V42.4828V42.3135V42.144V41.9745V41.8049V41.6352V41.4654V41.2955V41.1256V40.9555V40.7854V40.6151V40.4448V40.2744V40.1039V39.9333V39.7626V39.5919V39.421V39.25V39.079V38.9079V38.7366V38.5653V38.3939V38.2224V38.0508V37.8791V37.7073V37.5354V37.3635V37.1914V37.0193V36.847V36.6747V36.5022V36.3297V36.1571V35.9843V35.8115V35.6386V35.4656V35.2925V35.1193V34.946V34.7726V34.5991V34.4255V34.2518V34.078V33.9041V33.7301V33.5561V33.3819V33.2076V33.0332V32.8587V32.6842V32.5095V32.3347V32.1598V31.9848V31.8098V31.6346V31.4593V31.2839V31.1084V30.9328V30.7572V30.5814V30.4055V30.2295V30.0534V29.8772V29.7009V29.5245V29.3479V29.1713V28.9946V28.8178V28.6408V28.4638V28.2867V28.1094V27.932V27.7546V27.577V27.3993V27.2216V27.0437V26.8657V26.6876V26.5094V26.3311V26.1526V25.9741V25.7955V25.6167V25.4378V25.2589V25.0798V24.9006V24.7213V24.5419V24.3624V24.1827V24.003V23.8232V23.6432V23.4631V23.2829V23.1026V22.9222V22.7417V22.5611V22.3803V22.1995V22.0185V21.8374V21.6562V21.4749V21.2934V21.1119V20.9302V20.7485V20.5666V20.3846V20.2024V20.0202V19.8378V19.6554V19.4728V19.2901V19.1073V18.9243V18.7413V18.5581V18.3748V18.1914V18.0079V17.8242V17.6405V17.4566V17.2726V17.0885V16.9042V16.7199V16.5354V16.3508V16.166V15.9812V15.7962V15.6111V15.4259V15.2406V15.0552V14.8696V14.6839V14.4981V14.3121V14.1261V13.9399V13.7535V13.5671V13.3806V13.1939V13.0071V12.8201V12.6331V12.4459V12.2586V12.0711V11.8836V11.6959V11.5081V11.3201V11.132V10.9438V10.7555V10.5671V10.3785V10.1898V10.001ZM264.317 102.093C264.317 102.093 264.318 102.092 264.319 102.089C264.318 102.092 264.318 102.093 264.317 102.093Z" fill="#FAFAFA" stroke="#62A294"/>
<rect x="316.833" y="171" width="98" height="21" rx="7" fill="#62A294"/>
<path d="M348.717 178.718H350.94C351.342 178.718 351.705 178.784 352.029 178.916C352.359 179.048 352.638 179.246 352.866 179.51C353.1 179.768 353.28 180.095 353.406 180.491C353.532 180.881 353.595 181.337 353.595 181.859C353.595 182.381 353.532 182.84 353.406 183.236C353.28 183.626 353.1 183.953 352.866 184.217C352.638 184.475 352.359 184.67 352.029 184.802C351.705 184.934 351.342 185 350.94 185H348.717V178.718ZM350.94 184.1C351.408 184.1 351.786 183.953 352.074 183.659C352.362 183.365 352.506 182.933 352.506 182.363V181.355C352.506 180.785 352.362 180.353 352.074 180.059C351.786 179.765 351.408 179.618 350.94 179.618H349.734V184.1H350.94ZM354.861 185V178.718H358.884V179.618H355.878V181.364H358.605V182.264H355.878V184.1H358.884V185H354.861ZM362.527 179.618V185H361.51V179.618H359.638V178.718H364.399V179.618H362.527ZM368.725 185L368.158 183.299H365.809L365.26 185H364.225L366.367 178.718H367.645L369.787 185H368.725ZM367.006 179.654H366.961L366.052 182.426H367.906L367.006 179.654ZM370.49 185V184.172H371.345V179.546H370.49V178.718H373.226V179.546H372.362V184.172H373.226V185H370.49ZM374.504 185V178.718H375.521V184.1H378.077V185H374.504ZM381 185.108C380.472 185.108 380.022 185.012 379.65 184.82C379.284 184.628 378.969 184.37 378.705 184.046L379.407 183.389C379.629 183.659 379.872 183.863 380.136 184.001C380.406 184.139 380.712 184.208 381.054 184.208C381.456 184.208 381.759 184.118 381.963 183.938C382.167 183.758 382.269 183.515 382.269 183.209C382.269 182.963 382.197 182.768 382.053 182.624C381.909 182.48 381.654 182.372 381.288 182.3L380.73 182.201C380.118 182.087 379.659 181.886 379.353 181.598C379.047 181.31 378.894 180.914 378.894 180.41C378.894 180.134 378.945 179.885 379.047 179.663C379.155 179.435 379.302 179.246 379.488 179.096C379.68 178.94 379.911 178.82 380.181 178.736C380.451 178.652 380.754 178.61 381.09 178.61C381.564 178.61 381.975 178.694 382.323 178.862C382.671 179.024 382.968 179.261 383.214 179.573L382.503 180.203C382.341 179.993 382.143 179.825 381.909 179.699C381.675 179.573 381.384 179.51 381.036 179.51C380.676 179.51 380.397 179.582 380.199 179.726C380.001 179.87 379.902 180.08 379.902 180.356C379.902 180.62 379.983 180.818 380.145 180.95C380.307 181.076 380.559 181.172 380.901 181.238L381.459 181.355C382.089 181.475 382.548 181.679 382.836 181.967C383.13 182.255 383.277 182.651 383.277 183.155C383.277 183.449 383.226 183.716 383.124 183.956C383.022 184.196 382.872 184.403 382.674 184.577C382.482 184.745 382.245 184.877 381.963 184.973C381.681 185.063 381.36 185.108 381 185.108Z" fill="white"/>
<rect x="287.833" y="171" width="21" height="21" rx="7" fill="#D9D9D9"/>
<path d="M300.711 182.359C300.489 182.359 300.324 182.302 300.216 182.188C300.108 182.068 300.054 181.921 300.054 181.747V181.612C300.054 181.438 300.108 181.294 300.216 181.18C300.324 181.06 300.489 181 300.711 181C300.933 181 301.098 181.06 301.206 181.18C301.314 181.294 301.368 181.438 301.368 181.612V181.747C301.368 181.921 301.314 182.068 301.206 182.188C301.098 182.302 300.933 182.359 300.711 182.359Z" fill="#999999"/>
<path d="M298.101 182.359C297.879 182.359 297.714 182.302 297.606 182.188C297.498 182.068 297.444 181.921 297.444 181.747V181.612C297.444 181.438 297.498 181.294 297.606 181.18C297.714 181.06 297.879 181 298.101 181C298.323 181 298.488 181.06 298.596 181.18C298.704 181.294 298.758 181.438 298.758 181.612V181.747C298.758 181.921 298.704 182.068 298.596 182.188C298.488 182.302 298.323 182.359 298.101 182.359Z" fill="#999999"/>
<path d="M295.49 182.359C295.268 182.359 295.103 182.302 294.995 182.188C294.887 182.068 294.833 181.921 294.833 181.747V181.612C294.833 181.438 294.887 181.294 294.995 181.18C295.103 181.06 295.268 181 295.49 181C295.712 181 295.877 181.06 295.985 181.18C296.093 181.294 296.147 181.438 296.147 181.612V181.747C296.147 181.921 296.093 182.068 295.985 182.188C295.877 182.302 295.712 182.359 295.49 182.359Z" fill="#999999"/>
<path d="M288.757 24V15.624H294.313V17.244H290.581V18.96H293.761V20.568H290.581V24H288.757ZM297.922 24.144C297.442 24.144 297.014 24.068 296.638 23.916C296.262 23.756 295.942 23.536 295.678 23.256C295.422 22.968 295.226 22.62 295.09 22.212C294.962 21.804 294.898 21.348 294.898 20.844C294.898 20.348 294.962 19.9 295.09 19.5C295.218 19.092 295.406 18.744 295.654 18.456C295.91 18.168 296.222 17.948 296.59 17.796C296.958 17.636 297.378 17.556 297.85 17.556C298.37 17.556 298.814 17.644 299.182 17.82C299.558 17.996 299.862 18.232 300.094 18.528C300.334 18.824 300.506 19.168 300.61 19.56C300.722 19.944 300.778 20.348 300.778 20.772V21.3H296.734V21.396C296.734 21.812 296.846 22.144 297.07 22.392C297.294 22.632 297.646 22.752 298.126 22.752C298.494 22.752 298.794 22.68 299.026 22.536C299.258 22.384 299.474 22.204 299.674 21.996L300.562 23.1C300.282 23.428 299.914 23.684 299.458 23.868C299.01 24.052 298.498 24.144 297.922 24.144ZM297.886 18.864C297.526 18.864 297.242 18.984 297.034 19.224C296.834 19.456 296.734 19.768 296.734 20.16V20.256H298.942V20.148C298.942 19.764 298.854 19.456 298.678 19.224C298.51 18.984 298.246 18.864 297.886 18.864ZM306.688 24C306.368 24 306.1 23.9 305.884 23.7C305.676 23.5 305.544 23.232 305.488 22.896H305.416C305.32 23.304 305.108 23.616 304.78 23.832C304.452 24.04 304.048 24.144 303.568 24.144C302.936 24.144 302.452 23.976 302.116 23.64C301.78 23.304 301.612 22.86 301.612 22.308C301.612 21.644 301.852 21.152 302.332 20.832C302.82 20.504 303.48 20.34 304.312 20.34H305.308V19.944C305.308 19.64 305.228 19.4 305.068 19.224C304.908 19.04 304.64 18.948 304.264 18.948C303.912 18.948 303.632 19.024 303.424 19.176C303.216 19.328 303.044 19.5 302.908 19.692L301.852 18.756C302.108 18.38 302.428 18.088 302.812 17.88C303.204 17.664 303.732 17.556 304.396 17.556C305.292 17.556 305.964 17.752 306.412 18.144C306.86 18.536 307.084 19.108 307.084 19.86V22.62H307.672V24H306.688ZM304.228 22.908C304.524 22.908 304.776 22.844 304.984 22.716C305.2 22.588 305.308 22.38 305.308 22.092V21.348H304.444C303.748 21.348 303.4 21.584 303.4 22.056V22.236C303.4 22.468 303.472 22.64 303.616 22.752C303.76 22.856 303.964 22.908 304.228 22.908ZM308.864 24V17.7H310.64V19.068H310.7C310.732 18.892 310.788 18.724 310.868 18.564C310.948 18.396 311.052 18.248 311.18 18.12C311.316 17.992 311.476 17.892 311.66 17.82C311.844 17.74 312.06 17.7 312.308 17.7H312.62V19.356H312.176C311.656 19.356 311.268 19.424 311.012 19.56C310.764 19.696 310.64 19.948 310.64 20.316V24H308.864ZM314.133 19.08H313.245V17.7H314.133V16.956C314.133 16.348 314.293 15.892 314.613 15.588C314.933 15.276 315.401 15.12 316.017 15.12H317.169V16.5H315.909V17.7H317.169V19.08H315.909V24H314.133V19.08ZM321.877 22.944H321.817C321.761 23.104 321.685 23.256 321.589 23.4C321.501 23.544 321.385 23.672 321.241 23.784C321.097 23.896 320.925 23.984 320.725 24.048C320.533 24.112 320.309 24.144 320.053 24.144C319.405 24.144 318.913 23.932 318.577 23.508C318.249 23.076 318.085 22.46 318.085 21.66V17.7H319.861V21.504C319.861 21.888 319.929 22.184 320.065 22.392C320.201 22.6 320.433 22.704 320.761 22.704C320.897 22.704 321.033 22.684 321.169 22.644C321.305 22.604 321.425 22.548 321.529 22.476C321.633 22.396 321.717 22.3 321.781 22.188C321.845 22.076 321.877 21.944 321.877 21.792V17.7H323.653V24H321.877V22.944ZM327.07 24C326.462 24 326.014 23.852 325.726 23.556C325.446 23.26 325.306 22.832 325.306 22.272V15.12H327.082V22.62H327.874V24H327.07ZM335.231 24.144C334.679 24.144 334.175 24.052 333.719 23.868C333.263 23.684 332.875 23.412 332.555 23.052C332.235 22.684 331.987 22.232 331.811 21.696C331.635 21.152 331.547 20.524 331.547 19.812C331.547 19.1 331.635 18.476 331.811 17.94C331.987 17.396 332.235 16.944 332.555 16.584C332.875 16.216 333.263 15.94 333.719 15.756C334.175 15.572 334.679 15.48 335.231 15.48C335.783 15.48 336.287 15.572 336.743 15.756C337.199 15.94 337.587 16.216 337.907 16.584C338.227 16.944 338.475 17.396 338.651 17.94C338.827 18.476 338.915 19.1 338.915 19.812C338.915 20.524 338.827 21.152 338.651 21.696C338.475 22.232 338.227 22.684 337.907 23.052C337.587 23.412 337.199 23.684 336.743 23.868C336.287 24.052 335.783 24.144 335.231 24.144ZM335.231 22.524C335.783 22.524 336.211 22.344 336.515 21.984C336.827 21.624 336.983 21.108 336.983 20.436V19.188C336.983 18.516 336.827 18 336.515 17.64C336.211 17.28 335.783 17.1 335.231 17.1C334.679 17.1 334.247 17.28 333.935 17.64C333.631 18 333.479 18.516 333.479 19.188V20.436C333.479 21.108 333.631 21.624 333.935 21.984C334.247 22.344 334.679 22.524 335.231 22.524ZM340.341 24V17.7H342.117V18.768H342.189C342.301 18.44 342.497 18.156 342.777 17.916C343.057 17.676 343.445 17.556 343.941 17.556C344.589 17.556 345.077 17.772 345.405 18.204C345.741 18.636 345.909 19.252 345.909 20.052V24H344.133V20.196C344.133 19.788 344.069 19.488 343.941 19.296C343.813 19.096 343.585 18.996 343.257 18.996C343.113 18.996 342.973 19.016 342.837 19.056C342.701 19.088 342.577 19.144 342.465 19.224C342.361 19.304 342.277 19.404 342.213 19.524C342.149 19.636 342.117 19.768 342.117 19.92V24H340.341ZM350.117 24.144C349.637 24.144 349.209 24.068 348.833 23.916C348.457 23.756 348.137 23.536 347.873 23.256C347.617 22.968 347.421 22.62 347.285 22.212C347.157 21.804 347.093 21.348 347.093 20.844C347.093 20.348 347.157 19.9 347.285 19.5C347.413 19.092 347.601 18.744 347.849 18.456C348.105 18.168 348.417 17.948 348.785 17.796C349.153 17.636 349.573 17.556 350.045 17.556C350.565 17.556 351.009 17.644 351.377 17.82C351.753 17.996 352.057 18.232 352.289 18.528C352.529 18.824 352.701 19.168 352.805 19.56C352.917 19.944 352.973 20.348 352.973 20.772V21.3H348.929V21.396C348.929 21.812 349.041 22.144 349.265 22.392C349.489 22.632 349.841 22.752 350.321 22.752C350.689 22.752 350.989 22.68 351.221 22.536C351.453 22.384 351.669 22.204 351.869 21.996L352.757 23.1C352.477 23.428 352.109 23.684 351.653 23.868C351.205 24.052 350.693 24.144 350.117 24.144ZM350.081 18.864C349.721 18.864 349.437 18.984 349.229 19.224C349.029 19.456 348.929 19.768 348.929 20.16V20.256H351.137V20.148C351.137 19.764 351.049 19.456 350.873 19.224C350.705 18.984 350.441 18.864 350.081 18.864Z" fill="black"/>
<rect x="287.833" y="65" width="127" height="6" rx="3" fill="#D9D9D9"/>
<path d="M287.833 68C287.833 66.3431 289.176 65 290.833 65H343.833V71H290.833C289.176 71 287.833 69.6569 287.833 68V68Z" fill="#62A294"/>
<path d="M288.337 61V60.172H289.192V55.546H288.337V54.718H291.073V55.546H290.209V60.172H291.073V61H288.337ZM294.043 57.526L293.35 56.194H293.323V61H292.351V54.718H293.485L295.537 58.192L296.23 59.524H296.257V54.718H297.229V61H296.095L294.043 57.526ZM301.107 55.618V61H300.09V55.618H298.218V54.718H302.979V55.618H301.107ZM303.971 61V54.718H307.994V55.618H304.988V57.364H307.715V58.264H304.988V60.1H307.994V61H303.971ZM310.998 57.526L310.305 56.194H310.278V61H309.306V54.718H310.44L312.492 58.192L313.185 59.524H313.212V54.718H314.184V61H313.05L310.998 57.526ZM317.611 61.108C317.083 61.108 316.633 61.012 316.261 60.82C315.895 60.628 315.58 60.37 315.316 60.046L316.018 59.389C316.24 59.659 316.483 59.863 316.747 60.001C317.017 60.139 317.323 60.208 317.665 60.208C318.067 60.208 318.37 60.118 318.574 59.938C318.778 59.758 318.88 59.515 318.88 59.209C318.88 58.963 318.808 58.768 318.664 58.624C318.52 58.48 318.265 58.372 317.899 58.3L317.341 58.201C316.729 58.087 316.27 57.886 315.964 57.598C315.658 57.31 315.505 56.914 315.505 56.41C315.505 56.134 315.556 55.885 315.658 55.663C315.766 55.435 315.913 55.246 316.099 55.096C316.291 54.94 316.522 54.82 316.792 54.736C317.062 54.652 317.365 54.61 317.701 54.61C318.175 54.61 318.586 54.694 318.934 54.862C319.282 55.024 319.579 55.261 319.825 55.573L319.114 56.203C318.952 55.993 318.754 55.825 318.52 55.699C318.286 55.573 317.995 55.51 317.647 55.51C317.287 55.51 317.008 55.582 316.81 55.726C316.612 55.87 316.513 56.08 316.513 56.356C316.513 56.62 316.594 56.818 316.756 56.95C316.918 57.076 317.17 57.172 317.512 57.238L318.07 57.355C318.7 57.475 319.159 57.679 319.447 57.967C319.741 58.255 319.888 58.651 319.888 59.155C319.888 59.449 319.837 59.716 319.735 59.956C319.633 60.196 319.483 60.403 319.285 60.577C319.093 60.745 318.856 60.877 318.574 60.973C318.292 61.063 317.971 61.108 317.611 61.108ZM320.839 61V60.172H321.694V55.546H320.839V54.718H323.575V55.546H322.711V60.172H323.575V61H320.839ZM327.132 55.618V61H326.115V55.618H324.243V54.718H329.004V55.618H327.132ZM331.515 61V58.525L329.355 54.718H330.516L332.046 57.517H332.073L333.594 54.718H334.71L332.532 58.507V61H331.515Z" fill="#999999"/>
<rect x="287.833" y="89" width="127" height="6" rx="3" fill="#D9D9D9"/>
<path d="M287.833 92C287.833 90.3431 289.176 89 290.833 89H386.833V95H290.833C289.176 95 287.833 93.6569 287.833 92V92Z" fill="#62A294"/>
<path d="M288.607 78.718H290.83C291.232 78.718 291.595 78.784 291.919 78.916C292.249 79.048 292.528 79.246 292.756 79.51C292.99 79.768 293.17 80.095 293.296 80.491C293.422 80.881 293.485 81.337 293.485 81.859C293.485 82.381 293.422 82.84 293.296 83.236C293.17 83.626 292.99 83.953 292.756 84.217C292.528 84.475 292.249 84.67 291.919 84.802C291.595 84.934 291.232 85 290.83 85H288.607V78.718ZM290.83 84.1C291.298 84.1 291.676 83.953 291.964 83.659C292.252 83.365 292.396 82.933 292.396 82.363V81.355C292.396 80.785 292.252 80.353 291.964 80.059C291.676 79.765 291.298 79.618 290.83 79.618H289.624V84.1H290.83ZM294.751 85V78.718H298.774V79.618H295.768V81.364H298.495V82.264H295.768V84.1H298.774V85H294.751ZM301.967 85.108C301.439 85.108 300.989 85.012 300.617 84.82C300.251 84.628 299.936 84.37 299.672 84.046L300.374 83.389C300.596 83.659 300.839 83.863 301.103 84.001C301.373 84.139 301.679 84.208 302.021 84.208C302.423 84.208 302.726 84.118 302.93 83.938C303.134 83.758 303.236 83.515 303.236 83.209C303.236 82.963 303.164 82.768 303.02 82.624C302.876 82.48 302.621 82.372 302.255 82.3L301.697 82.201C301.085 82.087 300.626 81.886 300.32 81.598C300.014 81.31 299.861 80.914 299.861 80.41C299.861 80.134 299.912 79.885 300.014 79.663C300.122 79.435 300.269 79.246 300.455 79.096C300.647 78.94 300.878 78.82 301.148 78.736C301.418 78.652 301.721 78.61 302.057 78.61C302.531 78.61 302.942 78.694 303.29 78.862C303.638 79.024 303.935 79.261 304.181 79.573L303.47 80.203C303.308 79.993 303.11 79.825 302.876 79.699C302.642 79.573 302.351 79.51 302.003 79.51C301.643 79.51 301.364 79.582 301.166 79.726C300.968 79.87 300.869 80.08 300.869 80.356C300.869 80.62 300.95 80.818 301.112 80.95C301.274 81.076 301.526 81.172 301.868 81.238L302.426 81.355C303.056 81.475 303.515 81.679 303.803 81.967C304.097 82.255 304.244 82.651 304.244 83.155C304.244 83.449 304.193 83.716 304.091 83.956C303.989 84.196 303.839 84.403 303.641 84.577C303.449 84.745 303.212 84.877 302.93 84.973C302.648 85.063 302.327 85.108 301.967 85.108ZM305.195 85V84.172H306.05V79.546H305.195V78.718H307.931V79.546H307.067V84.172H307.931V85H305.195ZM310.226 85H309.209V78.718H311.918C312.482 78.718 312.926 78.889 313.25 79.231C313.574 79.567 313.736 80.026 313.736 80.608C313.736 81.058 313.631 81.433 313.421 81.733C313.217 82.027 312.914 82.234 312.512 82.354L313.871 85H312.737L311.477 82.462H310.226V85ZM311.846 81.607C312.104 81.607 312.305 81.541 312.449 81.409C312.593 81.271 312.665 81.076 312.665 80.824V80.392C312.665 80.14 312.593 79.948 312.449 79.816C312.305 79.678 312.104 79.609 311.846 79.609H310.226V81.607H311.846ZM315.106 85V78.718H319.129V79.618H316.123V81.364H318.85V82.264H316.123V84.1H319.129V85H315.106ZM322.568 85V78.718H326.492V79.618H323.585V81.364H326.168V82.264H323.585V85H322.568ZM329.92 85.108C329.512 85.108 329.14 85.039 328.804 84.901C328.474 84.757 328.189 84.55 327.949 84.28C327.715 84.004 327.532 83.665 327.4 83.263C327.274 82.855 327.211 82.387 327.211 81.859C327.211 81.331 327.274 80.866 327.4 80.464C327.532 80.056 327.715 79.717 327.949 79.447C328.189 79.171 328.474 78.964 328.804 78.826C329.14 78.682 329.512 78.61 329.92 78.61C330.328 78.61 330.697 78.682 331.027 78.826C331.363 78.964 331.648 79.171 331.882 79.447C332.122 79.717 332.305 80.056 332.431 80.464C332.563 80.866 332.629 81.331 332.629 81.859C332.629 82.387 332.563 82.855 332.431 83.263C332.305 83.665 332.122 84.004 331.882 84.28C331.648 84.55 331.363 84.757 331.027 84.901C330.697 85.039 330.328 85.108 329.92 85.108ZM329.92 84.199C330.16 84.199 330.379 84.157 330.577 84.073C330.781 83.989 330.952 83.869 331.09 83.713C331.234 83.551 331.345 83.356 331.423 83.128C331.501 82.9 331.54 82.642 331.54 82.354V81.364C331.54 81.076 331.501 80.818 331.423 80.59C331.345 80.362 331.234 80.17 331.09 80.014C330.952 79.852 330.781 79.729 330.577 79.645C330.379 79.561 330.16 79.519 329.92 79.519C329.674 79.519 329.452 79.561 329.254 79.645C329.056 79.729 328.885 79.852 328.741 80.014C328.603 80.17 328.495 80.362 328.417 80.59C328.339 80.818 328.3 81.076 328.3 81.364V82.354C328.3 82.642 328.339 82.9 328.417 83.128C328.495 83.356 328.603 83.551 328.741 83.713C328.885 83.869 329.056 83.989 329.254 84.073C329.452 84.157 329.674 84.199 329.92 84.199ZM334.914 85H333.897V78.718H336.606C337.17 78.718 337.614 78.889 337.938 79.231C338.262 79.567 338.424 80.026 338.424 80.608C338.424 81.058 338.319 81.433 338.109 81.733C337.905 82.027 337.602 82.234 337.2 82.354L338.559 85H337.425L336.165 82.462H334.914V85ZM336.534 81.607C336.792 81.607 336.993 81.541 337.137 81.409C337.281 81.271 337.353 81.076 337.353 80.824V80.392C337.353 80.14 337.281 79.948 337.137 79.816C336.993 79.678 336.792 79.609 336.534 79.609H334.914V81.607H336.534ZM344.28 85.108C343.458 85.108 342.813 84.832 342.345 84.28C341.877 83.722 341.643 82.915 341.643 81.859C341.643 81.331 341.703 80.866 341.823 80.464C341.943 80.062 342.117 79.723 342.345 79.447C342.573 79.171 342.849 78.964 343.173 78.826C343.503 78.682 343.872 78.61 344.28 78.61C344.826 78.61 345.282 78.73 345.648 78.97C346.02 79.21 346.311 79.564 346.521 80.032L345.666 80.5C345.558 80.2 345.39 79.963 345.162 79.789C344.94 79.609 344.646 79.519 344.28 79.519C343.794 79.519 343.413 79.684 343.137 80.014C342.861 80.344 342.723 80.8 342.723 81.382V82.336C342.723 82.918 342.861 83.374 343.137 83.704C343.413 84.034 343.794 84.199 344.28 84.199C344.658 84.199 344.964 84.103 345.198 83.911C345.438 83.713 345.615 83.461 345.729 83.155L346.548 83.65C346.338 84.106 346.044 84.463 345.666 84.721C345.288 84.979 344.826 85.108 344.28 85.108ZM349.942 85.108C349.534 85.108 349.162 85.039 348.826 84.901C348.496 84.757 348.211 84.55 347.971 84.28C347.737 84.004 347.554 83.665 347.422 83.263C347.296 82.855 347.233 82.387 347.233 81.859C347.233 81.331 347.296 80.866 347.422 80.464C347.554 80.056 347.737 79.717 347.971 79.447C348.211 79.171 348.496 78.964 348.826 78.826C349.162 78.682 349.534 78.61 349.942 78.61C350.35 78.61 350.719 78.682 351.049 78.826C351.385 78.964 351.67 79.171 351.904 79.447C352.144 79.717 352.327 80.056 352.453 80.464C352.585 80.866 352.651 81.331 352.651 81.859C352.651 82.387 352.585 82.855 352.453 83.263C352.327 83.665 352.144 84.004 351.904 84.28C351.67 84.55 351.385 84.757 351.049 84.901C350.719 85.039 350.35 85.108 349.942 85.108ZM349.942 84.199C350.182 84.199 350.401 84.157 350.599 84.073C350.803 83.989 350.974 83.869 351.112 83.713C351.256 83.551 351.367 83.356 351.445 83.128C351.523 82.9 351.562 82.642 351.562 82.354V81.364C351.562 81.076 351.523 80.818 351.445 80.59C351.367 80.362 351.256 80.17 351.112 80.014C350.974 79.852 350.803 79.729 350.599 79.645C350.401 79.561 350.182 79.519 349.942 79.519C349.696 79.519 349.474 79.561 349.276 79.645C349.078 79.729 348.907 79.852 348.763 80.014C348.625 80.17 348.517 80.362 348.439 80.59C348.361 80.818 348.322 81.076 348.322 81.364V82.354C348.322 82.642 348.361 82.9 348.439 83.128C348.517 83.356 348.625 83.551 348.763 83.713C348.907 83.869 349.078 83.989 349.276 84.073C349.474 84.157 349.696 84.199 349.942 84.199ZM355.611 81.526L354.918 80.194H354.891V85H353.919V78.718H355.053L357.105 82.192L357.798 83.524H357.825V78.718H358.797V85H357.663L355.611 81.526ZM362.036 81.526L361.343 80.194H361.316V85H360.344V78.718H361.478L363.53 82.192L364.223 83.524H364.25V78.718H365.222V85H364.088L362.036 81.526ZM366.768 85V78.718H370.791V79.618H367.785V81.364H370.512V82.264H367.785V84.1H370.791V85H366.768ZM374.461 85.108C373.639 85.108 372.994 84.832 372.526 84.28C372.058 83.722 371.824 82.915 371.824 81.859C371.824 81.331 371.884 80.866 372.004 80.464C372.124 80.062 372.298 79.723 372.526 79.447C372.754 79.171 373.03 78.964 373.354 78.826C373.684 78.682 374.053 78.61 374.461 78.61C375.007 78.61 375.463 78.73 375.829 78.97C376.201 79.21 376.492 79.564 376.702 80.032L375.847 80.5C375.739 80.2 375.571 79.963 375.343 79.789C375.121 79.609 374.827 79.519 374.461 79.519C373.975 79.519 373.594 79.684 373.318 80.014C373.042 80.344 372.904 80.8 372.904 81.382V82.336C372.904 82.918 373.042 83.374 373.318 83.704C373.594 84.034 373.975 84.199 374.461 84.199C374.839 84.199 375.145 84.103 375.379 83.911C375.619 83.713 375.796 83.461 375.91 83.155L376.729 83.65C376.519 84.106 376.225 84.463 375.847 84.721C375.469 84.979 375.007 85.108 374.461 85.108ZM380.139 79.618V85H379.122V79.618H377.25V78.718H382.011V79.618H380.139ZM382.679 85V84.172H383.534V79.546H382.679V78.718H385.415V79.546H384.551V84.172H385.415V85H382.679ZM389.123 85.108C388.715 85.108 388.343 85.039 388.007 84.901C387.677 84.757 387.392 84.55 387.152 84.28C386.918 84.004 386.735 83.665 386.603 83.263C386.477 82.855 386.414 82.387 386.414 81.859C386.414 81.331 386.477 80.866 386.603 80.464C386.735 80.056 386.918 79.717 387.152 79.447C387.392 79.171 387.677 78.964 388.007 78.826C388.343 78.682 388.715 78.61 389.123 78.61C389.531 78.61 389.9 78.682 390.23 78.826C390.566 78.964 390.851 79.171 391.085 79.447C391.325 79.717 391.508 80.056 391.634 80.464C391.766 80.866 391.832 81.331 391.832 81.859C391.832 82.387 391.766 82.855 391.634 83.263C391.508 83.665 391.325 84.004 391.085 84.28C390.851 84.55 390.566 84.757 390.23 84.901C389.9 85.039 389.531 85.108 389.123 85.108ZM389.123 84.199C389.363 84.199 389.582 84.157 389.78 84.073C389.984 83.989 390.155 83.869 390.293 83.713C390.437 83.551 390.548 83.356 390.626 83.128C390.704 82.9 390.743 82.642 390.743 82.354V81.364C390.743 81.076 390.704 80.818 390.626 80.59C390.548 80.362 390.437 80.17 390.293 80.014C390.155 79.852 389.984 79.729 389.78 79.645C389.582 79.561 389.363 79.519 389.123 79.519C388.877 79.519 388.655 79.561 388.457 79.645C388.259 79.729 388.088 79.852 387.944 80.014C387.806 80.17 387.698 80.362 387.62 80.59C387.542 80.818 387.503 81.076 387.503 81.364V82.354C387.503 82.642 387.542 82.9 387.62 83.128C387.698 83.356 387.806 83.551 387.944 83.713C388.088 83.869 388.259 83.989 388.457 84.073C388.655 84.157 388.877 84.199 389.123 84.199ZM394.793 81.526L394.1 80.194H394.073V85H393.101V78.718H394.235L396.287 82.192L396.98 83.524H397.007V78.718H397.979V85H396.845L394.793 81.526Z" fill="#999999"/>
<rect x="287.833" y="113" width="127" height="6" rx="3" fill="#D9D9D9"/>
<path d="M287.833 116C287.833 114.343 289.176 113 290.833 113H390.833V119H290.833C289.176 119 287.833 117.657 287.833 116V116Z" fill="#62A294"/>
<path d="M292.468 106.264H289.624V109H288.607V102.718H289.624V105.364H292.468V102.718H293.485V109H292.468V106.264ZM295.032 109V102.718H299.055V103.618H296.049V105.364H298.776V106.264H296.049V108.1H299.055V109H295.032ZM304.291 109L303.724 107.299H301.375L300.826 109H299.791L301.933 102.718H303.211L305.353 109H304.291ZM302.572 103.654H302.527L301.618 106.426H303.472L302.572 103.654ZM306.326 109V102.718H307.343V108.1H309.899V109H306.326ZM310.67 109V108.172H311.525V103.546H310.67V102.718H313.406V103.546H312.542V108.172H313.406V109H310.67ZM316.376 105.526L315.683 104.194H315.656V109H314.684V102.718H315.818L317.87 106.192L318.563 107.524H318.59V102.718H319.562V109H318.428L316.376 105.526ZM325.15 108.046H325.114C325.048 108.352 324.868 108.607 324.574 108.811C324.286 109.009 323.902 109.108 323.422 109.108C323.05 109.108 322.705 109.039 322.387 108.901C322.069 108.757 321.793 108.55 321.559 108.28C321.331 108.004 321.151 107.665 321.019 107.263C320.893 106.855 320.83 106.387 320.83 105.859C320.83 105.337 320.896 104.875 321.028 104.473C321.16 104.065 321.346 103.723 321.586 103.447C321.826 103.171 322.114 102.964 322.45 102.826C322.786 102.682 323.161 102.61 323.575 102.61C324.139 102.61 324.616 102.736 325.006 102.988C325.396 103.234 325.699 103.579 325.915 104.023L325.087 104.509C324.967 104.215 324.781 103.978 324.529 103.798C324.277 103.612 323.959 103.519 323.575 103.519C323.077 103.519 322.675 103.678 322.369 103.996C322.069 104.314 321.919 104.764 321.919 105.346V106.372C321.919 106.954 322.069 107.404 322.369 107.722C322.675 108.04 323.077 108.199 323.575 108.199C323.773 108.199 323.962 108.175 324.142 108.127C324.322 108.073 324.478 107.998 324.61 107.902C324.748 107.8 324.856 107.677 324.934 107.533C325.018 107.383 325.06 107.209 325.06 107.011V106.525H323.764V105.652H326.041V109H325.15V108.046ZM329.582 109V102.718H332.282C332.864 102.718 333.314 102.889 333.632 103.231C333.95 103.573 334.109 104.032 334.109 104.608C334.109 105.184 333.95 105.643 333.632 105.985C333.314 106.327 332.864 106.498 332.282 106.498H330.599V109H329.582ZM330.599 105.607H332.219C332.477 105.607 332.678 105.541 332.822 105.409C332.966 105.271 333.038 105.076 333.038 104.824V104.392C333.038 104.14 332.966 103.948 332.822 103.816C332.678 103.678 332.477 103.609 332.219 103.609H330.599V105.607ZM336.242 109H335.225V102.718H337.934C338.498 102.718 338.942 102.889 339.266 103.231C339.59 103.567 339.752 104.026 339.752 104.608C339.752 105.058 339.647 105.433 339.437 105.733C339.233 106.027 338.93 106.234 338.528 106.354L339.887 109H338.753L337.493 106.462H336.242V109ZM337.862 105.607C338.12 105.607 338.321 105.541 338.465 105.409C338.609 105.271 338.681 105.076 338.681 104.824V104.392C338.681 104.14 338.609 103.948 338.465 103.816C338.321 103.678 338.12 103.609 337.862 103.609H336.242V105.607H337.862ZM343.464 109.108C343.056 109.108 342.684 109.039 342.348 108.901C342.018 108.757 341.733 108.55 341.493 108.28C341.259 108.004 341.076 107.665 340.944 107.263C340.818 106.855 340.755 106.387 340.755 105.859C340.755 105.331 340.818 104.866 340.944 104.464C341.076 104.056 341.259 103.717 341.493 103.447C341.733 103.171 342.018 102.964 342.348 102.826C342.684 102.682 343.056 102.61 343.464 102.61C343.872 102.61 344.241 102.682 344.571 102.826C344.907 102.964 345.192 103.171 345.426 103.447C345.666 103.717 345.849 104.056 345.975 104.464C346.107 104.866 346.173 105.331 346.173 105.859C346.173 106.387 346.107 106.855 345.975 107.263C345.849 107.665 345.666 108.004 345.426 108.28C345.192 108.55 344.907 108.757 344.571 108.901C344.241 109.039 343.872 109.108 343.464 109.108ZM343.464 108.199C343.704 108.199 343.923 108.157 344.121 108.073C344.325 107.989 344.496 107.869 344.634 107.713C344.778 107.551 344.889 107.356 344.967 107.128C345.045 106.9 345.084 106.642 345.084 106.354V105.364C345.084 105.076 345.045 104.818 344.967 104.59C344.889 104.362 344.778 104.17 344.634 104.014C344.496 103.852 344.325 103.729 344.121 103.645C343.923 103.561 343.704 103.519 343.464 103.519C343.218 103.519 342.996 103.561 342.798 103.645C342.6 103.729 342.429 103.852 342.285 104.014C342.147 104.17 342.039 104.362 341.961 104.59C341.883 104.818 341.844 105.076 341.844 105.364V106.354C341.844 106.642 341.883 106.9 341.961 107.128C342.039 107.356 342.147 107.551 342.285 107.713C342.429 107.869 342.6 107.989 342.798 108.073C342.996 108.157 343.218 108.199 343.464 108.199ZM351.482 108.046H351.446C351.38 108.352 351.2 108.607 350.906 108.811C350.618 109.009 350.234 109.108 349.754 109.108C349.382 109.108 349.037 109.039 348.719 108.901C348.401 108.757 348.125 108.55 347.891 108.28C347.663 108.004 347.483 107.665 347.351 107.263C347.225 106.855 347.162 106.387 347.162 105.859C347.162 105.337 347.228 104.875 347.36 104.473C347.492 104.065 347.678 103.723 347.918 103.447C348.158 103.171 348.446 102.964 348.782 102.826C349.118 102.682 349.493 102.61 349.907 102.61C350.471 102.61 350.948 102.736 351.338 102.988C351.728 103.234 352.031 103.579 352.247 104.023L351.419 104.509C351.299 104.215 351.113 103.978 350.861 103.798C350.609 103.612 350.291 103.519 349.907 103.519C349.409 103.519 349.007 103.678 348.701 103.996C348.401 104.314 348.251 104.764 348.251 105.346V106.372C348.251 106.954 348.401 107.404 348.701 107.722C349.007 108.04 349.409 108.199 349.907 108.199C350.105 108.199 350.294 108.175 350.474 108.127C350.654 108.073 350.81 107.998 350.942 107.902C351.08 107.8 351.188 107.677 351.266 107.533C351.35 107.383 351.392 107.209 351.392 107.011V106.525H350.096V105.652H352.373V109H351.482V108.046ZM354.804 109H353.787V102.718H356.496C357.06 102.718 357.504 102.889 357.828 103.231C358.152 103.567 358.314 104.026 358.314 104.608C358.314 105.058 358.209 105.433 357.999 105.733C357.795 106.027 357.492 106.234 357.09 106.354L358.449 109H357.315L356.055 106.462H354.804V109ZM356.424 105.607C356.682 105.607 356.883 105.541 357.027 105.409C357.171 105.271 357.243 105.076 357.243 104.824V104.392C357.243 104.14 357.171 103.948 357.027 103.816C356.883 103.678 356.682 103.609 356.424 103.609H354.804V105.607H356.424ZM359.684 109V102.718H363.707V103.618H360.701V105.364H363.428V106.264H360.701V108.1H363.707V109H359.684ZM366.9 109.108C366.372 109.108 365.922 109.012 365.55 108.82C365.184 108.628 364.869 108.37 364.605 108.046L365.307 107.389C365.529 107.659 365.772 107.863 366.036 108.001C366.306 108.139 366.612 108.208 366.954 108.208C367.356 108.208 367.659 108.118 367.863 107.938C368.067 107.758 368.169 107.515 368.169 107.209C368.169 106.963 368.097 106.768 367.953 106.624C367.809 106.48 367.554 106.372 367.188 106.3L366.63 106.201C366.018 106.087 365.559 105.886 365.253 105.598C364.947 105.31 364.794 104.914 364.794 104.41C364.794 104.134 364.845 103.885 364.947 103.663C365.055 103.435 365.202 103.246 365.388 103.096C365.58 102.94 365.811 102.82 366.081 102.736C366.351 102.652 366.654 102.61 366.99 102.61C367.464 102.61 367.875 102.694 368.223 102.862C368.571 103.024 368.868 103.261 369.114 103.573L368.403 104.203C368.241 103.993 368.043 103.825 367.809 103.699C367.575 103.573 367.284 103.51 366.936 103.51C366.576 103.51 366.297 103.582 366.099 103.726C365.901 103.87 365.802 104.08 365.802 104.356C365.802 104.62 365.883 104.818 366.045 104.95C366.207 105.076 366.459 105.172 366.801 105.238L367.359 105.355C367.989 105.475 368.448 105.679 368.736 105.967C369.03 106.255 369.177 106.651 369.177 107.155C369.177 107.449 369.126 107.716 369.024 107.956C368.922 108.196 368.772 108.403 368.574 108.577C368.382 108.745 368.145 108.877 367.863 108.973C367.581 109.063 367.26 109.108 366.9 109.108ZM372.174 109.108C371.646 109.108 371.196 109.012 370.824 108.82C370.458 108.628 370.143 108.37 369.879 108.046L370.581 107.389C370.803 107.659 371.046 107.863 371.31 108.001C371.58 108.139 371.886 108.208 372.228 108.208C372.63 108.208 372.933 108.118 373.137 107.938C373.341 107.758 373.443 107.515 373.443 107.209C373.443 106.963 373.371 106.768 373.227 106.624C373.083 106.48 372.828 106.372 372.462 106.3L371.904 106.201C371.292 106.087 370.833 105.886 370.527 105.598C370.221 105.31 370.068 104.914 370.068 104.41C370.068 104.134 370.119 103.885 370.221 103.663C370.329 103.435 370.476 103.246 370.662 103.096C370.854 102.94 371.085 102.82 371.355 102.736C371.625 102.652 371.928 102.61 372.264 102.61C372.738 102.61 373.149 102.694 373.497 102.862C373.845 103.024 374.142 103.261 374.388 103.573L373.677 104.203C373.515 103.993 373.317 103.825 373.083 103.699C372.849 103.573 372.558 103.51 372.21 103.51C371.85 103.51 371.571 103.582 371.373 103.726C371.175 103.87 371.076 104.08 371.076 104.356C371.076 104.62 371.157 104.818 371.319 104.95C371.481 105.076 371.733 105.172 372.075 105.238L372.633 105.355C373.263 105.475 373.722 105.679 374.01 105.967C374.304 106.255 374.451 106.651 374.451 107.155C374.451 107.449 374.4 107.716 374.298 107.956C374.196 108.196 374.046 108.403 373.848 108.577C373.656 108.745 373.419 108.877 373.137 108.973C372.855 109.063 372.534 109.108 372.174 109.108Z" fill="#999999"/>
<path d="M288.283 37V35.911H289.093V31.807H288.283V30.718H291.271V31.807H290.461V35.911H291.271V37H288.283ZM294.328 34.03L293.725 32.77H293.698V37H292.411V30.718H293.905L295.624 33.688L296.227 34.948H296.254V30.718H297.541V37H296.047L294.328 34.03ZM304.813 34.426H302.419V37H301.051V30.718H302.419V33.22H304.813V30.718H306.181V37H304.813V34.426ZM307.563 37V30.718H311.838V31.933H308.931V33.22H311.424V34.426H308.931V35.785H311.838V37H307.563ZM316.9 37L316.45 35.506H314.353L313.903 37H312.517L314.587 30.718H316.279L318.322 37H316.9ZM315.415 31.96H315.37L314.677 34.345H316.117L315.415 31.96ZM319.191 37V30.718H320.559V35.785H322.953V37H319.191ZM323.721 37V35.911H324.531V31.807H323.721V30.718H326.709V31.807H325.899V35.911H326.709V37H323.721ZM329.766 34.03L329.163 32.77H329.136V37H327.849V30.718H329.343L331.062 33.688L331.665 34.948H331.692V30.718H332.979V37H331.485L329.766 34.03ZM338.348 36.001H338.303C338.255 36.319 338.093 36.583 337.817 36.793C337.541 37.003 337.166 37.108 336.692 37.108C336.332 37.108 335.996 37.039 335.684 36.901C335.372 36.763 335.099 36.559 334.865 36.289C334.631 36.019 334.448 35.683 334.316 35.281C334.184 34.879 334.118 34.414 334.118 33.886C334.118 33.358 334.187 32.89 334.325 32.482C334.463 32.074 334.655 31.732 334.901 31.456C335.153 31.18 335.453 30.97 335.801 30.826C336.149 30.682 336.536 30.61 336.962 30.61C337.526 30.61 338.012 30.733 338.42 30.979C338.828 31.219 339.149 31.582 339.383 32.068L338.267 32.707C338.171 32.461 338.021 32.254 337.817 32.086C337.613 31.912 337.328 31.825 336.962 31.825C336.536 31.825 336.197 31.948 335.945 32.194C335.693 32.44 335.567 32.827 335.567 33.355V34.363C335.567 34.885 335.693 35.272 335.945 35.524C336.197 35.77 336.536 35.893 336.962 35.893C337.13 35.893 337.289 35.875 337.439 35.839C337.589 35.797 337.721 35.737 337.835 35.659C337.949 35.575 338.036 35.476 338.096 35.362C338.162 35.248 338.195 35.113 338.195 34.957V34.642H337.025V33.499H339.5V37H338.348V36.001Z" fill="#62A294"/>
<path d="M292.531 140L291.964 138.299H289.615L289.066 140H288.031L290.173 133.718H291.451L293.593 140H292.531ZM290.812 134.654H290.767L289.858 137.426H291.712L290.812 134.654ZM298.414 139.046H298.378C298.312 139.352 298.132 139.607 297.838 139.811C297.55 140.009 297.166 140.108 296.686 140.108C296.314 140.108 295.969 140.039 295.651 139.901C295.333 139.757 295.057 139.55 294.823 139.28C294.595 139.004 294.415 138.665 294.283 138.263C294.157 137.855 294.094 137.387 294.094 136.859C294.094 136.337 294.16 135.875 294.292 135.473C294.424 135.065 294.61 134.723 294.85 134.447C295.09 134.171 295.378 133.964 295.714 133.826C296.05 133.682 296.425 133.61 296.839 133.61C297.403 133.61 297.88 133.736 298.27 133.988C298.66 134.234 298.963 134.579 299.179 135.023L298.351 135.509C298.231 135.215 298.045 134.978 297.793 134.798C297.541 134.612 297.223 134.519 296.839 134.519C296.341 134.519 295.939 134.678 295.633 134.996C295.333 135.314 295.183 135.764 295.183 136.346V137.372C295.183 137.954 295.333 138.404 295.633 138.722C295.939 139.04 296.341 139.199 296.839 139.199C297.037 139.199 297.226 139.175 297.406 139.127C297.586 139.073 297.742 138.998 297.874 138.902C298.012 138.8 298.12 138.677 298.198 138.533C298.282 138.383 298.324 138.209 298.324 138.011V137.525H297.028V136.652H299.305V140H298.414V139.046ZM300.719 140V133.718H304.742V134.618H301.736V136.364H304.463V137.264H301.736V139.1H304.742V140H300.719Z" fill="#999999"/>
<path d="M291.064 154V152.776H288.148V151.903L290.695 147.718H292.027V151.975H292.882V152.776H292.027V154H291.064ZM289.012 151.975H291.064V148.645H291.001L289.012 151.975ZM297.616 154V151.525L295.456 147.718H296.617L298.147 150.517H298.174L299.695 147.718H300.811L298.633 151.507V154H297.616ZM301.636 154.108C301.414 154.108 301.249 154.051 301.141 153.937C301.033 153.817 300.979 153.67 300.979 153.496V153.361C300.979 153.187 301.033 153.043 301.141 152.929C301.249 152.809 301.414 152.749 301.636 152.749C301.858 152.749 302.023 152.809 302.131 152.929C302.239 153.043 302.293 153.187 302.293 153.361V153.496C302.293 153.67 302.239 153.817 302.131 153.937C302.023 154.051 301.858 154.108 301.636 154.108ZM305.838 154.108C305.43 154.108 305.058 154.039 304.722 153.901C304.392 153.757 304.107 153.55 303.867 153.28C303.633 153.004 303.45 152.665 303.318 152.263C303.192 151.855 303.129 151.387 303.129 150.859C303.129 150.331 303.192 149.866 303.318 149.464C303.45 149.056 303.633 148.717 303.867 148.447C304.107 148.171 304.392 147.964 304.722 147.826C305.058 147.682 305.43 147.61 305.838 147.61C306.246 147.61 306.615 147.682 306.945 147.826C307.281 147.964 307.566 148.171 307.8 148.447C308.04 148.717 308.223 149.056 308.349 149.464C308.481 149.866 308.547 150.331 308.547 150.859C308.547 151.387 308.481 151.855 308.349 152.263C308.223 152.665 308.04 153.004 307.8 153.28C307.566 153.55 307.281 153.757 306.945 153.901C306.615 154.039 306.246 154.108 305.838 154.108ZM305.838 153.199C306.078 153.199 306.297 153.157 306.495 153.073C306.699 152.989 306.87 152.869 307.008 152.713C307.152 152.551 307.263 152.356 307.341 152.128C307.419 151.9 307.458 151.642 307.458 151.354V150.364C307.458 150.076 307.419 149.818 307.341 149.59C307.263 149.362 307.152 149.17 307.008 149.014C306.87 148.852 306.699 148.729 306.495 148.645C306.297 148.561 306.078 148.519 305.838 148.519C305.592 148.519 305.37 148.561 305.172 148.645C304.974 148.729 304.803 148.852 304.659 149.014C304.521 149.17 304.413 149.362 304.335 149.59C304.257 149.818 304.218 150.076 304.218 150.364V151.354C304.218 151.642 304.257 151.9 304.335 152.128C304.413 152.356 304.521 152.551 304.659 152.713C304.803 152.869 304.974 152.989 305.172 153.073C305.37 153.157 305.592 153.199 305.838 153.199ZM310.039 154.108C309.817 154.108 309.652 154.051 309.544 153.937C309.436 153.817 309.382 153.67 309.382 153.496V153.361C309.382 153.187 309.436 153.043 309.544 152.929C309.652 152.809 309.817 152.749 310.039 152.749C310.261 152.749 310.426 152.809 310.534 152.929C310.642 153.043 310.696 153.187 310.696 153.361V153.496C310.696 153.67 310.642 153.817 310.534 153.937C310.426 154.051 310.261 154.108 310.039 154.108Z" fill="#62A294"/>
<path d="M350.965 140.108C350.143 140.108 349.498 139.832 349.03 139.28C348.562 138.722 348.328 137.915 348.328 136.859C348.328 136.331 348.388 135.866 348.508 135.464C348.628 135.062 348.802 134.723 349.03 134.447C349.258 134.171 349.534 133.964 349.858 133.826C350.188 133.682 350.557 133.61 350.965 133.61C351.511 133.61 351.967 133.73 352.333 133.97C352.705 134.21 352.996 134.564 353.206 135.032L352.351 135.5C352.243 135.2 352.075 134.963 351.847 134.789C351.625 134.609 351.331 134.519 350.965 134.519C350.479 134.519 350.098 134.684 349.822 135.014C349.546 135.344 349.408 135.8 349.408 136.382V137.336C349.408 137.918 349.546 138.374 349.822 138.704C350.098 139.034 350.479 139.199 350.965 139.199C351.343 139.199 351.649 139.103 351.883 138.911C352.123 138.713 352.3 138.461 352.414 138.155L353.233 138.65C353.023 139.106 352.729 139.463 352.351 139.721C351.973 139.979 351.511 140.108 350.965 140.108ZM356.627 140.108C356.219 140.108 355.847 140.039 355.511 139.901C355.181 139.757 354.896 139.55 354.656 139.28C354.422 139.004 354.239 138.665 354.107 138.263C353.981 137.855 353.918 137.387 353.918 136.859C353.918 136.331 353.981 135.866 354.107 135.464C354.239 135.056 354.422 134.717 354.656 134.447C354.896 134.171 355.181 133.964 355.511 133.826C355.847 133.682 356.219 133.61 356.627 133.61C357.035 133.61 357.404 133.682 357.734 133.826C358.07 133.964 358.355 134.171 358.589 134.447C358.829 134.717 359.012 135.056 359.138 135.464C359.27 135.866 359.336 136.331 359.336 136.859C359.336 137.387 359.27 137.855 359.138 138.263C359.012 138.665 358.829 139.004 358.589 139.28C358.355 139.55 358.07 139.757 357.734 139.901C357.404 140.039 357.035 140.108 356.627 140.108ZM356.627 139.199C356.867 139.199 357.086 139.157 357.284 139.073C357.488 138.989 357.659 138.869 357.797 138.713C357.941 138.551 358.052 138.356 358.13 138.128C358.208 137.9 358.247 137.642 358.247 137.354V136.364C358.247 136.076 358.208 135.818 358.13 135.59C358.052 135.362 357.941 135.17 357.797 135.014C357.659 134.852 357.488 134.729 357.284 134.645C357.086 134.561 356.867 134.519 356.627 134.519C356.381 134.519 356.159 134.561 355.961 134.645C355.763 134.729 355.592 134.852 355.448 135.014C355.31 135.17 355.202 135.362 355.124 135.59C355.046 135.818 355.007 136.076 355.007 136.364V137.354C355.007 137.642 355.046 137.9 355.124 138.128C355.202 138.356 355.31 138.551 355.448 138.713C355.592 138.869 355.763 138.989 355.961 139.073C356.159 139.157 356.381 139.199 356.627 139.199ZM361.621 140H360.604V133.718H363.313C363.877 133.718 364.321 133.889 364.645 134.231C364.969 134.567 365.131 135.026 365.131 135.608C365.131 136.058 365.026 136.433 364.816 136.733C364.612 137.027 364.309 137.234 363.907 137.354L365.266 140H364.132L362.872 137.462H361.621V140ZM363.241 136.607C363.499 136.607 363.7 136.541 363.844 136.409C363.988 136.271 364.06 136.076 364.06 135.824V135.392C364.06 135.14 363.988 134.948 363.844 134.816C363.7 134.678 363.499 134.609 363.241 134.609H361.621V136.607H363.241ZM366.502 140V133.718H370.525V134.618H367.519V136.364H370.246V137.264H367.519V139.1H370.525V140H366.502ZM373.964 140V133.718H377.987V134.618H374.981V136.364H377.708V137.264H374.981V139.1H377.987V140H373.964ZM384.105 135.194H384.06L383.565 136.211L382.188 138.722L380.811 136.211L380.316 135.194H380.271V140H379.299V133.718H380.505L382.188 136.913H382.242L383.925 133.718H385.077V140H384.105V135.194ZM389.059 140.108C388.651 140.108 388.279 140.039 387.943 139.901C387.613 139.757 387.328 139.55 387.088 139.28C386.854 139.004 386.671 138.665 386.539 138.263C386.413 137.855 386.35 137.387 386.35 136.859C386.35 136.331 386.413 135.866 386.539 135.464C386.671 135.056 386.854 134.717 387.088 134.447C387.328 134.171 387.613 133.964 387.943 133.826C388.279 133.682 388.651 133.61 389.059 133.61C389.467 133.61 389.836 133.682 390.166 133.826C390.502 133.964 390.787 134.171 391.021 134.447C391.261 134.717 391.444 135.056 391.57 135.464C391.702 135.866 391.768 136.331 391.768 136.859C391.768 137.387 391.702 137.855 391.57 138.263C391.444 138.665 391.261 139.004 391.021 139.28C390.787 139.55 390.502 139.757 390.166 139.901C389.836 140.039 389.467 140.108 389.059 140.108ZM389.059 139.199C389.299 139.199 389.518 139.157 389.716 139.073C389.92 138.989 390.091 138.869 390.229 138.713C390.373 138.551 390.484 138.356 390.562 138.128C390.64 137.9 390.679 137.642 390.679 137.354V136.364C390.679 136.076 390.64 135.818 390.562 135.59C390.484 135.362 390.373 135.17 390.229 135.014C390.091 134.852 389.92 134.729 389.716 134.645C389.518 134.561 389.299 134.519 389.059 134.519C388.813 134.519 388.591 134.561 388.393 134.645C388.195 134.729 388.024 134.852 387.88 135.014C387.742 135.17 387.634 135.362 387.556 135.59C387.478 135.818 387.439 136.076 387.439 136.364V137.354C387.439 137.642 387.478 137.9 387.556 138.128C387.634 138.356 387.742 138.551 387.88 138.713C388.024 138.869 388.195 138.989 388.393 139.073C388.591 139.157 388.813 139.199 389.059 139.199ZM395.165 134.618V140H394.148V134.618H392.276V133.718H397.037V134.618H395.165ZM397.706 140V139.172H398.561V134.546H397.706V133.718H400.442V134.546H399.578V139.172H400.442V140H397.706ZM404.15 140.108C403.742 140.108 403.37 140.039 403.034 139.901C402.704 139.757 402.419 139.55 402.179 139.28C401.945 139.004 401.762 138.665 401.63 138.263C401.504 137.855 401.441 137.387 401.441 136.859C401.441 136.331 401.504 135.866 401.63 135.464C401.762 135.056 401.945 134.717 402.179 134.447C402.419 134.171 402.704 133.964 403.034 133.826C403.37 133.682 403.742 133.61 404.15 133.61C404.558 133.61 404.927 133.682 405.257 133.826C405.593 133.964 405.878 134.171 406.112 134.447C406.352 134.717 406.535 135.056 406.661 135.464C406.793 135.866 406.859 136.331 406.859 136.859C406.859 137.387 406.793 137.855 406.661 138.263C406.535 138.665 406.352 139.004 406.112 139.28C405.878 139.55 405.593 139.757 405.257 139.901C404.927 140.039 404.558 140.108 404.15 140.108ZM404.15 139.199C404.39 139.199 404.609 139.157 404.807 139.073C405.011 138.989 405.182 138.869 405.32 138.713C405.464 138.551 405.575 138.356 405.653 138.128C405.731 137.9 405.77 137.642 405.77 137.354V136.364C405.77 136.076 405.731 135.818 405.653 135.59C405.575 135.362 405.464 135.17 405.32 135.014C405.182 134.852 405.011 134.729 404.807 134.645C404.609 134.561 404.39 134.519 404.15 134.519C403.904 134.519 403.682 134.561 403.484 134.645C403.286 134.729 403.115 134.852 402.971 135.014C402.833 135.17 402.725 135.362 402.647 135.59C402.569 135.818 402.53 136.076 402.53 136.364V137.354C402.53 137.642 402.569 137.9 402.647 138.128C402.725 138.356 402.833 138.551 402.971 138.713C403.115 138.869 403.286 138.989 403.484 139.073C403.682 139.157 403.904 139.199 404.15 139.199ZM409.819 136.526L409.126 135.194H409.099V140H408.127V133.718H409.261L411.313 137.192L412.006 138.524H412.033V133.718H413.005V140H411.871L409.819 136.526Z" fill="#999999"/>
<path d="M348.607 154V147.718H352.531V148.618H349.624V150.364H352.207V151.264H349.624V154H348.607ZM353.74 154V147.718H357.763V148.618H354.757V150.364H357.484V151.264H354.757V153.1H357.763V154H353.74ZM362.999 154L362.432 152.299H360.083L359.534 154H358.499L360.641 147.718H361.919L364.061 154H362.999ZM361.28 148.654H361.235L360.326 151.426H362.18L361.28 148.654ZM366.051 154H365.034V147.718H367.743C368.307 147.718 368.751 147.889 369.075 148.231C369.399 148.567 369.561 149.026 369.561 149.608C369.561 150.058 369.456 150.433 369.246 150.733C369.042 151.027 368.739 151.234 368.337 151.354L369.696 154H368.562L367.302 151.462H366.051V154ZM367.671 150.607C367.929 150.607 368.13 150.541 368.274 150.409C368.418 150.271 368.49 150.076 368.49 149.824V149.392C368.49 149.14 368.418 148.948 368.274 148.816C368.13 148.678 367.929 148.609 367.671 148.609H366.051V150.607H367.671Z" fill="#62A294"/>
<path d="M293 278.5H375.833C378.319 278.5 380.333 280.515 380.333 283V301C380.333 303.485 378.319 305.5 375.833 305.5H293C290.518 305.5 288.5 303.466 288.5 300.977V300.973V300.959V300.945V300.94V300.919V300.915V300.915V300.899V300.885V300.879V300.858V300.854V300.852V300.838V300.823V300.817V300.796V300.792V300.791V300.775V300.759V300.754V300.732V300.73V300.726V300.711V300.693V300.689V300.67V300.668V300.659V300.646V300.624V300.611V300.602V300.589V300.58V300.558V300.553V300.552V300.535V300.516V300.513V300.494V300.49V300.479V300.467V300.445V300.441V300.437V300.422V300.403V300.399V300.38V300.376V300.364V300.353V300.33V300.325V300.324V300.307V300.285V300.283V300.269V300.26V300.244V300.237V300.215V300.213V300.202V300.19V300.166V300.161V300.16V300.142V300.119V300.118V300.108V300.095V300.074V300.071V300.055V300.047V300.03V300.023V300.004V299.999V299.986V299.976V299.953V299.952V299.94V299.928V299.904V299.902V299.895V299.88V299.856V299.852V299.848V299.832V299.808V299.803V299.801V299.783V299.759V299.755V299.753V299.735V299.711V299.707V299.705V299.687V299.663V299.66V299.655V299.639V299.615V299.614V299.606V299.591V299.568V299.567V299.555V299.543V299.523V299.519V299.504V299.495V299.478V299.472V299.452V299.448V299.434V299.424V299.4V299.399V299.391V299.377V299.353V299.349V299.346V299.329V299.307V299.306V299.292V299.282V299.265V299.259V299.238V299.235V299.225V299.212V299.189V299.185V299.183V299.166V299.145V299.143V299.127V299.12V299.106V299.097V299.074V299.07V299.068V299.051V299.03V299.029V299.013V299.006V298.993V298.983V298.961V298.957V298.954V298.939V298.921V298.917V298.896V298.895V298.886V298.873V298.851V298.851V298.836V298.829V298.817V298.807V298.786V298.784V298.776V298.765V298.751V298.743V298.722V298.719V298.715V298.701V298.687V298.681V298.66V298.656V298.654V298.639V298.626V298.619V298.599V298.596V298.591V298.579V298.566V298.559V298.539V298.537V298.528V298.519V298.509V298.5V298.482V298.481V298.464V298.462V298.454V298.443V298.428V298.424V298.405V298.402V298.4V298.387V298.376V298.369V298.351V298.351V298.335V298.333V298.327V298.315V298.303V298.298V298.281V298.28V298.269V298.264V298.257V298.247V298.235V298.23V298.214V298.213V298.202V298.198V298.192V298.182V298.171V298.166V298.151V298.151V298.135V298.135V298.131V298.12V298.112V298.106V298.093V298.091V298.077V298.075V298.066V298.063V298.058V298.049V298.041V298.035V298.024V298.022V298.009V298.008V297.997V297.996V297.992V297.983V297.977V297.971V297.962V297.959V297.948V297.947V297.936V297.934V297.928V297.925V297.921V297.914V297.908V297.903V297.896V297.893V297.884V297.883V297.873V297.873V297.863V297.862V297.857V297.854V297.852V297.845V297.842V297.837V297.832V297.829V297.823V297.821V297.814V297.813V297.806V297.806V297.799V297.798V297.792V297.791V297.786V297.786V297.784V297.78V297.778V297.774V297.771V297.768V297.766V297.763V297.761V297.759V297.756V297.754V297.752V297.75V297.748V297.747V297.744V297.743V297.741V297.74V297.738V297.738V297.736V297.736V297.734V297.734V297.732V297.732V297.731V297.73V297.73V297.714V297.641V297.568V297.494V297.419V297.343V297.266V297.189V297.111V297.032V296.952V296.872V296.79V296.708V296.625V296.542V296.457V296.372V296.286C288.5 296.166 288.458 296.079 288.443 296.049C288.423 296.009 288.401 295.978 288.387 295.959C288.359 295.92 288.327 295.885 288.302 295.86C288.25 295.806 288.182 295.743 288.109 295.679C287.959 295.547 287.751 295.374 287.508 295.177C287.269 294.983 286.982 294.753 286.676 294.508C286.371 294.263 286.046 294.004 285.731 293.749C285.086 293.226 284.45 292.699 283.977 292.27C283.739 292.055 283.552 291.873 283.429 291.734C283.427 291.732 283.426 291.73 283.424 291.729C283.544 291.611 283.722 291.46 283.949 291.282C284.42 290.913 285.055 290.465 285.701 290.018C285.919 289.868 286.139 289.717 286.353 289.57C286.767 289.285 287.161 289.015 287.482 288.787C287.726 288.614 287.938 288.458 288.093 288.333C288.168 288.272 288.242 288.209 288.3 288.149C288.329 288.12 288.365 288.079 288.398 288.031L288.399 288.03C288.419 288 288.5 287.882 288.5 287.714V287.628V287.543V287.458V287.375V287.292V287.21V287.128V287.048V286.968V286.889V286.811V286.734V286.657V286.581V286.506V286.432V286.359V286.286V286.27V286.27V286.269V286.269V286.268V286.268V286.266V286.266V286.264V286.264V286.262V286.262V286.26V286.259V286.257V286.256V286.253V286.252V286.25V286.248V286.246V286.244V286.241V286.239V286.237V286.234V286.232V286.229V286.226V286.222V286.22V286.216V286.214V286.214V286.209V286.208V286.202V286.201V286.194V286.194V286.187V286.186V286.179V286.177V286.171V286.168V286.163V286.158V286.155V286.148V286.146V286.143V286.138V286.137V286.127V286.127V286.117V286.116V286.107V286.104V286.097V286.092V286.086V286.079V286.075V286.072V286.066V286.064V286.053V286.052V286.041V286.038V286.029V286.023V286.017V286.008V286.004V286.003V285.992V285.991V285.978V285.976V285.965V285.959V285.951V285.942V285.937V285.934V285.925V285.923V285.909V285.907V285.894V285.888V285.88V285.869V285.865V285.865V285.849V285.849V285.834V285.829V285.818V285.808V285.802V285.798V285.787V285.786V285.77V285.765V285.753V285.743V285.736V285.731V285.72V285.719V285.702V285.697V285.685V285.673V285.667V285.665V285.649V285.649V285.631V285.624V285.613V285.6V285.598V285.595V285.576V285.572V285.557V285.546V285.538V285.536V285.519V285.518V285.5V285.491V285.481V285.472V285.463V285.461V285.441V285.434V285.421V285.409V285.404V285.401V285.381V285.374V285.361V285.346V285.344V285.34V285.319V285.313V285.299V285.285V285.281V285.278V285.257V285.249V285.235V285.224V285.216V285.214V285.193V285.183V285.171V285.164V285.149V285.149V285.127V285.114V285.105V285.104V285.083V285.079V285.061V285.046V285.043V285.039V285.017V285.007V284.994V284.987V284.971V284.97V284.949V284.932V284.93V284.926V284.903V284.894V284.88V284.873V284.857V284.855V284.834V284.817V284.815V284.811V284.788V284.775V284.765V284.762V284.741V284.735V284.718V284.708V284.694V284.693V284.671V284.654V284.651V284.647V284.623V284.609V284.601V284.6V284.576V284.566V284.552V284.548V284.528V284.522V284.505V284.496V284.481V284.477V284.457V284.445V284.433V284.432V284.409V284.394V284.386V284.385V284.361V284.345V284.34V284.337V284.313V284.295V284.293V284.289V284.265V284.247V284.245V284.241V284.217V284.199V284.197V284.192V284.168V284.152V284.148V284.144V284.12V284.105V284.098V284.096V284.072V284.06V284.048V284.047V284.024V284.014V284.001V283.996V283.977V283.97V283.953V283.945V283.929V283.926V283.905V283.892V283.882V283.881V283.858V283.84V283.839V283.834V283.81V283.798V283.787V283.785V283.763V283.756V283.74V283.731V283.717V283.715V283.693V283.676V283.675V283.67V283.647V283.636V283.624V283.62V283.601V283.597V283.578V283.563V283.559V283.555V283.533V283.521V283.51V283.506V283.487V283.484V283.465V283.448V283.447V283.442V283.42V283.411V283.398V283.389V283.376V283.376V283.354V283.341V283.332V283.33V283.311V283.307V283.289V283.274V283.27V283.268V283.246V283.241V283.225V283.209V283.208V283.204V283.183V283.177V283.162V283.148V283.146V283.142V283.121V283.115V283.101V283.085V283.085V283.081V283.06V283.055V283.041V283.027V283.023C288.5 280.534 290.518 278.5 293 278.5ZM283.302 291.57C283.303 291.57 283.305 291.574 283.308 291.581C283.304 291.573 283.302 291.57 283.302 291.57ZM283.301 291.866C283.297 291.872 283.295 291.875 283.295 291.875C283.294 291.875 283.296 291.872 283.301 291.866Z" fill="#FAFAFA" stroke="#F2BE56"/>
<path d="M295.294 295V288.718H297.994C298.576 288.718 299.026 288.889 299.344 289.231C299.662 289.573 299.821 290.032 299.821 290.608C299.821 291.184 299.662 291.643 299.344 291.985C299.026 292.327 298.576 292.498 297.994 292.498H296.311V295H295.294ZM296.311 291.607H297.931C298.189 291.607 298.39 291.541 298.534 291.409C298.678 291.271 298.75 291.076 298.75 290.824V290.392C298.75 290.14 298.678 289.948 298.534 289.816C298.39 289.678 298.189 289.609 297.931 289.609H296.311V291.607ZM301.953 295H300.936V288.718H303.645C304.209 288.718 304.653 288.889 304.977 289.231C305.301 289.567 305.463 290.026 305.463 290.608C305.463 291.058 305.358 291.433 305.148 291.733C304.944 292.027 304.641 292.234 304.239 292.354L305.598 295H304.464L303.204 292.462H301.953V295ZM303.573 291.607C303.831 291.607 304.032 291.541 304.176 291.409C304.32 291.271 304.392 291.076 304.392 290.824V290.392C304.392 290.14 304.32 289.948 304.176 289.816C304.032 289.678 303.831 289.609 303.573 289.609H301.953V291.607H303.573ZM309.176 295.108C308.768 295.108 308.396 295.039 308.06 294.901C307.73 294.757 307.445 294.55 307.205 294.28C306.971 294.004 306.788 293.665 306.656 293.263C306.53 292.855 306.467 292.387 306.467 291.859C306.467 291.331 306.53 290.866 306.656 290.464C306.788 290.056 306.971 289.717 307.205 289.447C307.445 289.171 307.73 288.964 308.06 288.826C308.396 288.682 308.768 288.61 309.176 288.61C309.584 288.61 309.953 288.682 310.283 288.826C310.619 288.964 310.904 289.171 311.138 289.447C311.378 289.717 311.561 290.056 311.687 290.464C311.819 290.866 311.885 291.331 311.885 291.859C311.885 292.387 311.819 292.855 311.687 293.263C311.561 293.665 311.378 294.004 311.138 294.28C310.904 294.55 310.619 294.757 310.283 294.901C309.953 295.039 309.584 295.108 309.176 295.108ZM309.176 294.199C309.416 294.199 309.635 294.157 309.833 294.073C310.037 293.989 310.208 293.869 310.346 293.713C310.49 293.551 310.601 293.356 310.679 293.128C310.757 292.9 310.796 292.642 310.796 292.354V291.364C310.796 291.076 310.757 290.818 310.679 290.59C310.601 290.362 310.49 290.17 310.346 290.014C310.208 289.852 310.037 289.729 309.833 289.645C309.635 289.561 309.416 289.519 309.176 289.519C308.93 289.519 308.708 289.561 308.51 289.645C308.312 289.729 308.141 289.852 307.997 290.014C307.859 290.17 307.751 290.362 307.673 290.59C307.595 290.818 307.556 291.076 307.556 291.364V292.354C307.556 292.642 307.595 292.9 307.673 293.128C307.751 293.356 307.859 293.551 307.997 293.713C308.141 293.869 308.312 293.989 308.51 294.073C308.708 294.157 308.93 294.199 309.176 294.199ZM315.511 295.108C314.689 295.108 314.044 294.832 313.576 294.28C313.108 293.722 312.874 292.915 312.874 291.859C312.874 291.331 312.934 290.866 313.054 290.464C313.174 290.062 313.348 289.723 313.576 289.447C313.804 289.171 314.08 288.964 314.404 288.826C314.734 288.682 315.103 288.61 315.511 288.61C316.057 288.61 316.513 288.73 316.879 288.97C317.251 289.21 317.542 289.564 317.752 290.032L316.897 290.5C316.789 290.2 316.621 289.963 316.393 289.789C316.171 289.609 315.877 289.519 315.511 289.519C315.025 289.519 314.644 289.684 314.368 290.014C314.092 290.344 313.954 290.8 313.954 291.382V292.336C313.954 292.918 314.092 293.374 314.368 293.704C314.644 294.034 315.025 294.199 315.511 294.199C315.889 294.199 316.195 294.103 316.429 293.911C316.669 293.713 316.846 293.461 316.96 293.155L317.779 293.65C317.569 294.106 317.275 294.463 316.897 294.721C316.519 294.979 316.057 295.108 315.511 295.108ZM319.874 295H318.857V288.718H321.566C322.13 288.718 322.574 288.889 322.898 289.231C323.222 289.567 323.384 290.026 323.384 290.608C323.384 291.058 323.279 291.433 323.069 291.733C322.865 292.027 322.562 292.234 322.16 292.354L323.519 295H322.385L321.125 292.462H319.874V295ZM321.494 291.607C321.752 291.607 321.953 291.541 322.097 291.409C322.241 291.271 322.313 291.076 322.313 290.824V290.392C322.313 290.14 322.241 289.948 322.097 289.816C321.953 289.678 321.752 289.609 321.494 289.609H319.874V291.607H321.494ZM328.679 295L328.112 293.299H325.763L325.214 295H324.179L326.321 288.718H327.599L329.741 295H328.679ZM326.96 289.654H326.915L326.006 292.426H327.86L326.96 289.654ZM332.595 295.108C332.067 295.108 331.617 295.012 331.245 294.82C330.879 294.628 330.564 294.37 330.3 294.046L331.002 293.389C331.224 293.659 331.467 293.863 331.731 294.001C332.001 294.139 332.307 294.208 332.649 294.208C333.051 294.208 333.354 294.118 333.558 293.938C333.762 293.758 333.864 293.515 333.864 293.209C333.864 292.963 333.792 292.768 333.648 292.624C333.504 292.48 333.249 292.372 332.883 292.3L332.325 292.201C331.713 292.087 331.254 291.886 330.948 291.598C330.642 291.31 330.489 290.914 330.489 290.41C330.489 290.134 330.54 289.885 330.642 289.663C330.75 289.435 330.897 289.246 331.083 289.096C331.275 288.94 331.506 288.82 331.776 288.736C332.046 288.652 332.349 288.61 332.685 288.61C333.159 288.61 333.57 288.694 333.918 288.862C334.266 289.024 334.563 289.261 334.809 289.573L334.098 290.203C333.936 289.993 333.738 289.825 333.504 289.699C333.27 289.573 332.979 289.51 332.631 289.51C332.271 289.51 331.992 289.582 331.794 289.726C331.596 289.87 331.497 290.08 331.497 290.356C331.497 290.62 331.578 290.818 331.74 290.95C331.902 291.076 332.154 291.172 332.496 291.238L333.054 291.355C333.684 291.475 334.143 291.679 334.431 291.967C334.725 292.255 334.872 292.651 334.872 293.155C334.872 293.449 334.821 293.716 334.719 293.956C334.617 294.196 334.467 294.403 334.269 294.577C334.077 294.745 333.84 294.877 333.558 294.973C333.276 295.063 332.955 295.108 332.595 295.108ZM338.274 289.618V295H337.257V289.618H335.385V288.718H340.146V289.618H338.274ZM340.815 295V294.172H341.67V289.546H340.815V288.718H343.551V289.546H342.687V294.172H343.551V295H340.815ZM346.521 291.526L345.828 290.194H345.801V295H344.829V288.718H345.963L348.015 292.192L348.708 293.524H348.735V288.718H349.707V295H348.573L346.521 291.526ZM355.178 295L354.611 293.299H352.262L351.713 295H350.678L352.82 288.718H354.098L356.24 295H355.178ZM353.459 289.654H353.414L352.505 292.426H354.359L353.459 289.654ZM358.955 289.618V295H357.938V289.618H356.066V288.718H360.827V289.618H358.955ZM364.046 295.108C363.638 295.108 363.266 295.039 362.93 294.901C362.6 294.757 362.315 294.55 362.075 294.28C361.841 294.004 361.658 293.665 361.526 293.263C361.4 292.855 361.337 292.387 361.337 291.859C361.337 291.331 361.4 290.866 361.526 290.464C361.658 290.056 361.841 289.717 362.075 289.447C362.315 289.171 362.6 288.964 362.93 288.826C363.266 288.682 363.638 288.61 364.046 288.61C364.454 288.61 364.823 288.682 365.153 288.826C365.489 288.964 365.774 289.171 366.008 289.447C366.248 289.717 366.431 290.056 366.557 290.464C366.689 290.866 366.755 291.331 366.755 291.859C366.755 292.387 366.689 292.855 366.557 293.263C366.431 293.665 366.248 294.004 366.008 294.28C365.774 294.55 365.489 294.757 365.153 294.901C364.823 295.039 364.454 295.108 364.046 295.108ZM364.046 294.199C364.286 294.199 364.505 294.157 364.703 294.073C364.907 293.989 365.078 293.869 365.216 293.713C365.36 293.551 365.471 293.356 365.549 293.128C365.627 292.9 365.666 292.642 365.666 292.354V291.364C365.666 291.076 365.627 290.818 365.549 290.59C365.471 290.362 365.36 290.17 365.216 290.014C365.078 289.852 364.907 289.729 364.703 289.645C364.505 289.561 364.286 289.519 364.046 289.519C363.8 289.519 363.578 289.561 363.38 289.645C363.182 289.729 363.011 289.852 362.867 290.014C362.729 290.17 362.621 290.362 362.543 290.59C362.465 290.818 362.426 291.076 362.426 291.364V292.354C362.426 292.642 362.465 292.9 362.543 293.128C362.621 293.356 362.729 293.551 362.867 293.713C363.011 293.869 363.182 293.989 363.38 294.073C363.578 294.157 363.8 294.199 364.046 294.199ZM369.04 295H368.023V288.718H370.732C371.296 288.718 371.74 288.889 372.064 289.231C372.388 289.567 372.55 290.026 372.55 290.608C372.55 291.058 372.445 291.433 372.235 291.733C372.031 292.027 371.728 292.234 371.326 292.354L372.685 295H371.551L370.291 292.462H369.04V295ZM370.66 291.607C370.918 291.607 371.119 291.541 371.263 291.409C371.407 291.271 371.479 291.076 371.479 290.824V290.392C371.479 290.14 371.407 289.948 371.263 289.816C371.119 289.678 370.918 289.609 370.66 289.609H369.04V291.607H370.66Z" fill="#666666"/>
<path d="M0.500002 170.833L0.499999 155C0.499999 152.515 2.51472 150.5 5 150.5L83 150.5C85.4853 150.5 87.5 152.515 87.5 155L87.5 170.833C87.5 173.316 85.4657 175.333 82.9775 175.333L82.9735 175.333L82.9594 175.333L82.9446 175.333L82.9396 175.333L82.9195 175.333L82.9151 175.333L82.9146 175.333L82.8993 175.333L82.8851 175.333L82.8789 175.333L82.8584 175.333L82.8545 175.333L82.8523 175.333L82.8378 175.333L82.8233 175.333L82.817 175.333L82.7961 175.333L82.7915 175.333L82.7908 175.333L82.775 175.333L82.7592 175.333L82.7538 175.333L82.7325 175.333L82.73 175.333L82.7263 175.333L82.711 175.333L82.6928 175.333L82.6894 175.333L82.67 175.333L82.6677 175.333L82.6587 175.333L82.6459 175.333L82.624 175.333L82.6106 175.333L82.6019 175.333L82.5887 175.333L82.5798 175.333L82.5575 175.333L82.5528 175.333L82.552 175.333L82.5352 175.333L82.5163 175.333L82.5127 175.333L82.494 175.333L82.4902 175.333L82.4792 175.333L82.4675 175.333L82.4448 175.333L82.4415 175.333L82.4368 175.333L82.4219 175.333L82.4032 175.333L82.399 175.333L82.3802 175.333L82.376 175.333L82.3642 175.333L82.353 175.333L82.3298 175.333L82.3247 175.333L82.3244 175.333L82.3066 175.333L82.2845 175.333L82.2833 175.333L82.2692 175.333L82.2599 175.333L82.2437 175.333L82.2365 175.333L82.2147 175.333L82.213 175.333L82.2023 175.333L82.1895 175.333L82.1659 175.333L82.1609 175.333L82.1603 175.333L82.1423 175.333L82.1186 175.333L82.1176 175.333L82.1078 175.333L82.0948 175.333L82.0743 175.333L82.0711 175.333L82.0554 175.333L82.0472 175.333L82.0303 175.333L82.0234 175.333L82.0037 175.333L81.9995 175.333L81.9857 175.333L81.9756 175.333L81.9526 175.333L81.9516 175.333L81.9405 175.333L81.9277 175.333L81.9037 175.333L81.9022 175.333L81.8946 175.333L81.8797 175.333L81.8556 175.333L81.8524 175.333L81.8481 175.333L81.8316 175.333L81.8075 175.333L81.8034 175.333L81.8009 175.333L81.7835 175.333L81.7594 175.333L81.755 175.333L81.753 175.333L81.7354 175.333L81.7113 175.333L81.7072 175.333L81.7045 175.333L81.6873 175.333L81.6632 175.333L81.6601 175.333L81.6553 175.333L81.6392 175.333L81.6152 175.333L81.6137 175.333L81.6055 175.333L81.5912 175.333L81.5679 175.333L81.5672 175.333L81.555 175.333L81.5433 175.333L81.5228 175.333L81.5194 175.333L81.5038 175.333L81.4955 175.333L81.4783 175.333L81.4716 175.333L81.452 175.333L81.4478 175.333L81.4344 175.333L81.424 175.333L81.4003 175.333L81.3995 175.333L81.3912 175.333L81.3766 175.333L81.3529 175.333L81.3486 175.333L81.3462 175.333L81.3293 175.333L81.3066 175.333L81.3058 175.333L81.2924 175.333L81.2823 175.333L81.2653 175.333L81.2588 175.333L81.2378 175.333L81.2355 175.333L81.2246 175.333L81.2122 175.333L81.1889 175.333L81.1845 175.333L81.1825 175.333L81.1658 175.333L81.1451 175.333L81.1427 175.333L81.1265 175.333L81.1197 175.333L81.1063 175.333L81.0968 175.333L81.0739 175.333L81.0699 175.333L81.068 175.333L81.0512 175.333L81.0304 175.333L81.0285 175.333L81.0125 175.333L81.0059 175.333L80.9934 175.333L80.9835 175.333L80.9611 175.333L80.957 175.333L80.9545 175.333L80.9388 175.333L80.9212 175.333L80.9166 175.333L80.8957 175.333L80.8946 175.333L80.886 175.333L80.8726 175.333L80.8514 175.333L80.8508 175.333L80.8363 175.333L80.8291 175.333L80.8174 175.333L80.8075 175.333L80.786 175.333L80.784 175.333L80.7761 175.333L80.7647 175.333L80.7511 175.333L80.7435 175.333L80.7224 175.333L80.7189 175.333L80.7152 175.333L80.7014 175.333L80.6872 175.333L80.6806 175.333L80.6599 175.333L80.6561 175.333L80.6536 175.333L80.6394 175.333L80.6256 175.333L80.619 175.333L80.5988 175.333L80.5956 175.333L80.5912 175.333L80.5787 175.333L80.5663 175.333L80.5588 175.333L80.539 175.333L80.5375 175.333L80.5282 175.333L80.5194 175.333L80.5092 175.333L80.5 175.333L80.4815 175.333L80.4807 175.333L80.4644 175.333L80.4616 175.333L80.4544 175.333L80.4427 175.333L80.4278 175.333L80.424 175.333L80.4054 175.333L80.4018 175.333L80.3999 175.333L80.387 175.333L80.3763 175.333L80.3689 175.333L80.3513 175.333L80.3508 175.333L80.3347 175.333L80.333 175.333L80.327 175.333L80.3154 175.333L80.3031 175.333L80.298 175.333L80.2808 175.333L80.2798 175.333L80.2687 175.333L80.2638 175.333L80.257 175.333L80.247 175.333L80.2347 175.333L80.2304 175.333L80.214 175.333L80.213 175.333L80.202 175.333L80.1978 175.333L80.1918 175.333L80.1819 175.333L80.1711 175.333L80.1662 175.333L80.1509 175.333L80.1507 175.333L80.1354 175.333L80.1346 175.333L80.1313 175.333L80.1204 175.333L80.1121 175.333L80.1056 175.333L80.0935 175.333L80.091 175.333L80.0767 175.333L80.0754 175.333L80.0664 175.333L80.0626 175.333L80.0577 175.333L80.0488 175.333L80.0406 175.333L80.0352 175.333L80.024 175.333L80.0219 175.333L80.0088 175.333L80.0078 175.333L79.9974 175.333L79.996 175.333L79.9922 175.333L79.9834 175.333L79.977 175.333L79.9712 175.333L79.9623 175.333L79.9591 175.333L79.9481 175.333L79.9474 175.333L79.9359 175.333L79.9344 175.333L79.9277 175.333L79.9247 175.333L79.9212 175.333L79.9138 175.333L79.9084 175.333L79.9031 175.333L79.8961 175.333L79.8928 175.333L79.8843 175.333L79.8827 175.333L79.8729 175.333L79.8635 175.333L79.862 175.333L79.8573 175.333L79.8543 175.333L79.8515 175.333L79.8454 175.333L79.8415 175.333L79.8368 175.333L79.832 175.333L79.8286 175.333L79.8229 175.333L79.8206 175.333L79.8142 175.333L79.813 175.333L79.806 175.333L79.8056 175.333L79.7986 175.333L79.7983 175.333L79.792 175.333L79.7909 175.333L79.7861 175.333L79.7856 175.333L79.784 175.333L79.7795 175.333L79.7775 175.333L79.7738 175.333L79.7715 175.333L79.7685 175.333L79.7659 175.333L79.7634 175.333L79.7607 175.333L79.7588 175.333L79.7559 175.333L79.7544 175.333L79.7515 175.333L79.7504 175.333L79.7476 175.333L79.7467 175.333L79.744 175.333L79.7434 175.333L79.7409 175.333L79.7405 175.333L79.7382 175.333L79.7379 175.333L79.7358 175.333L79.7357 175.333L79.7339 175.333L79.7338 175.333L79.7323 175.333L79.7312 175.333L79.7304 175.333L79.73 175.333L79.7141 175.333L79.6414 175.333L79.5679 175.333L79.4937 175.333L79.4186 175.333L79.3429 175.333L79.2663 175.333L79.1889 175.333L79.1108 175.333L79.0319 175.333L78.9522 175.333L78.8717 175.333L78.7904 175.333L78.7083 175.333L78.6254 175.333L78.5417 175.333L78.4572 175.333L78.3718 175.333L78.2857 175.333C78.1664 175.333 78.0787 175.375 78.0489 175.39C78.0092 175.41 77.9781 175.432 77.959 175.446C77.9201 175.475 77.8855 175.507 77.8596 175.531C77.8056 175.584 77.7434 175.651 77.6786 175.725C77.5469 175.874 77.3741 176.083 77.177 176.325C76.983 176.564 76.7531 176.851 76.5077 177.157C76.2634 177.463 76.0036 177.787 75.7485 178.102C75.2262 178.747 74.6994 179.384 74.2703 179.857C74.0547 180.095 73.8729 180.281 73.734 180.404C73.7322 180.406 73.7304 180.408 73.7286 180.409C73.6109 180.289 73.46 180.112 73.282 179.884C72.9128 179.413 72.465 178.778 72.0184 178.132C71.8677 177.914 71.7168 177.694 71.5696 177.48C71.2854 177.066 71.0152 176.672 70.7872 176.351C70.6144 176.108 70.4583 175.895 70.3333 175.741C70.2721 175.665 70.2089 175.592 70.1489 175.533C70.1197 175.505 70.0792 175.468 70.0309 175.435L70.03 175.434C70.0004 175.414 69.8818 175.333 69.7143 175.333L4.99344 175.333C2.50902 175.333 0.500002 173.319 0.500002 170.833ZM73.5703 180.531C73.5704 180.531 73.5739 180.528 73.5805 180.525C73.5735 180.53 73.5702 180.531 73.5703 180.531ZM73.8657 180.533C73.8719 180.536 73.8752 180.538 73.8753 180.539C73.8754 180.539 73.8723 180.537 73.8657 180.533Z" fill="#FAFAFA" stroke="#D1B43C"/>
<path d="M10.3077 166V159.718H13.0077C13.5897 159.718 14.0397 159.889 14.3577 160.231C14.6757 160.573 14.8347 161.032 14.8347 161.608C14.8347 162.184 14.6757 162.643 14.3577 162.985C14.0397 163.327 13.5897 163.498 13.0077 163.498H11.3247V166H10.3077ZM11.3247 162.607H12.9447C13.2027 162.607 13.4037 162.541 13.5477 162.409C13.6917 162.271 13.7637 162.076 13.7637 161.824V161.392C13.7637 161.14 13.6917 160.948 13.5477 160.816C13.4037 160.678 13.2027 160.609 12.9447 160.609H11.3247V162.607ZM15.9503 166V159.718H19.9733V160.618H16.9673V162.364H19.6943V163.264H16.9673V165.1H19.9733V166H15.9503ZM22.3022 166H21.2852V159.718H23.9942C24.5582 159.718 25.0022 159.889 25.3262 160.231C25.6502 160.567 25.8122 161.026 25.8122 161.608C25.8122 162.058 25.7072 162.433 25.4972 162.733C25.2932 163.027 24.9902 163.234 24.5882 163.354L25.9472 166H24.8132L23.5532 163.462H22.3022V166ZM23.9222 162.607C24.1802 162.607 24.3812 162.541 24.5252 162.409C24.6692 162.271 24.7412 162.076 24.7412 161.824V161.392C24.7412 161.14 24.6692 160.948 24.5252 160.816C24.3812 160.678 24.1802 160.609 23.9222 160.609H22.3022V162.607H23.9222ZM27.1827 166V159.718H31.1067V160.618H28.1997V162.364H30.7827V163.264H28.1997V166H27.1827ZM32.3155 166V159.718H36.3385V160.618H33.3325V162.364H36.0595V163.264H33.3325V165.1H36.3385V166H32.3155ZM40.0085 166.108C39.1865 166.108 38.5415 165.832 38.0735 165.28C37.6055 164.722 37.3715 163.915 37.3715 162.859C37.3715 162.331 37.4315 161.866 37.5515 161.464C37.6715 161.062 37.8455 160.723 38.0735 160.447C38.3015 160.171 38.5775 159.964 38.9015 159.826C39.2315 159.682 39.6005 159.61 40.0085 159.61C40.5545 159.61 41.0105 159.73 41.3765 159.97C41.7485 160.21 42.0395 160.564 42.2495 161.032L41.3945 161.5C41.2865 161.2 41.1185 160.963 40.8905 160.789C40.6685 160.609 40.3745 160.519 40.0085 160.519C39.5225 160.519 39.1415 160.684 38.8655 161.014C38.5895 161.344 38.4515 161.8 38.4515 162.382V163.336C38.4515 163.918 38.5895 164.374 38.8655 164.704C39.1415 165.034 39.5225 165.199 40.0085 165.199C40.3865 165.199 40.6925 165.103 40.9265 164.911C41.1665 164.713 41.3435 164.461 41.4575 164.155L42.2765 164.65C42.0665 165.106 41.7725 165.463 41.3945 165.721C41.0165 165.979 40.5545 166.108 40.0085 166.108ZM45.6856 160.618V166H44.6686V160.618H42.7966V159.718H47.5576V160.618H45.6856ZM48.2262 166V165.172H49.0812V160.546H48.2262V159.718H50.9622V160.546H50.0982V165.172H50.9622V166H48.2262ZM54.6703 166.108C54.2623 166.108 53.8903 166.039 53.5543 165.901C53.2243 165.757 52.9393 165.55 52.6993 165.28C52.4653 165.004 52.2823 164.665 52.1503 164.263C52.0243 163.855 51.9613 163.387 51.9613 162.859C51.9613 162.331 52.0243 161.866 52.1503 161.464C52.2823 161.056 52.4653 160.717 52.6993 160.447C52.9393 160.171 53.2243 159.964 53.5543 159.826C53.8903 159.682 54.2623 159.61 54.6703 159.61C55.0783 159.61 55.4473 159.682 55.7773 159.826C56.1133 159.964 56.3983 160.171 56.6323 160.447C56.8723 160.717 57.0553 161.056 57.1813 161.464C57.3133 161.866 57.3793 162.331 57.3793 162.859C57.3793 163.387 57.3133 163.855 57.1813 164.263C57.0553 164.665 56.8723 165.004 56.6323 165.28C56.3983 165.55 56.1133 165.757 55.7773 165.901C55.4473 166.039 55.0783 166.108 54.6703 166.108ZM54.6703 165.199C54.9103 165.199 55.1293 165.157 55.3273 165.073C55.5313 164.989 55.7023 164.869 55.8403 164.713C55.9843 164.551 56.0953 164.356 56.1733 164.128C56.2513 163.9 56.2903 163.642 56.2903 163.354V162.364C56.2903 162.076 56.2513 161.818 56.1733 161.59C56.0953 161.362 55.9843 161.17 55.8403 161.014C55.7023 160.852 55.5313 160.729 55.3273 160.645C55.1293 160.561 54.9103 160.519 54.6703 160.519C54.4243 160.519 54.2023 160.561 54.0043 160.645C53.8063 160.729 53.6353 160.852 53.4913 161.014C53.3533 161.17 53.2453 161.362 53.1673 161.59C53.0893 161.818 53.0503 162.076 53.0503 162.364V163.354C53.0503 163.642 53.0893 163.9 53.1673 164.128C53.2453 164.356 53.3533 164.551 53.4913 164.713C53.6353 164.869 53.8063 164.989 54.0043 165.073C54.2023 165.157 54.4243 165.199 54.6703 165.199ZM60.3395 162.526L59.6465 161.194H59.6195V166H58.6475V159.718H59.7815L61.8335 163.192L62.5265 164.524H62.5535V159.718H63.5255V166H62.3915L60.3395 162.526ZM64.8023 166V165.172H65.6573V160.546H64.8023V159.718H67.5383V160.546H66.6743V165.172H67.5383V166H64.8023ZM70.6975 166.108C70.1695 166.108 69.7195 166.012 69.3475 165.82C68.9815 165.628 68.6665 165.37 68.4025 165.046L69.1045 164.389C69.3265 164.659 69.5695 164.863 69.8335 165.001C70.1035 165.139 70.4095 165.208 70.7515 165.208C71.1535 165.208 71.4565 165.118 71.6605 164.938C71.8645 164.758 71.9665 164.515 71.9665 164.209C71.9665 163.963 71.8945 163.768 71.7505 163.624C71.6065 163.48 71.3515 163.372 70.9855 163.3L70.4275 163.201C69.8155 163.087 69.3565 162.886 69.0505 162.598C68.7445 162.31 68.5915 161.914 68.5915 161.41C68.5915 161.134 68.6425 160.885 68.7445 160.663C68.8525 160.435 68.9995 160.246 69.1855 160.096C69.3775 159.94 69.6085 159.82 69.8785 159.736C70.1485 159.652 70.4515 159.61 70.7875 159.61C71.2615 159.61 71.6725 159.694 72.0205 159.862C72.3685 160.024 72.6655 160.261 72.9115 160.573L72.2005 161.203C72.0385 160.993 71.8405 160.825 71.6065 160.699C71.3725 160.573 71.0815 160.51 70.7335 160.51C70.3735 160.51 70.0945 160.582 69.8965 160.726C69.6985 160.87 69.5995 161.08 69.5995 161.356C69.5995 161.62 69.6805 161.818 69.8425 161.95C70.0045 162.076 70.2565 162.172 70.5985 162.238L71.1565 162.355C71.7865 162.475 72.2455 162.679 72.5335 162.967C72.8275 163.255 72.9745 163.651 72.9745 164.155C72.9745 164.449 72.9235 164.716 72.8215 164.956C72.7195 165.196 72.5695 165.403 72.3715 165.577C72.1795 165.745 71.9425 165.877 71.6605 165.973C71.3785 166.063 71.0575 166.108 70.6975 166.108ZM76.377 160.618V166H75.36V160.618H73.488V159.718H78.249V160.618H76.377Z" fill="#666666"/>
<defs>
<linearGradient id="paint0_linear_59_60" x1="171.167" y1="128.373" x2="95.1667" y2="196.373" gradientUnits="userSpaceOnUse">
<stop stop-color="#62A294"/>
<stop offset="1" stop-color="#D1B43C"/>
</linearGradient>
<linearGradient id="paint1_linear_59_60" x1="224.333" y1="147.981" x2="228.333" y2="250.981" gradientUnits="userSpaceOnUse">
<stop stop-color="#62A294"/>
<stop offset="1" stop-color="#F2BE56"/>
</linearGradient>
</defs>
</svg>
