<svg width="426" height="438" viewBox="0 0 426 438" fill="none" xmlns="http://www.w3.org/2000/svg">
<g opacity="0.9" filter="url(#filter0_f_59_60)">
<path d="M66.53 109.205L70.5952 118.309C71.3419 119.982 72.8722 121.173 74.6769 121.486L84.5009 123.191C87.292 123.675 88.9467 126.587 87.9343 129.233L84.3709 138.545C83.7163 140.256 83.9563 142.18 85.0109 143.678L90.752 151.83C92.3831 154.146 91.4942 157.375 88.9075 158.53L79.8029 162.595C78.1305 163.342 76.9395 164.872 76.6263 166.677L74.9214 176.501C74.437 179.292 71.5252 180.947 68.8795 179.934L59.5671 176.371C57.8564 175.716 55.9322 175.956 54.4346 177.011L46.2825 182.752C43.9664 184.383 40.7373 183.494 39.5824 180.908L35.5172 171.803C34.7705 170.13 33.2401 168.939 31.4355 168.626L21.6115 166.921C18.8204 166.437 17.1657 163.525 18.1781 160.879L21.7415 151.567C22.396 149.856 22.1561 147.932 21.1015 146.435L15.3604 138.282C13.7293 135.966 14.6182 132.737 17.2049 131.582L26.3094 127.517C27.9819 126.77 29.1729 125.24 29.4861 123.436L31.191 113.611C31.6753 110.82 34.5872 109.166 37.2329 110.178L46.5453 113.741C48.256 114.396 50.1802 114.156 51.6777 113.101L59.8299 107.36C62.146 105.729 65.375 106.618 66.53 109.205Z" fill="#F2BE56" fill-opacity="0.2" stroke="#F2BE56"/>
</g>
<g opacity="0.9" filter="url(#filter1_f_59_60)">
<path d="M334.896 48.6068L337.231 53.8358C337.978 55.5082 339.508 56.6992 341.313 57.0124L346.955 57.9915C349.746 58.4759 351.401 61.3878 350.388 64.0335L348.342 69.3818C347.687 71.0925 347.927 73.0167 348.982 74.5143L352.279 79.1963C353.91 81.5124 353.021 84.7414 350.435 85.8963L345.206 88.2311C343.533 88.9778 342.342 90.5081 342.029 92.3128L341.05 97.955C340.565 100.746 337.654 102.401 335.008 101.388L329.659 99.3418C327.949 98.6872 326.025 98.9272 324.527 99.9818L319.845 103.279C317.529 104.91 314.3 104.021 313.145 101.435L310.81 96.2056C310.063 94.5331 308.533 93.3421 306.729 93.0289L301.086 92.0498C298.295 91.5654 296.641 88.6536 297.653 86.0078L299.7 80.6595C300.354 78.9488 300.114 77.0246 299.06 75.5271L295.762 70.845C294.131 68.5289 295.02 65.2999 297.607 64.145L302.836 61.8102C304.508 61.0635 305.699 59.5332 306.012 57.7285L306.992 52.0863C307.476 49.2953 310.388 47.6406 313.033 48.653L318.382 50.6995C320.092 51.3541 322.017 51.1141 323.514 50.0595L328.196 46.7622C330.512 45.1311 333.741 46.0201 334.896 48.6068Z" fill="#F2BE56" fill-opacity="0.2" stroke="#F2BE56"/>
</g>
<g opacity="0.45" filter="url(#filter2_f_59_60)">
<path d="M214.209 66.6708C211.266 66.5554 208.786 68.8478 208.671 71.791C208.555 74.7343 210.848 77.2138 213.791 77.3293C216.734 77.4447 219.214 75.1523 219.329 72.209C219.445 69.2658 217.152 66.7862 214.209 66.6708ZM211.266 123.679C211.641 124.084 212.273 124.109 212.679 123.734L219.287 117.625C219.693 117.25 219.718 116.617 219.343 116.211C218.968 115.806 218.335 115.781 217.93 116.156L212.055 121.587L206.625 115.713C206.25 115.307 205.617 115.282 205.211 115.657C204.806 116.032 204.781 116.665 205.156 117.07L211.266 123.679ZM213.001 71.9608L211.001 122.961L212.999 123.039L214.999 72.0392L213.001 71.9608Z" fill="url(#paint0_linear_59_60)"/>
</g>
<g opacity="0.45" filter="url(#filter3_f_59_60)">
<path d="M192.174 39.7065C191.46 36.8489 188.564 35.1115 185.706 35.8259C182.849 36.5403 181.112 39.436 181.826 42.2936C182.54 45.1511 185.436 46.8885 188.294 46.1741C191.151 45.4597 192.888 42.5641 192.174 39.7065ZM142.143 51.4855C141.858 51.9591 142.012 52.5734 142.486 52.8575L150.203 57.488C150.677 57.7721 151.291 57.6186 151.575 57.145C151.859 56.6714 151.706 56.0571 151.232 55.773L144.372 51.657L148.488 44.7971C148.772 44.3235 148.619 43.7092 148.145 43.4251C147.671 43.141 147.057 43.2945 146.773 43.7681L142.143 51.4855ZM186.757 40.0299L142.757 51.0299L143.243 52.9702L187.243 41.9702L186.757 40.0299Z" fill="url(#paint1_linear_59_60)"/>
</g>
<g opacity="0.77" filter="url(#filter4_f_59_60)">
<path d="M219.151 7.74047L244.462 21.5187C245.91 22.3067 246.811 23.8229 246.811 25.471V52.529C246.811 54.1771 245.91 55.6933 244.462 56.4813L219.151 70.2595C217.81 70.9897 216.19 70.9897 214.849 70.2595L189.538 56.4813C188.09 55.6933 187.189 54.1771 187.189 52.529V25.471C187.189 23.8229 188.09 22.3067 189.538 21.5187L214.849 7.74047C216.19 7.01027 217.81 7.01027 219.151 7.74047Z" fill="#D1B43C" fill-opacity="0.3" stroke="#D1B43C"/>
</g>
<g filter="url(#filter5_f_59_60)">
<circle cx="115.5" cy="61.5" r="27" fill="#62A294" fill-opacity="0.2" stroke="#62A294"/>
</g>
<g opacity="0.57" filter="url(#filter6_f_59_60)">
<path d="M71.1218 124.49C73.6016 126.08 76.9004 125.358 78.49 122.878C80.0796 120.398 79.358 117.1 76.8782 115.51C74.3984 113.92 71.0996 114.642 69.51 117.122C67.9204 119.602 68.642 122.9 71.1218 124.49ZM99.9769 80.7863C99.8589 80.2468 99.3258 79.9051 98.7863 80.0231L89.9942 81.9464C89.4547 82.0644 89.113 82.5974 89.231 83.137C89.349 83.6765 89.8821 84.0182 90.4216 83.9002L98.2368 82.1906L99.9464 90.0058C100.064 90.5453 100.597 90.887 101.137 90.769C101.676 90.651 102.018 90.1179 101.9 89.5784L99.9769 80.7863ZM74.8419 120.54L99.8419 81.5397L98.1581 80.4603L73.1581 119.46L74.8419 120.54Z" fill="url(#paint2_linear_59_60)"/>
</g>
<path d="M90.8587 269.556C92.8227 271.751 96.1944 271.939 98.3896 269.975C100.585 268.01 100.772 264.639 98.8079 262.444C96.8439 260.249 93.4722 260.061 91.2771 262.025C89.082 263.989 88.8946 267.361 90.8587 269.556ZM171.832 198.055C171.862 197.504 171.44 197.032 170.889 197.001L161.903 196.502C161.351 196.472 160.879 196.894 160.849 197.445C160.818 197.997 161.24 198.469 161.792 198.499L169.779 198.943L169.336 206.931C169.305 207.482 169.727 207.954 170.279 207.985C170.83 208.015 171.302 207.593 171.333 207.042L171.832 198.055ZM95.5001 266.745L171.5 198.745L170.167 197.255L94.1665 265.255L95.5001 266.745Z" fill="url(#paint3_linear_59_60)"/>
<path d="M228.04 326.329C230.984 326.215 233.277 323.736 233.163 320.793C233.048 317.85 230.57 315.556 227.626 315.671C224.683 315.785 222.39 318.264 222.504 321.207C222.618 324.15 225.097 326.443 228.04 326.329ZM224.513 217.266C224.107 216.891 223.474 216.915 223.099 217.321L216.987 223.927C216.612 224.332 216.637 224.965 217.042 225.34C217.447 225.715 218.08 225.691 218.455 225.285L223.888 219.413L229.76 224.846C230.166 225.221 230.798 225.197 231.174 224.791C231.549 224.386 231.524 223.753 231.119 223.378L224.513 217.266ZM228.833 320.961L224.833 217.961L222.834 218.039L226.834 321.039L228.833 320.961Z" fill="url(#paint4_linear_59_60)"/>
<circle cx="211.734" cy="171.77" r="48.2698" fill="#62A294" fill-opacity="0.2" stroke="#62A294"/>
<path d="M210.863 312.859L225.211 320.3C226.837 321.143 228.776 321.122 230.382 320.243L244.562 312.486C247.047 311.126 250.155 312.374 251.011 315.074L255.895 330.481C256.448 332.227 257.835 333.583 259.592 334.098L275.104 338.639C277.822 339.435 279.138 342.515 277.834 345.03L270.393 359.377C269.549 361.003 269.571 362.942 270.45 364.549L278.207 378.728C279.567 381.214 278.319 384.322 275.619 385.178L260.212 390.061C258.466 390.615 257.11 392.001 256.595 393.759L252.054 409.27C251.258 411.989 248.178 413.305 245.663 412L231.316 404.559C229.69 403.716 227.751 403.738 226.144 404.617L211.965 412.373C209.479 413.733 206.371 412.486 205.515 409.785L200.632 394.378C200.078 392.632 198.692 391.276 196.934 390.762L181.423 386.22C178.704 385.424 177.388 382.345 178.693 379.83L186.134 365.482C186.977 363.856 186.955 361.917 186.076 360.311L178.319 346.131C176.96 343.646 178.207 340.538 180.908 339.682L196.315 334.798C198.061 334.245 199.417 332.858 199.931 331.101L204.473 315.589C205.268 312.871 208.348 311.555 210.863 312.859Z" fill="#F2BE56" fill-opacity="0.2" stroke="#F2BE56"/>
<path d="M71.9993 255.754C73.3461 255.016 74.9761 255.016 76.3229 255.754L117.506 278.312C118.948 279.102 119.844 280.615 119.844 282.259V326.927C119.844 328.571 118.948 330.084 117.506 330.874L76.3229 353.432C74.9761 354.169 73.3461 354.169 71.9993 353.432L30.8161 330.874C29.3743 330.084 28.4779 328.571 28.4779 326.927V282.259C28.4779 280.615 29.3743 279.102 30.8161 278.312L71.9993 255.754Z" fill="#D1B43C" fill-opacity="0.3" stroke="#D1B43C"/>
<path d="M273.333 80.001C273.333 74.7542 277.587 70.5 282.833 70.5H415.833C421.08 70.5 425.333 74.7533 425.333 80V265C425.333 270.247 421.08 274.5 415.833 274.5H282.833C277.587 274.5 273.333 270.246 273.333 264.999V264.81V264.621V264.433V264.244V264.056V263.868V263.68V263.492V263.304V263.116V262.929V262.741V262.554V262.367V262.18V261.993V261.806V261.619V261.433V261.246V261.06V260.874V260.688V260.502V260.316V260.13V259.945V259.759V259.574V259.389V259.204V259.019V258.834V258.649V258.465V258.28V258.096V257.912V257.727V257.543V257.36V257.176V256.992V256.809V256.625V256.442V256.259V256.076V255.893V255.71V255.527V255.345V255.162V254.98V254.798V254.615V254.433V254.252V254.07V253.888V253.707V253.525V253.344V253.163V252.982V252.801V252.62V252.439V252.258V252.078V251.897V251.717V251.537V251.357V251.177V250.997V250.817V250.638V250.458V250.279V250.099V249.92V249.741V249.562V249.383V249.205V249.026V248.847V248.669V248.491V248.312V248.134V247.956V247.778V247.601V247.423V247.245V247.068V246.891V246.713V246.536V246.359V246.182V246.005V245.829V245.652V245.476V245.299V245.123V244.947V244.771V244.595V244.419V244.243V244.067V243.892V243.716V243.541V243.365V243.19V243.015V242.84V242.665V242.491V242.316V242.141V241.967V241.792V241.618V241.444V241.27V241.096V240.922V240.748V240.575V240.401V240.227V240.054V239.881V239.708V239.534V239.361V239.188V239.016V238.843V238.67V238.498V238.325V238.153V237.981V237.809V237.637V237.465V237.293V237.121V236.949V236.778V236.606V236.435V236.263V236.092V235.921V235.75V235.579V235.408V235.237V235.067V234.896V234.726V234.555V234.385V234.215V234.044V233.874V233.704V233.535V233.365V233.195V233.025V232.856V232.687V232.517V232.348V232.179V232.01V231.841V231.672V231.503V231.334V231.165V230.997V230.828V230.66V230.492V230.323V230.155V229.987V229.819V229.651V229.483V229.316V229.148V228.98V228.813V228.646V228.478V228.311V228.144V227.977V227.81V227.643V227.476V227.309V227.142V226.976V226.809V226.643V226.477V226.31V226.144V225.978V225.812V225.646V225.48V225.314V225.148V224.983V224.817V224.652V224.486V224.321V224.155V223.99V223.825V223.66V223.495V223.33V223.165V223.001V222.836V222.671V222.507V222.342V222.178V222.013V221.849V221.685V221.521V221.357V221.193V221.029V220.865V220.701V220.538V220.374V220.211V220.047V219.884V219.72V219.557V219.394V219.231V219.068V218.905V218.742V218.579V218.416V218.253V218.091V217.928V217.766V217.603V217.441V217.278V217.116V216.954V216.792V216.63V216.468V216.306V216.144V215.982V215.82V215.659V215.497V215.336V215.174V215.013V214.851V214.69V214.529V214.368V214.206V214.045V213.884V213.723V213.563V213.402V213.241V213.08V212.92V212.759V212.599V212.438V212.278V212.117V211.957V211.797V211.637V211.477V211.317V211.157V210.997V210.837V210.677V210.517V210.358V210.198V210.038V209.879V209.719V209.56V209.4V209.241V209.082V208.923V208.764V208.604V208.445V208.286V208.127V207.969V207.81V207.651V207.492V207.334V207.175V207.016V206.858V206.699V206.541V206.382V206.224V206.066V205.908V205.749V205.591V205.433V205.275V205.117V204.959V204.801V204.644V204.486V204.328V204.17V204.013V203.855V203.698V203.54V203.383V203.225V203.068V202.91V202.753V202.596V202.439V202.282V202.125V201.967V201.81V201.653V201.497V201.34V201.183V201.026V200.869V200.713V200.556V200.399V200.243V200.086V199.93V199.773V199.617V199.46V199.304V199.148V198.991V198.835V198.679V198.523V198.367V198.211V198.055V197.899V197.743V197.587V197.431V197.275V197.119V196.963V196.808V196.652V196.496V196.341V196.185V196.03V195.874V195.719V195.563V195.408V195.252V195.097V194.942V194.786V194.631V194.476V194.321V194.166V194.01V193.855V193.7V193.545V193.39V193.235V193.08V192.925V192.771V192.616V192.461V192.306V192.151V191.997V191.842V191.687V191.533V191.378V191.224V191.069V190.914V190.76V190.605V190.451V190.297V190.142V189.988V189.834V189.679V189.525V189.371V189.216V189.062V188.908V188.754V188.6V188.446V188.292V188.138V187.983V187.829V187.675V187.522V187.368V187.214V187.06V186.906V186.752V186.598V186.444V186.291V186.137V185.983V185.829V185.676V185.522V185.368V185.215V185.061V184.907V184.754V184.6V184.447V184.293V184.139V183.986V183.832V183.679V183.526V183.372V183.219V183.065V182.912V182.758V182.605V182.452V182.298V182.145V181.992V181.838V181.685V181.532V181.379V181.225V181.072V180.919V180.766V180.613V180.459V180.306V180.153V180C273.333 179.879 273.291 179.788 273.274 179.755C273.252 179.711 273.228 179.676 273.21 179.652C273.174 179.603 273.132 179.556 273.093 179.516C273.013 179.432 272.904 179.331 272.778 179.22C272.524 178.994 272.166 178.696 271.743 178.351C271.325 178.01 270.828 177.61 270.297 177.183C269.767 176.757 269.203 176.303 268.649 175.852C267.524 174.938 266.409 174.01 265.576 173.252C265.159 172.871 264.823 172.543 264.594 172.285C264.493 172.17 264.42 172.078 264.373 172.008C264.417 171.951 264.483 171.877 264.574 171.785C264.799 171.56 265.132 171.276 265.549 170.948C266.379 170.294 267.493 169.505 268.618 168.723C269.001 168.458 269.385 168.193 269.759 167.935C270.478 167.439 271.16 166.969 271.717 166.571C272.141 166.269 272.503 166.002 272.762 165.791C272.89 165.687 273.005 165.587 273.091 165.498C273.134 165.454 273.181 165.401 273.221 165.342C273.248 165.303 273.333 165.175 273.333 165V164.847V164.694V164.541V164.387V164.234V164.081V163.928V163.775V163.621V163.468V163.315V163.162V163.008V162.855V162.702V162.548V162.395V162.242V162.088V161.935V161.781V161.628V161.474V161.321V161.168V161.014V160.861V160.707V160.553V160.4V160.246V160.093V159.939V159.785V159.632V159.478V159.324V159.171V159.017V158.863V158.709V158.556V158.402V158.248V158.094V157.94V157.786V157.632V157.478V157.325V157.171V157.017V156.862V156.708V156.554V156.4V156.246V156.092V155.938V155.784V155.629V155.475V155.321V155.166V155.012V154.858V154.703V154.549V154.395V154.24V154.086V153.931V153.776V153.622V153.467V153.313V153.158V153.003V152.849V152.694V152.539V152.384V152.229V152.075V151.92V151.765V151.61V151.455V151.3V151.145V150.99V150.834V150.679V150.524V150.369V150.214V150.058V149.903V149.748V149.592V149.437V149.281V149.126V148.97V148.815V148.659V148.504V148.348V148.192V148.037V147.881V147.725V147.569V147.413V147.257V147.101V146.945V146.789V146.633V146.477V146.321V146.165V146.009V145.852V145.696V145.54V145.383V145.227V145.07V144.914V144.757V144.601V144.444V144.287V144.131V143.974V143.817V143.66V143.503V143.347V143.19V143.033V142.875V142.718V142.561V142.404V142.247V142.09V141.932V141.775V141.617V141.46V141.302V141.145V140.987V140.83V140.672V140.514V140.356V140.199V140.041V139.883V139.725V139.567V139.409V139.251V139.092V138.934V138.776V138.618V138.459V138.301V138.142V137.984V137.825V137.666V137.508V137.349V137.19V137.031V136.873V136.714V136.555V136.396V136.236V136.077V135.918V135.759V135.6V135.44V135.281V135.121V134.962V134.802V134.642V134.483V134.323V134.163V134.003V133.843V133.683V133.523V133.363V133.203V133.043V132.883V132.722V132.562V132.401V132.241V132.08V131.92V131.759V131.598V131.437V131.277V131.116V130.955V130.794V130.632V130.471V130.31V130.149V129.987V129.826V129.664V129.503V129.341V129.18V129.018V128.856V128.694V128.532V128.37V128.208V128.046V127.884V127.722V127.559V127.397V127.234V127.072V126.909V126.747V126.584V126.421V126.258V126.095V125.932V125.769V125.606V125.443V125.28V125.116V124.953V124.789V124.626V124.462V124.299V124.135V123.971V123.807V123.643V123.479V123.315V123.151V122.987V122.822V122.658V122.493V122.329V122.164V121.999V121.835V121.67V121.505V121.34V121.175V121.01V120.845V120.679V120.514V120.348V120.183V120.017V119.852V119.686V119.52V119.354V119.188V119.022V118.856V118.69V118.523V118.357V118.191V118.024V117.858V117.691V117.524V117.357V117.19V117.023V116.856V116.689V116.522V116.354V116.187V116.02V115.852V115.684V115.517V115.349V115.181V115.013V114.845V114.677V114.508V114.34V114.172V114.003V113.835V113.666V113.497V113.328V113.159V112.99V112.821V112.652V112.483V112.313V112.144V111.975V111.805V111.635V111.465V111.296V111.126V110.956V110.785V110.615V110.445V110.274V110.104V109.933V109.763V109.592V109.421V109.25V109.079V108.908V108.737V108.565V108.394V108.222V108.051V107.879V107.707V107.535V107.363V107.191V107.019V106.847V106.675V106.502V106.33V106.157V105.984V105.812V105.639V105.466V105.292V105.119V104.946V104.773V104.599V104.425V104.252V104.078V103.904V103.73V103.556V103.382V103.208V103.033V102.859V102.684V102.509V102.335V102.16V101.985V101.81V101.635V101.459V101.284V101.108V100.933V100.757V100.581V100.405V100.229V100.053V99.8772V99.7009V99.5245V99.3479V99.1713V98.9946V98.8178V98.6408V98.4638V98.2867V98.1094V97.932V97.7546V97.577V97.3993V97.2216V97.0437V96.8657V96.6876V96.5094V96.3311V96.1526V95.9741V95.7955V95.6167V95.4378V95.2589V95.0798V94.9006V94.7213V94.5419V94.3624V94.1827V94.003V93.8232V93.6432V93.4631V93.2829V93.1026V92.9222V92.7417V92.5611V92.3803V92.1995V92.0185V91.8374V91.6562V91.4749V91.2934V91.1119V90.9302V90.7485V90.5666V90.3846V90.2024V90.0202V89.8378V89.6554V89.4728V89.2901V89.1073V88.9243V88.7413V88.5581V88.3748V88.1914V88.0079V87.8242V87.6405V87.4566V87.2726V87.0885V86.9042V86.7199V86.5354V86.3508V86.166V85.9812V85.7962V85.6111V85.4259V85.2406V85.0552V84.8696V84.6839V84.4981V84.3121V84.1261V83.9399V83.7535V83.5671V83.3806V83.1939V83.0071V82.8201V82.6331V82.4459V82.2586V82.0711V81.8836V81.6959V81.5081V81.3201V81.132V80.9438V80.7555V80.5671V80.3785V80.1898V80.001ZM264.317 172.093C264.317 172.093 264.318 172.092 264.319 172.089C264.318 172.092 264.317 172.093 264.317 172.093Z" fill="#FAFAFA" stroke="#62A294"/>
<rect x="316.833" y="241" width="98" height="21" rx="7" fill="#62A294"/>
<path d="M348.717 248.718H350.94C351.342 248.718 351.705 248.784 352.029 248.916C352.359 249.048 352.638 249.246 352.866 249.51C353.1 249.768 353.28 250.095 353.406 250.491C353.532 250.881 353.595 251.337 353.595 251.859C353.595 252.381 353.532 252.84 353.406 253.236C353.28 253.626 353.1 253.953 352.866 254.217C352.638 254.475 352.359 254.67 352.029 254.802C351.705 254.934 351.342 255 350.94 255H348.717V248.718ZM350.94 254.1C351.408 254.1 351.786 253.953 352.074 253.659C352.362 253.365 352.506 252.933 352.506 252.363V251.355C352.506 250.785 352.362 250.353 352.074 250.059C351.786 249.765 351.408 249.618 350.94 249.618H349.734V254.1H350.94ZM354.861 255V248.718H358.884V249.618H355.878V251.364H358.605V252.264H355.878V254.1H358.884V255H354.861ZM362.527 249.618V255H361.51V249.618H359.638V248.718H364.399V249.618H362.527ZM368.725 255L368.158 253.299H365.809L365.26 255H364.225L366.367 248.718H367.645L369.787 255H368.725ZM367.006 249.654H366.961L366.052 252.426H367.906L367.006 249.654ZM370.49 255V254.172H371.345V249.546H370.49V248.718H373.226V249.546H372.362V254.172H373.226V255H370.49ZM374.504 255V248.718H375.521V254.1H378.077V255H374.504ZM380.999 255.108C380.471 255.108 380.021 255.012 379.649 254.82C379.283 254.628 378.968 254.37 378.704 254.046L379.406 253.389C379.628 253.659 379.871 253.863 380.135 254.001C380.405 254.139 380.711 254.208 381.053 254.208C381.455 254.208 381.758 254.118 381.962 253.938C382.166 253.758 382.268 253.515 382.268 253.209C382.268 252.963 382.196 252.768 382.052 252.624C381.908 252.48 381.653 252.372 381.287 252.3L380.729 252.201C380.117 252.087 379.658 251.886 379.352 251.598C379.046 251.31 378.893 250.914 378.893 250.41C378.893 250.134 378.944 249.885 379.046 249.663C379.154 249.435 379.301 249.246 379.487 249.096C379.679 248.94 379.91 248.82 380.18 248.736C380.45 248.652 380.753 248.61 381.089 248.61C381.563 248.61 381.974 248.694 382.322 248.862C382.67 249.024 382.967 249.261 383.213 249.573L382.502 250.203C382.34 249.993 382.142 249.825 381.908 249.699C381.674 249.573 381.383 249.51 381.035 249.51C380.675 249.51 380.396 249.582 380.198 249.726C380 249.87 379.901 250.08 379.901 250.356C379.901 250.62 379.982 250.818 380.144 250.95C380.306 251.076 380.558 251.172 380.9 251.238L381.458 251.355C382.088 251.475 382.547 251.679 382.835 251.967C383.129 252.255 383.276 252.651 383.276 253.155C383.276 253.449 383.225 253.716 383.123 253.956C383.021 254.196 382.871 254.403 382.673 254.577C382.481 254.745 382.244 254.877 381.962 254.973C381.68 255.063 381.359 255.108 380.999 255.108Z" fill="white"/>
<rect x="287.833" y="241" width="21" height="21" rx="7" fill="#D9D9D9"/>
<path d="M300.711 252.359C300.489 252.359 300.324 252.302 300.216 252.188C300.108 252.068 300.054 251.921 300.054 251.747V251.612C300.054 251.438 300.108 251.294 300.216 251.18C300.324 251.06 300.489 251 300.711 251C300.933 251 301.098 251.06 301.206 251.18C301.314 251.294 301.368 251.438 301.368 251.612V251.747C301.368 251.921 301.314 252.068 301.206 252.188C301.098 252.302 300.933 252.359 300.711 252.359Z" fill="#999999"/>
<path d="M298.101 252.359C297.879 252.359 297.714 252.302 297.606 252.188C297.498 252.068 297.444 251.921 297.444 251.747V251.612C297.444 251.438 297.498 251.294 297.606 251.18C297.714 251.06 297.879 251 298.101 251C298.323 251 298.488 251.06 298.596 251.18C298.704 251.294 298.758 251.438 298.758 251.612V251.747C298.758 251.921 298.704 252.068 298.596 252.188C298.488 252.302 298.323 252.359 298.101 252.359Z" fill="#999999"/>
<path d="M295.49 252.359C295.268 252.359 295.103 252.302 294.995 252.188C294.887 252.068 294.833 251.921 294.833 251.747V251.612C294.833 251.438 294.887 251.294 294.995 251.18C295.103 251.06 295.268 251 295.49 251C295.712 251 295.877 251.06 295.985 251.18C296.093 251.294 296.147 251.438 296.147 251.612V251.747C296.147 251.921 296.093 252.068 295.985 252.188C295.877 252.302 295.712 252.359 295.49 252.359Z" fill="#999999"/>
<path d="M288.757 94V85.624H294.313V87.244H290.581V88.96H293.761V90.568H290.581V94H288.757ZM297.922 94.144C297.442 94.144 297.014 94.068 296.638 93.916C296.262 93.756 295.942 93.536 295.678 93.256C295.422 92.968 295.226 92.62 295.09 92.212C294.962 91.804 294.898 91.348 294.898 90.844C294.898 90.348 294.962 89.9 295.09 89.5C295.218 89.092 295.406 88.744 295.654 88.456C295.91 88.168 296.222 87.948 296.59 87.796C296.958 87.636 297.378 87.556 297.85 87.556C298.37 87.556 298.814 87.644 299.182 87.82C299.558 87.996 299.862 88.232 300.094 88.528C300.334 88.824 300.506 89.168 300.61 89.56C300.722 89.944 300.778 90.348 300.778 90.772V91.3H296.734V91.396C296.734 91.812 296.846 92.144 297.07 92.392C297.294 92.632 297.646 92.752 298.126 92.752C298.494 92.752 298.794 92.68 299.026 92.536C299.258 92.384 299.474 92.204 299.674 91.996L300.562 93.1C300.282 93.428 299.914 93.684 299.458 93.868C299.01 94.052 298.498 94.144 297.922 94.144ZM297.886 88.864C297.526 88.864 297.242 88.984 297.034 89.224C296.834 89.456 296.734 89.768 296.734 90.16V90.256H298.942V90.148C298.942 89.764 298.854 89.456 298.678 89.224C298.51 88.984 298.246 88.864 297.886 88.864ZM306.688 94C306.368 94 306.1 93.9 305.884 93.7C305.676 93.5 305.544 93.232 305.488 92.896H305.416C305.32 93.304 305.108 93.616 304.78 93.832C304.452 94.04 304.048 94.144 303.568 94.144C302.936 94.144 302.452 93.976 302.116 93.64C301.78 93.304 301.612 92.86 301.612 92.308C301.612 91.644 301.852 91.152 302.332 90.832C302.82 90.504 303.48 90.34 304.312 90.34H305.308V89.944C305.308 89.64 305.228 89.4 305.068 89.224C304.908 89.04 304.64 88.948 304.264 88.948C303.912 88.948 303.632 89.024 303.424 89.176C303.216 89.328 303.044 89.5 302.908 89.692L301.852 88.756C302.108 88.38 302.428 88.088 302.812 87.88C303.204 87.664 303.732 87.556 304.396 87.556C305.292 87.556 305.964 87.752 306.412 88.144C306.86 88.536 307.084 89.108 307.084 89.86V92.62H307.672V94H306.688ZM304.228 92.908C304.524 92.908 304.776 92.844 304.984 92.716C305.2 92.588 305.308 92.38 305.308 92.092V91.348H304.444C303.748 91.348 303.4 91.584 303.4 92.056V92.236C303.4 92.468 303.472 92.64 303.616 92.752C303.76 92.856 303.964 92.908 304.228 92.908ZM308.864 94V87.7H310.64V89.068H310.7C310.732 88.892 310.788 88.724 310.868 88.564C310.948 88.396 311.052 88.248 311.18 88.12C311.316 87.992 311.476 87.892 311.66 87.82C311.844 87.74 312.06 87.7 312.308 87.7H312.62V89.356H312.176C311.656 89.356 311.268 89.424 311.012 89.56C310.764 89.696 310.64 89.948 310.64 90.316V94H308.864ZM314.133 89.08H313.245V87.7H314.133V86.956C314.133 86.348 314.293 85.892 314.613 85.588C314.933 85.276 315.401 85.12 316.017 85.12H317.169V86.5H315.909V87.7H317.169V89.08H315.909V94H314.133V89.08ZM321.877 92.944H321.817C321.761 93.104 321.685 93.256 321.589 93.4C321.501 93.544 321.385 93.672 321.241 93.784C321.097 93.896 320.925 93.984 320.725 94.048C320.533 94.112 320.309 94.144 320.053 94.144C319.405 94.144 318.913 93.932 318.577 93.508C318.249 93.076 318.085 92.46 318.085 91.66V87.7H319.861V91.504C319.861 91.888 319.929 92.184 320.065 92.392C320.201 92.6 320.433 92.704 320.761 92.704C320.897 92.704 321.033 92.684 321.169 92.644C321.305 92.604 321.425 92.548 321.529 92.476C321.633 92.396 321.717 92.3 321.781 92.188C321.845 92.076 321.877 91.944 321.877 91.792V87.7H323.653V94H321.877V92.944ZM327.07 94C326.462 94 326.014 93.852 325.726 93.556C325.446 93.26 325.306 92.832 325.306 92.272V85.12H327.082V92.62H327.874V94H327.07ZM335.231 94.144C334.679 94.144 334.175 94.052 333.719 93.868C333.263 93.684 332.875 93.412 332.555 93.052C332.235 92.684 331.987 92.232 331.811 91.696C331.635 91.152 331.547 90.524 331.547 89.812C331.547 89.1 331.635 88.476 331.811 87.94C331.987 87.396 332.235 86.944 332.555 86.584C332.875 86.216 333.263 85.94 333.719 85.756C334.175 85.572 334.679 85.48 335.231 85.48C335.783 85.48 336.287 85.572 336.743 85.756C337.199 85.94 337.587 86.216 337.907 86.584C338.227 86.944 338.475 87.396 338.651 87.94C338.827 88.476 338.915 89.1 338.915 89.812C338.915 90.524 338.827 91.152 338.651 91.696C338.475 92.232 338.227 92.684 337.907 93.052C337.587 93.412 337.199 93.684 336.743 93.868C336.287 94.052 335.783 94.144 335.231 94.144ZM335.231 92.524C335.783 92.524 336.211 92.344 336.515 91.984C336.827 91.624 336.983 91.108 336.983 90.436V89.188C336.983 88.516 336.827 88 336.515 87.64C336.211 87.28 335.783 87.1 335.231 87.1C334.679 87.1 334.247 87.28 333.935 87.64C333.631 88 333.479 88.516 333.479 89.188V90.436C333.479 91.108 333.631 91.624 333.935 91.984C334.247 92.344 334.679 92.524 335.231 92.524ZM340.341 94V87.7H342.117V88.768H342.189C342.301 88.44 342.497 88.156 342.777 87.916C343.057 87.676 343.445 87.556 343.941 87.556C344.589 87.556 345.077 87.772 345.405 88.204C345.741 88.636 345.909 89.252 345.909 90.052V94H344.133V90.196C344.133 89.788 344.069 89.488 343.941 89.296C343.813 89.096 343.585 88.996 343.257 88.996C343.113 88.996 342.973 89.016 342.837 89.056C342.701 89.088 342.577 89.144 342.465 89.224C342.361 89.304 342.277 89.404 342.213 89.524C342.149 89.636 342.117 89.768 342.117 89.92V94H340.341ZM350.117 94.144C349.637 94.144 349.209 94.068 348.833 93.916C348.457 93.756 348.137 93.536 347.873 93.256C347.617 92.968 347.421 92.62 347.285 92.212C347.157 91.804 347.093 91.348 347.093 90.844C347.093 90.348 347.157 89.9 347.285 89.5C347.413 89.092 347.601 88.744 347.849 88.456C348.105 88.168 348.417 87.948 348.785 87.796C349.153 87.636 349.573 87.556 350.045 87.556C350.565 87.556 351.009 87.644 351.377 87.82C351.753 87.996 352.057 88.232 352.289 88.528C352.529 88.824 352.701 89.168 352.805 89.56C352.917 89.944 352.973 90.348 352.973 90.772V91.3H348.929V91.396C348.929 91.812 349.041 92.144 349.265 92.392C349.489 92.632 349.841 92.752 350.321 92.752C350.689 92.752 350.989 92.68 351.221 92.536C351.453 92.384 351.669 92.204 351.869 91.996L352.757 93.1C352.477 93.428 352.109 93.684 351.653 93.868C351.205 94.052 350.693 94.144 350.117 94.144ZM350.081 88.864C349.721 88.864 349.437 88.984 349.229 89.224C349.029 89.456 348.929 89.768 348.929 90.16V90.256H351.137V90.148C351.137 89.764 351.049 89.456 350.873 89.224C350.705 88.984 350.441 88.864 350.081 88.864Z" fill="black"/>
<rect x="287.833" y="135" width="127" height="6" rx="3" fill="#D9D9D9"/>
<path d="M287.833 138C287.833 136.343 289.176 135 290.833 135H343.833V141H290.833C289.176 141 287.833 139.657 287.833 138Z" fill="#62A294"/>
<path d="M288.337 131V130.172H289.192V125.546H288.337V124.718H291.073V125.546H290.209V130.172H291.073V131H288.337ZM294.043 127.526L293.35 126.194H293.323V131H292.351V124.718H293.485L295.537 128.192L296.23 129.524H296.257V124.718H297.229V131H296.095L294.043 127.526ZM301.107 125.618V131H300.09V125.618H298.218V124.718H302.979V125.618H301.107ZM303.971 131V124.718H307.994V125.618H304.988V127.364H307.715V128.264H304.988V130.1H307.994V131H303.971ZM310.997 127.526L310.304 126.194H310.277V131H309.305V124.718H310.439L312.491 128.192L313.184 129.524H313.211V124.718H314.183V131H313.049L310.997 127.526ZM317.611 131.108C317.083 131.108 316.633 131.012 316.261 130.82C315.895 130.628 315.58 130.37 315.316 130.046L316.018 129.389C316.24 129.659 316.483 129.863 316.747 130.001C317.017 130.139 317.323 130.208 317.665 130.208C318.067 130.208 318.37 130.118 318.574 129.938C318.778 129.758 318.88 129.515 318.88 129.209C318.88 128.963 318.808 128.768 318.664 128.624C318.52 128.48 318.265 128.372 317.899 128.3L317.341 128.201C316.729 128.087 316.27 127.886 315.964 127.598C315.658 127.31 315.505 126.914 315.505 126.41C315.505 126.134 315.556 125.885 315.658 125.663C315.766 125.435 315.913 125.246 316.099 125.096C316.291 124.94 316.522 124.82 316.792 124.736C317.062 124.652 317.365 124.61 317.701 124.61C318.175 124.61 318.586 124.694 318.934 124.862C319.282 125.024 319.579 125.261 319.825 125.573L319.114 126.203C318.952 125.993 318.754 125.825 318.52 125.699C318.286 125.573 317.995 125.51 317.647 125.51C317.287 125.51 317.008 125.582 316.81 125.726C316.612 125.87 316.513 126.08 316.513 126.356C316.513 126.62 316.594 126.818 316.756 126.95C316.918 127.076 317.17 127.172 317.512 127.238L318.07 127.355C318.7 127.475 319.159 127.679 319.447 127.967C319.741 128.255 319.888 128.651 319.888 129.155C319.888 129.449 319.837 129.716 319.735 129.956C319.633 130.196 319.483 130.403 319.285 130.577C319.093 130.745 318.856 130.877 318.574 130.973C318.292 131.063 317.971 131.108 317.611 131.108ZM320.839 131V130.172H321.694V125.546H320.839V124.718H323.575V125.546H322.711V130.172H323.575V131H320.839ZM327.132 125.618V131H326.115V125.618H324.243V124.718H329.004V125.618H327.132ZM331.515 131V128.525L329.355 124.718H330.516L332.046 127.517H332.073L333.594 124.718H334.71L332.532 128.507V131H331.515Z" fill="#999999"/>
<rect x="287.833" y="159" width="127" height="6" rx="3" fill="#D9D9D9"/>
<path d="M287.833 162C287.833 160.343 289.176 159 290.833 159H386.833V165H290.833C289.176 165 287.833 163.657 287.833 162Z" fill="#62A294"/>
<path d="M288.607 148.718H290.83C291.232 148.718 291.595 148.784 291.919 148.916C292.249 149.048 292.528 149.246 292.756 149.51C292.99 149.768 293.17 150.095 293.296 150.491C293.422 150.881 293.485 151.337 293.485 151.859C293.485 152.381 293.422 152.84 293.296 153.236C293.17 153.626 292.99 153.953 292.756 154.217C292.528 154.475 292.249 154.67 291.919 154.802C291.595 154.934 291.232 155 290.83 155H288.607V148.718ZM290.83 154.1C291.298 154.1 291.676 153.953 291.964 153.659C292.252 153.365 292.396 152.933 292.396 152.363V151.355C292.396 150.785 292.252 150.353 291.964 150.059C291.676 149.765 291.298 149.618 290.83 149.618H289.624V154.1H290.83ZM294.751 155V148.718H298.774V149.618H295.768V151.364H298.495V152.264H295.768V154.1H298.774V155H294.751ZM301.967 155.108C301.439 155.108 300.989 155.012 300.617 154.82C300.251 154.628 299.936 154.37 299.672 154.046L300.374 153.389C300.596 153.659 300.839 153.863 301.103 154.001C301.373 154.139 301.679 154.208 302.021 154.208C302.423 154.208 302.726 154.118 302.93 153.938C303.134 153.758 303.236 153.515 303.236 153.209C303.236 152.963 303.164 152.768 303.02 152.624C302.876 152.48 302.621 152.372 302.255 152.3L301.697 152.201C301.085 152.087 300.626 151.886 300.32 151.598C300.014 151.31 299.861 150.914 299.861 150.41C299.861 150.134 299.912 149.885 300.014 149.663C300.122 149.435 300.269 149.246 300.455 149.096C300.647 148.94 300.878 148.82 301.148 148.736C301.418 148.652 301.721 148.61 302.057 148.61C302.531 148.61 302.942 148.694 303.29 148.862C303.638 149.024 303.935 149.261 304.181 149.573L303.47 150.203C303.308 149.993 303.11 149.825 302.876 149.699C302.642 149.573 302.351 149.51 302.003 149.51C301.643 149.51 301.364 149.582 301.166 149.726C300.968 149.87 300.869 150.08 300.869 150.356C300.869 150.62 300.95 150.818 301.112 150.95C301.274 151.076 301.526 151.172 301.868 151.238L302.426 151.355C303.056 151.475 303.515 151.679 303.803 151.967C304.097 152.255 304.244 152.651 304.244 153.155C304.244 153.449 304.193 153.716 304.091 153.956C303.989 154.196 303.839 154.403 303.641 154.577C303.449 154.745 303.212 154.877 302.93 154.973C302.648 155.063 302.327 155.108 301.967 155.108ZM305.195 155V154.172H306.05V149.546H305.195V148.718H307.931V149.546H307.067V154.172H307.931V155H305.195ZM310.226 155H309.209V148.718H311.918C312.482 148.718 312.926 148.889 313.25 149.231C313.574 149.567 313.736 150.026 313.736 150.608C313.736 151.058 313.631 151.433 313.421 151.733C313.217 152.027 312.914 152.234 312.512 152.354L313.871 155H312.737L311.477 152.462H310.226V155ZM311.846 151.607C312.104 151.607 312.305 151.541 312.449 151.409C312.593 151.271 312.665 151.076 312.665 150.824V150.392C312.665 150.14 312.593 149.948 312.449 149.816C312.305 149.678 312.104 149.609 311.846 149.609H310.226V151.607H311.846ZM315.106 155V148.718H319.129V149.618H316.123V151.364H318.85V152.264H316.123V154.1H319.129V155H315.106ZM322.568 155V148.718H326.492V149.618H323.585V151.364H326.168V152.264H323.585V155H322.568ZM329.92 155.108C329.512 155.108 329.14 155.039 328.804 154.901C328.474 154.757 328.189 154.55 327.949 154.28C327.715 154.004 327.532 153.665 327.4 153.263C327.274 152.855 327.211 152.387 327.211 151.859C327.211 151.331 327.274 150.866 327.4 150.464C327.532 150.056 327.715 149.717 327.949 149.447C328.189 149.171 328.474 148.964 328.804 148.826C329.14 148.682 329.512 148.61 329.92 148.61C330.328 148.61 330.697 148.682 331.027 148.826C331.363 148.964 331.648 149.171 331.882 149.447C332.122 149.717 332.305 150.056 332.431 150.464C332.563 150.866 332.629 151.331 332.629 151.859C332.629 152.387 332.563 152.855 332.431 153.263C332.305 153.665 332.122 154.004 331.882 154.28C331.648 154.55 331.363 154.757 331.027 154.901C330.697 155.039 330.328 155.108 329.92 155.108ZM329.92 154.199C330.16 154.199 330.379 154.157 330.577 154.073C330.781 153.989 330.952 153.869 331.09 153.713C331.234 153.551 331.345 153.356 331.423 153.128C331.501 152.9 331.54 152.642 331.54 152.354V151.364C331.54 151.076 331.501 150.818 331.423 150.59C331.345 150.362 331.234 150.17 331.09 150.014C330.952 149.852 330.781 149.729 330.577 149.645C330.379 149.561 330.16 149.519 329.92 149.519C329.674 149.519 329.452 149.561 329.254 149.645C329.056 149.729 328.885 149.852 328.741 150.014C328.603 150.17 328.495 150.362 328.417 150.59C328.339 150.818 328.3 151.076 328.3 151.364V152.354C328.3 152.642 328.339 152.9 328.417 153.128C328.495 153.356 328.603 153.551 328.741 153.713C328.885 153.869 329.056 153.989 329.254 154.073C329.452 154.157 329.674 154.199 329.92 154.199ZM334.914 155H333.897V148.718H336.606C337.17 148.718 337.614 148.889 337.938 149.231C338.262 149.567 338.424 150.026 338.424 150.608C338.424 151.058 338.319 151.433 338.109 151.733C337.905 152.027 337.602 152.234 337.2 152.354L338.559 155H337.425L336.165 152.462H334.914V155ZM336.534 151.607C336.792 151.607 336.993 151.541 337.137 151.409C337.281 151.271 337.353 151.076 337.353 150.824V150.392C337.353 150.14 337.281 149.948 337.137 149.816C336.993 149.678 336.792 149.609 336.534 149.609H334.914V151.607H336.534ZM344.28 155.108C343.458 155.108 342.813 154.832 342.345 154.28C341.877 153.722 341.643 152.915 341.643 151.859C341.643 151.331 341.703 150.866 341.823 150.464C341.943 150.062 342.117 149.723 342.345 149.447C342.573 149.171 342.849 148.964 343.173 148.826C343.503 148.682 343.872 148.61 344.28 148.61C344.826 148.61 345.282 148.73 345.648 148.97C346.02 149.21 346.311 149.564 346.521 150.032L345.666 150.5C345.558 150.2 345.39 149.963 345.162 149.789C344.94 149.609 344.646 149.519 344.28 149.519C343.794 149.519 343.413 149.684 343.137 150.014C342.861 150.344 342.723 150.8 342.723 151.382V152.336C342.723 152.918 342.861 153.374 343.137 153.704C343.413 154.034 343.794 154.199 344.28 154.199C344.658 154.199 344.964 154.103 345.198 153.911C345.438 153.713 345.615 153.461 345.729 153.155L346.548 153.65C346.338 154.106 346.044 154.463 345.666 154.721C345.288 154.979 344.826 155.108 344.28 155.108ZM349.942 155.108C349.534 155.108 349.162 155.039 348.826 154.901C348.496 154.757 348.211 154.55 347.971 154.28C347.737 154.004 347.554 153.665 347.422 153.263C347.296 152.855 347.233 152.387 347.233 151.859C347.233 151.331 347.296 150.866 347.422 150.464C347.554 150.056 347.737 149.717 347.971 149.447C348.211 149.171 348.496 148.964 348.826 148.826C349.162 148.682 349.534 148.61 349.942 148.61C350.35 148.61 350.719 148.682 351.049 148.826C351.385 148.964 351.67 149.171 351.904 149.447C352.144 149.717 352.327 150.056 352.453 150.464C352.585 150.866 352.651 151.331 352.651 151.859C352.651 152.387 352.585 152.855 352.453 153.263C352.327 153.665 352.144 154.004 351.904 154.28C351.67 154.55 351.385 154.757 351.049 154.901C350.719 155.039 350.35 155.108 349.942 155.108ZM349.942 154.199C350.182 154.199 350.401 154.157 350.599 154.073C350.803 153.989 350.974 153.869 351.112 153.713C351.256 153.551 351.367 153.356 351.445 153.128C351.523 152.9 351.562 152.642 351.562 152.354V151.364C351.562 151.076 351.523 150.818 351.445 150.59C351.367 150.362 351.256 150.17 351.112 150.014C350.974 149.852 350.803 149.729 350.599 149.645C350.401 149.561 350.182 149.519 349.942 149.519C349.696 149.519 349.474 149.561 349.276 149.645C349.078 149.729 348.907 149.852 348.763 150.014C348.625 150.17 348.517 150.362 348.439 150.59C348.361 150.818 348.322 151.076 348.322 151.364V152.354C348.322 152.642 348.361 152.9 348.439 153.128C348.517 153.356 348.625 153.551 348.763 153.713C348.907 153.869 349.078 153.989 349.276 154.073C349.474 154.157 349.696 154.199 349.942 154.199ZM355.611 151.526L354.918 150.194H354.891V155H353.919V148.718H355.053L357.105 152.192L357.798 153.524H357.825V148.718H358.797V155H357.663L355.611 151.526ZM362.036 151.526L361.343 150.194H361.316V155H360.344V148.718H361.478L363.53 152.192L364.223 153.524H364.25V148.718H365.222V155H364.088L362.036 151.526ZM366.768 155V148.718H370.791V149.618H367.785V151.364H370.512V152.264H367.785V154.1H370.791V155H366.768ZM374.461 155.108C373.639 155.108 372.994 154.832 372.526 154.28C372.058 153.722 371.824 152.915 371.824 151.859C371.824 151.331 371.884 150.866 372.004 150.464C372.124 150.062 372.298 149.723 372.526 149.447C372.754 149.171 373.03 148.964 373.354 148.826C373.684 148.682 374.053 148.61 374.461 148.61C375.007 148.61 375.463 148.73 375.829 148.97C376.201 149.21 376.492 149.564 376.702 150.032L375.847 150.5C375.739 150.2 375.571 149.963 375.343 149.789C375.121 149.609 374.827 149.519 374.461 149.519C373.975 149.519 373.594 149.684 373.318 150.014C373.042 150.344 372.904 150.8 372.904 151.382V152.336C372.904 152.918 373.042 153.374 373.318 153.704C373.594 154.034 373.975 154.199 374.461 154.199C374.839 154.199 375.145 154.103 375.379 153.911C375.619 153.713 375.796 153.461 375.91 153.155L376.729 153.65C376.519 154.106 376.225 154.463 375.847 154.721C375.469 154.979 375.007 155.108 374.461 155.108ZM380.138 149.618V155H379.121V149.618H377.249V148.718H382.01V149.618H380.138ZM382.679 155V154.172H383.534V149.546H382.679V148.718H385.415V149.546H384.551V154.172H385.415V155H382.679ZM389.123 155.108C388.715 155.108 388.343 155.039 388.007 154.901C387.677 154.757 387.392 154.55 387.152 154.28C386.918 154.004 386.735 153.665 386.603 153.263C386.477 152.855 386.414 152.387 386.414 151.859C386.414 151.331 386.477 150.866 386.603 150.464C386.735 150.056 386.918 149.717 387.152 149.447C387.392 149.171 387.677 148.964 388.007 148.826C388.343 148.682 388.715 148.61 389.123 148.61C389.531 148.61 389.9 148.682 390.23 148.826C390.566 148.964 390.851 149.171 391.085 149.447C391.325 149.717 391.508 150.056 391.634 150.464C391.766 150.866 391.832 151.331 391.832 151.859C391.832 152.387 391.766 152.855 391.634 153.263C391.508 153.665 391.325 154.004 391.085 154.28C390.851 154.55 390.566 154.757 390.23 154.901C389.9 155.039 389.531 155.108 389.123 155.108ZM389.123 154.199C389.363 154.199 389.582 154.157 389.78 154.073C389.984 153.989 390.155 153.869 390.293 153.713C390.437 153.551 390.548 153.356 390.626 153.128C390.704 152.9 390.743 152.642 390.743 152.354V151.364C390.743 151.076 390.704 150.818 390.626 150.59C390.548 150.362 390.437 150.17 390.293 150.014C390.155 149.852 389.984 149.729 389.78 149.645C389.582 149.561 389.363 149.519 389.123 149.519C388.877 149.519 388.655 149.561 388.457 149.645C388.259 149.729 388.088 149.852 387.944 150.014C387.806 150.17 387.698 150.362 387.62 150.59C387.542 150.818 387.503 151.076 387.503 151.364V152.354C387.503 152.642 387.542 152.9 387.62 153.128C387.698 153.356 387.806 153.551 387.944 153.713C388.088 153.869 388.259 153.989 388.457 154.073C388.655 154.157 388.877 154.199 389.123 154.199ZM394.792 151.526L394.099 150.194H394.072V155H393.1V148.718H394.234L396.286 152.192L396.979 153.524H397.006V148.718H397.978V155H396.844L394.792 151.526Z" fill="#999999"/>
<rect x="287.833" y="183" width="127" height="6" rx="3" fill="#D9D9D9"/>
<path d="M287.833 186C287.833 184.343 289.176 183 290.833 183H390.833V189H290.833C289.176 189 287.833 187.657 287.833 186Z" fill="#62A294"/>
<path d="M292.468 176.264H289.624V179H288.607V172.718H289.624V175.364H292.468V172.718H293.485V179H292.468V176.264ZM295.032 179V172.718H299.055V173.618H296.049V175.364H298.776V176.264H296.049V178.1H299.055V179H295.032ZM304.291 179L303.724 177.299H301.375L300.826 179H299.791L301.933 172.718H303.211L305.353 179H304.291ZM302.572 173.654H302.527L301.618 176.426H303.472L302.572 173.654ZM306.326 179V172.718H307.343V178.1H309.899V179H306.326ZM310.67 179V178.172H311.525V173.546H310.67V172.718H313.406V173.546H312.542V178.172H313.406V179H310.67ZM316.376 175.526L315.683 174.194H315.656V179H314.684V172.718H315.818L317.87 176.192L318.563 177.524H318.59V172.718H319.562V179H318.428L316.376 175.526ZM325.15 178.046H325.114C325.048 178.352 324.868 178.607 324.574 178.811C324.286 179.009 323.902 179.108 323.422 179.108C323.05 179.108 322.705 179.039 322.387 178.901C322.069 178.757 321.793 178.55 321.559 178.28C321.331 178.004 321.151 177.665 321.019 177.263C320.893 176.855 320.83 176.387 320.83 175.859C320.83 175.337 320.896 174.875 321.028 174.473C321.16 174.065 321.346 173.723 321.586 173.447C321.826 173.171 322.114 172.964 322.45 172.826C322.786 172.682 323.161 172.61 323.575 172.61C324.139 172.61 324.616 172.736 325.006 172.988C325.396 173.234 325.699 173.579 325.915 174.023L325.087 174.509C324.967 174.215 324.781 173.978 324.529 173.798C324.277 173.612 323.959 173.519 323.575 173.519C323.077 173.519 322.675 173.678 322.369 173.996C322.069 174.314 321.919 174.764 321.919 175.346V176.372C321.919 176.954 322.069 177.404 322.369 177.722C322.675 178.04 323.077 178.199 323.575 178.199C323.773 178.199 323.962 178.175 324.142 178.127C324.322 178.073 324.478 177.998 324.61 177.902C324.748 177.8 324.856 177.677 324.934 177.533C325.018 177.383 325.06 177.209 325.06 177.011V176.525H323.764V175.652H326.041V179H325.15V178.046ZM329.582 179V172.718H332.282C332.864 172.718 333.314 172.889 333.632 173.231C333.95 173.573 334.109 174.032 334.109 174.608C334.109 175.184 333.95 175.643 333.632 175.985C333.314 176.327 332.864 176.498 332.282 176.498H330.599V179H329.582ZM330.599 175.607H332.219C332.477 175.607 332.678 175.541 332.822 175.409C332.966 175.271 333.038 175.076 333.038 174.824V174.392C333.038 174.14 332.966 173.948 332.822 173.816C332.678 173.678 332.477 173.609 332.219 173.609H330.599V175.607ZM336.241 179H335.224V172.718H337.933C338.497 172.718 338.941 172.889 339.265 173.231C339.589 173.567 339.751 174.026 339.751 174.608C339.751 175.058 339.646 175.433 339.436 175.733C339.232 176.027 338.929 176.234 338.527 176.354L339.886 179H338.752L337.492 176.462H336.241V179ZM337.861 175.607C338.119 175.607 338.32 175.541 338.464 175.409C338.608 175.271 338.68 175.076 338.68 174.824V174.392C338.68 174.14 338.608 173.948 338.464 173.816C338.32 173.678 338.119 173.609 337.861 173.609H336.241V175.607H337.861ZM343.464 179.108C343.056 179.108 342.684 179.039 342.348 178.901C342.018 178.757 341.733 178.55 341.493 178.28C341.259 178.004 341.076 177.665 340.944 177.263C340.818 176.855 340.755 176.387 340.755 175.859C340.755 175.331 340.818 174.866 340.944 174.464C341.076 174.056 341.259 173.717 341.493 173.447C341.733 173.171 342.018 172.964 342.348 172.826C342.684 172.682 343.056 172.61 343.464 172.61C343.872 172.61 344.241 172.682 344.571 172.826C344.907 172.964 345.192 173.171 345.426 173.447C345.666 173.717 345.849 174.056 345.975 174.464C346.107 174.866 346.173 175.331 346.173 175.859C346.173 176.387 346.107 176.855 345.975 177.263C345.849 177.665 345.666 178.004 345.426 178.28C345.192 178.55 344.907 178.757 344.571 178.901C344.241 179.039 343.872 179.108 343.464 179.108ZM343.464 178.199C343.704 178.199 343.923 178.157 344.121 178.073C344.325 177.989 344.496 177.869 344.634 177.713C344.778 177.551 344.889 177.356 344.967 177.128C345.045 176.9 345.084 176.642 345.084 176.354V175.364C345.084 175.076 345.045 174.818 344.967 174.59C344.889 174.362 344.778 174.17 344.634 174.014C344.496 173.852 344.325 173.729 344.121 173.645C343.923 173.561 343.704 173.519 343.464 173.519C343.218 173.519 342.996 173.561 342.798 173.645C342.6 173.729 342.429 173.852 342.285 174.014C342.147 174.17 342.039 174.362 341.961 174.59C341.883 174.818 341.844 175.076 341.844 175.364V176.354C341.844 176.642 341.883 176.9 341.961 177.128C342.039 177.356 342.147 177.551 342.285 177.713C342.429 177.869 342.6 177.989 342.798 178.073C342.996 178.157 343.218 178.199 343.464 178.199ZM351.482 178.046H351.446C351.38 178.352 351.2 178.607 350.906 178.811C350.618 179.009 350.234 179.108 349.754 179.108C349.382 179.108 349.037 179.039 348.719 178.901C348.401 178.757 348.125 178.55 347.891 178.28C347.663 178.004 347.483 177.665 347.351 177.263C347.225 176.855 347.162 176.387 347.162 175.859C347.162 175.337 347.228 174.875 347.36 174.473C347.492 174.065 347.678 173.723 347.918 173.447C348.158 173.171 348.446 172.964 348.782 172.826C349.118 172.682 349.493 172.61 349.907 172.61C350.471 172.61 350.948 172.736 351.338 172.988C351.728 173.234 352.031 173.579 352.247 174.023L351.419 174.509C351.299 174.215 351.113 173.978 350.861 173.798C350.609 173.612 350.291 173.519 349.907 173.519C349.409 173.519 349.007 173.678 348.701 173.996C348.401 174.314 348.251 174.764 348.251 175.346V176.372C348.251 176.954 348.401 177.404 348.701 177.722C349.007 178.04 349.409 178.199 349.907 178.199C350.105 178.199 350.294 178.175 350.474 178.127C350.654 178.073 350.81 177.998 350.942 177.902C351.08 177.8 351.188 177.677 351.266 177.533C351.35 177.383 351.392 177.209 351.392 177.011V176.525H350.096V175.652H352.373V179H351.482V178.046ZM354.804 179H353.787V172.718H356.496C357.06 172.718 357.504 172.889 357.828 173.231C358.152 173.567 358.314 174.026 358.314 174.608C358.314 175.058 358.209 175.433 357.999 175.733C357.795 176.027 357.492 176.234 357.09 176.354L358.449 179H357.315L356.055 176.462H354.804V179ZM356.424 175.607C356.682 175.607 356.883 175.541 357.027 175.409C357.171 175.271 357.243 175.076 357.243 174.824V174.392C357.243 174.14 357.171 173.948 357.027 173.816C356.883 173.678 356.682 173.609 356.424 173.609H354.804V175.607H356.424ZM359.684 179V172.718H363.707V173.618H360.701V175.364H363.428V176.264H360.701V178.1H363.707V179H359.684ZM366.9 179.108C366.372 179.108 365.922 179.012 365.55 178.82C365.184 178.628 364.869 178.37 364.605 178.046L365.307 177.389C365.529 177.659 365.772 177.863 366.036 178.001C366.306 178.139 366.612 178.208 366.954 178.208C367.356 178.208 367.659 178.118 367.863 177.938C368.067 177.758 368.169 177.515 368.169 177.209C368.169 176.963 368.097 176.768 367.953 176.624C367.809 176.48 367.554 176.372 367.188 176.3L366.63 176.201C366.018 176.087 365.559 175.886 365.253 175.598C364.947 175.31 364.794 174.914 364.794 174.41C364.794 174.134 364.845 173.885 364.947 173.663C365.055 173.435 365.202 173.246 365.388 173.096C365.58 172.94 365.811 172.82 366.081 172.736C366.351 172.652 366.654 172.61 366.99 172.61C367.464 172.61 367.875 172.694 368.223 172.862C368.571 173.024 368.868 173.261 369.114 173.573L368.403 174.203C368.241 173.993 368.043 173.825 367.809 173.699C367.575 173.573 367.284 173.51 366.936 173.51C366.576 173.51 366.297 173.582 366.099 173.726C365.901 173.87 365.802 174.08 365.802 174.356C365.802 174.62 365.883 174.818 366.045 174.95C366.207 175.076 366.459 175.172 366.801 175.238L367.359 175.355C367.989 175.475 368.448 175.679 368.736 175.967C369.03 176.255 369.177 176.651 369.177 177.155C369.177 177.449 369.126 177.716 369.024 177.956C368.922 178.196 368.772 178.403 368.574 178.577C368.382 178.745 368.145 178.877 367.863 178.973C367.581 179.063 367.26 179.108 366.9 179.108ZM372.174 179.108C371.646 179.108 371.196 179.012 370.824 178.82C370.458 178.628 370.143 178.37 369.879 178.046L370.581 177.389C370.803 177.659 371.046 177.863 371.31 178.001C371.58 178.139 371.886 178.208 372.228 178.208C372.63 178.208 372.933 178.118 373.137 177.938C373.341 177.758 373.443 177.515 373.443 177.209C373.443 176.963 373.371 176.768 373.227 176.624C373.083 176.48 372.828 176.372 372.462 176.3L371.904 176.201C371.292 176.087 370.833 175.886 370.527 175.598C370.221 175.31 370.068 174.914 370.068 174.41C370.068 174.134 370.119 173.885 370.221 173.663C370.329 173.435 370.476 173.246 370.662 173.096C370.854 172.94 371.085 172.82 371.355 172.736C371.625 172.652 371.928 172.61 372.264 172.61C372.738 172.61 373.149 172.694 373.497 172.862C373.845 173.024 374.142 173.261 374.388 173.573L373.677 174.203C373.515 173.993 373.317 173.825 373.083 173.699C372.849 173.573 372.558 173.51 372.21 173.51C371.85 173.51 371.571 173.582 371.373 173.726C371.175 173.87 371.076 174.08 371.076 174.356C371.076 174.62 371.157 174.818 371.319 174.95C371.481 175.076 371.733 175.172 372.075 175.238L372.633 175.355C373.263 175.475 373.722 175.679 374.01 175.967C374.304 176.255 374.451 176.651 374.451 177.155C374.451 177.449 374.4 177.716 374.298 177.956C374.196 178.196 374.046 178.403 373.848 178.577C373.656 178.745 373.419 178.877 373.137 178.973C372.855 179.063 372.534 179.108 372.174 179.108Z" fill="#999999"/>
<path d="M288.283 107V105.911H289.093V101.807H288.283V100.718H291.271V101.807H290.461V105.911H291.271V107H288.283ZM294.328 104.03L293.725 102.77H293.698V107H292.411V100.718H293.905L295.624 103.688L296.227 104.948H296.254V100.718H297.541V107H296.047L294.328 104.03ZM304.813 104.426H302.419V107H301.051V100.718H302.419V103.22H304.813V100.718H306.181V107H304.813V104.426ZM307.563 107V100.718H311.838V101.933H308.931V103.22H311.424V104.426H308.931V105.785H311.838V107H307.563ZM316.9 107L316.45 105.506H314.353L313.903 107H312.517L314.587 100.718H316.279L318.322 107H316.9ZM315.415 101.96H315.37L314.677 104.345H316.117L315.415 101.96ZM319.191 107V100.718H320.559V105.785H322.953V107H319.191ZM323.721 107V105.911H324.531V101.807H323.721V100.718H326.709V101.807H325.899V105.911H326.709V107H323.721ZM329.766 104.03L329.163 102.77H329.136V107H327.849V100.718H329.343L331.062 103.688L331.665 104.948H331.692V100.718H332.979V107H331.485L329.766 104.03ZM338.348 106.001H338.303C338.255 106.319 338.093 106.583 337.817 106.793C337.541 107.003 337.166 107.108 336.692 107.108C336.332 107.108 335.996 107.039 335.684 106.901C335.372 106.763 335.099 106.559 334.865 106.289C334.631 106.019 334.448 105.683 334.316 105.281C334.184 104.879 334.118 104.414 334.118 103.886C334.118 103.358 334.187 102.89 334.325 102.482C334.463 102.074 334.655 101.732 334.901 101.456C335.153 101.18 335.453 100.97 335.801 100.826C336.149 100.682 336.536 100.61 336.962 100.61C337.526 100.61 338.012 100.733 338.42 100.979C338.828 101.219 339.149 101.582 339.383 102.068L338.267 102.707C338.171 102.461 338.021 102.254 337.817 102.086C337.613 101.912 337.328 101.825 336.962 101.825C336.536 101.825 336.197 101.948 335.945 102.194C335.693 102.44 335.567 102.827 335.567 103.355V104.363C335.567 104.885 335.693 105.272 335.945 105.524C336.197 105.77 336.536 105.893 336.962 105.893C337.13 105.893 337.289 105.875 337.439 105.839C337.589 105.797 337.721 105.737 337.835 105.659C337.949 105.575 338.036 105.476 338.096 105.362C338.162 105.248 338.195 105.113 338.195 104.957V104.642H337.025V103.499H339.5V107H338.348V106.001Z" fill="#62A294"/>
<path d="M292.531 210L291.964 208.299H289.615L289.066 210H288.031L290.173 203.718H291.451L293.593 210H292.531ZM290.812 204.654H290.767L289.858 207.426H291.712L290.812 204.654ZM298.414 209.046H298.378C298.312 209.352 298.132 209.607 297.838 209.811C297.55 210.009 297.166 210.108 296.686 210.108C296.314 210.108 295.969 210.039 295.651 209.901C295.333 209.757 295.057 209.55 294.823 209.28C294.595 209.004 294.415 208.665 294.283 208.263C294.157 207.855 294.094 207.387 294.094 206.859C294.094 206.337 294.16 205.875 294.292 205.473C294.424 205.065 294.61 204.723 294.85 204.447C295.09 204.171 295.378 203.964 295.714 203.826C296.05 203.682 296.425 203.61 296.839 203.61C297.403 203.61 297.88 203.736 298.27 203.988C298.66 204.234 298.963 204.579 299.179 205.023L298.351 205.509C298.231 205.215 298.045 204.978 297.793 204.798C297.541 204.612 297.223 204.519 296.839 204.519C296.341 204.519 295.939 204.678 295.633 204.996C295.333 205.314 295.183 205.764 295.183 206.346V207.372C295.183 207.954 295.333 208.404 295.633 208.722C295.939 209.04 296.341 209.199 296.839 209.199C297.037 209.199 297.226 209.175 297.406 209.127C297.586 209.073 297.742 208.998 297.874 208.902C298.012 208.8 298.12 208.677 298.198 208.533C298.282 208.383 298.324 208.209 298.324 208.011V207.525H297.028V206.652H299.305V210H298.414V209.046ZM300.719 210V203.718H304.742V204.618H301.736V206.364H304.463V207.264H301.736V209.1H304.742V210H300.719Z" fill="#999999"/>
<path d="M291.064 224V222.776H288.148V221.903L290.695 217.718H292.027V221.975H292.882V222.776H292.027V224H291.064ZM289.012 221.975H291.064V218.645H291.001L289.012 221.975ZM297.616 224V221.525L295.456 217.718H296.617L298.147 220.517H298.174L299.695 217.718H300.811L298.633 221.507V224H297.616ZM301.636 224.108C301.414 224.108 301.249 224.051 301.141 223.937C301.033 223.817 300.979 223.67 300.979 223.496V223.361C300.979 223.187 301.033 223.043 301.141 222.929C301.249 222.809 301.414 222.749 301.636 222.749C301.858 222.749 302.023 222.809 302.131 222.929C302.239 223.043 302.293 223.187 302.293 223.361V223.496C302.293 223.67 302.239 223.817 302.131 223.937C302.023 224.051 301.858 224.108 301.636 224.108ZM305.838 224.108C305.43 224.108 305.058 224.039 304.722 223.901C304.392 223.757 304.107 223.55 303.867 223.28C303.633 223.004 303.45 222.665 303.318 222.263C303.192 221.855 303.129 221.387 303.129 220.859C303.129 220.331 303.192 219.866 303.318 219.464C303.45 219.056 303.633 218.717 303.867 218.447C304.107 218.171 304.392 217.964 304.722 217.826C305.058 217.682 305.43 217.61 305.838 217.61C306.246 217.61 306.615 217.682 306.945 217.826C307.281 217.964 307.566 218.171 307.8 218.447C308.04 218.717 308.223 219.056 308.349 219.464C308.481 219.866 308.547 220.331 308.547 220.859C308.547 221.387 308.481 221.855 308.349 222.263C308.223 222.665 308.04 223.004 307.8 223.28C307.566 223.55 307.281 223.757 306.945 223.901C306.615 224.039 306.246 224.108 305.838 224.108ZM305.838 223.199C306.078 223.199 306.297 223.157 306.495 223.073C306.699 222.989 306.87 222.869 307.008 222.713C307.152 222.551 307.263 222.356 307.341 222.128C307.419 221.9 307.458 221.642 307.458 221.354V220.364C307.458 220.076 307.419 219.818 307.341 219.59C307.263 219.362 307.152 219.17 307.008 219.014C306.87 218.852 306.699 218.729 306.495 218.645C306.297 218.561 306.078 218.519 305.838 218.519C305.592 218.519 305.37 218.561 305.172 218.645C304.974 218.729 304.803 218.852 304.659 219.014C304.521 219.17 304.413 219.362 304.335 219.59C304.257 219.818 304.218 220.076 304.218 220.364V221.354C304.218 221.642 304.257 221.9 304.335 222.128C304.413 222.356 304.521 222.551 304.659 222.713C304.803 222.869 304.974 222.989 305.172 223.073C305.37 223.157 305.592 223.199 305.838 223.199ZM310.039 224.108C309.817 224.108 309.652 224.051 309.544 223.937C309.436 223.817 309.382 223.67 309.382 223.496V223.361C309.382 223.187 309.436 223.043 309.544 222.929C309.652 222.809 309.817 222.749 310.039 222.749C310.261 222.749 310.426 222.809 310.534 222.929C310.642 223.043 310.696 223.187 310.696 223.361V223.496C310.696 223.67 310.642 223.817 310.534 223.937C310.426 224.051 310.261 224.108 310.039 224.108Z" fill="#62A294"/>
<path d="M350.965 210.108C350.143 210.108 349.498 209.832 349.03 209.28C348.562 208.722 348.328 207.915 348.328 206.859C348.328 206.331 348.388 205.866 348.508 205.464C348.628 205.062 348.802 204.723 349.03 204.447C349.258 204.171 349.534 203.964 349.858 203.826C350.188 203.682 350.557 203.61 350.965 203.61C351.511 203.61 351.967 203.73 352.333 203.97C352.705 204.21 352.996 204.564 353.206 205.032L352.351 205.5C352.243 205.2 352.075 204.963 351.847 204.789C351.625 204.609 351.331 204.519 350.965 204.519C350.479 204.519 350.098 204.684 349.822 205.014C349.546 205.344 349.408 205.8 349.408 206.382V207.336C349.408 207.918 349.546 208.374 349.822 208.704C350.098 209.034 350.479 209.199 350.965 209.199C351.343 209.199 351.649 209.103 351.883 208.911C352.123 208.713 352.3 208.461 352.414 208.155L353.233 208.65C353.023 209.106 352.729 209.463 352.351 209.721C351.973 209.979 351.511 210.108 350.965 210.108ZM356.627 210.108C356.219 210.108 355.847 210.039 355.511 209.901C355.181 209.757 354.896 209.55 354.656 209.28C354.422 209.004 354.239 208.665 354.107 208.263C353.981 207.855 353.918 207.387 353.918 206.859C353.918 206.331 353.981 205.866 354.107 205.464C354.239 205.056 354.422 204.717 354.656 204.447C354.896 204.171 355.181 203.964 355.511 203.826C355.847 203.682 356.219 203.61 356.627 203.61C357.035 203.61 357.404 203.682 357.734 203.826C358.07 203.964 358.355 204.171 358.589 204.447C358.829 204.717 359.012 205.056 359.138 205.464C359.27 205.866 359.336 206.331 359.336 206.859C359.336 207.387 359.27 207.855 359.138 208.263C359.012 208.665 358.829 209.004 358.589 209.28C358.355 209.55 358.07 209.757 357.734 209.901C357.404 210.039 357.035 210.108 356.627 210.108ZM356.627 209.199C356.867 209.199 357.086 209.157 357.284 209.073C357.488 208.989 357.659 208.869 357.797 208.713C357.941 208.551 358.052 208.356 358.13 208.128C358.208 207.9 358.247 207.642 358.247 207.354V206.364C358.247 206.076 358.208 205.818 358.13 205.59C358.052 205.362 357.941 205.17 357.797 205.014C357.659 204.852 357.488 204.729 357.284 204.645C357.086 204.561 356.867 204.519 356.627 204.519C356.381 204.519 356.159 204.561 355.961 204.645C355.763 204.729 355.592 204.852 355.448 205.014C355.31 205.17 355.202 205.362 355.124 205.59C355.046 205.818 355.007 206.076 355.007 206.364V207.354C355.007 207.642 355.046 207.9 355.124 208.128C355.202 208.356 355.31 208.551 355.448 208.713C355.592 208.869 355.763 208.989 355.961 209.073C356.159 209.157 356.381 209.199 356.627 209.199ZM361.621 210H360.604V203.718H363.313C363.877 203.718 364.321 203.889 364.645 204.231C364.969 204.567 365.131 205.026 365.131 205.608C365.131 206.058 365.026 206.433 364.816 206.733C364.612 207.027 364.309 207.234 363.907 207.354L365.266 210H364.132L362.872 207.462H361.621V210ZM363.241 206.607C363.499 206.607 363.7 206.541 363.844 206.409C363.988 206.271 364.06 206.076 364.06 205.824V205.392C364.06 205.14 363.988 204.948 363.844 204.816C363.7 204.678 363.499 204.609 363.241 204.609H361.621V206.607H363.241ZM366.502 210V203.718H370.525V204.618H367.519V206.364H370.246V207.264H367.519V209.1H370.525V210H366.502ZM373.964 210V203.718H377.987V204.618H374.981V206.364H377.708V207.264H374.981V209.1H377.987V210H373.964ZM384.105 205.194H384.06L383.565 206.211L382.188 208.722L380.811 206.211L380.316 205.194H380.271V210H379.299V203.718H380.505L382.188 206.913H382.242L383.925 203.718H385.077V210H384.105V205.194ZM389.059 210.108C388.651 210.108 388.279 210.039 387.943 209.901C387.613 209.757 387.328 209.55 387.088 209.28C386.854 209.004 386.671 208.665 386.539 208.263C386.413 207.855 386.35 207.387 386.35 206.859C386.35 206.331 386.413 205.866 386.539 205.464C386.671 205.056 386.854 204.717 387.088 204.447C387.328 204.171 387.613 203.964 387.943 203.826C388.279 203.682 388.651 203.61 389.059 203.61C389.467 203.61 389.836 203.682 390.166 203.826C390.502 203.964 390.787 204.171 391.021 204.447C391.261 204.717 391.444 205.056 391.57 205.464C391.702 205.866 391.768 206.331 391.768 206.859C391.768 207.387 391.702 207.855 391.57 208.263C391.444 208.665 391.261 209.004 391.021 209.28C390.787 209.55 390.502 209.757 390.166 209.901C389.836 210.039 389.467 210.108 389.059 210.108ZM389.059 209.199C389.299 209.199 389.518 209.157 389.716 209.073C389.92 208.989 390.091 208.869 390.229 208.713C390.373 208.551 390.484 208.356 390.562 208.128C390.64 207.9 390.679 207.642 390.679 207.354V206.364C390.679 206.076 390.64 205.818 390.562 205.59C390.484 205.362 390.373 205.17 390.229 205.014C390.091 204.852 389.92 204.729 389.716 204.645C389.518 204.561 389.299 204.519 389.059 204.519C388.813 204.519 388.591 204.561 388.393 204.645C388.195 204.729 388.024 204.852 387.88 205.014C387.742 205.17 387.634 205.362 387.556 205.59C387.478 205.818 387.439 206.076 387.439 206.364V207.354C387.439 207.642 387.478 207.9 387.556 208.128C387.634 208.356 387.742 208.551 387.88 208.713C388.024 208.869 388.195 208.989 388.393 209.073C388.591 209.157 388.813 209.199 389.059 209.199ZM395.165 204.618V210H394.148V204.618H392.276V203.718H397.037V204.618H395.165ZM397.705 210V209.172H398.56V204.546H397.705V203.718H400.441V204.546H399.577V209.172H400.441V210H397.705ZM404.15 210.108C403.742 210.108 403.37 210.039 403.034 209.901C402.704 209.757 402.419 209.55 402.179 209.28C401.945 209.004 401.762 208.665 401.63 208.263C401.504 207.855 401.441 207.387 401.441 206.859C401.441 206.331 401.504 205.866 401.63 205.464C401.762 205.056 401.945 204.717 402.179 204.447C402.419 204.171 402.704 203.964 403.034 203.826C403.37 203.682 403.742 203.61 404.15 203.61C404.558 203.61 404.927 203.682 405.257 203.826C405.593 203.964 405.878 204.171 406.112 204.447C406.352 204.717 406.535 205.056 406.661 205.464C406.793 205.866 406.859 206.331 406.859 206.859C406.859 207.387 406.793 207.855 406.661 208.263C406.535 208.665 406.352 209.004 406.112 209.28C405.878 209.55 405.593 209.757 405.257 209.901C404.927 210.039 404.558 210.108 404.15 210.108ZM404.15 209.199C404.39 209.199 404.609 209.157 404.807 209.073C405.011 208.989 405.182 208.869 405.32 208.713C405.464 208.551 405.575 208.356 405.653 208.128C405.731 207.9 405.77 207.642 405.77 207.354V206.364C405.77 206.076 405.731 205.818 405.653 205.59C405.575 205.362 405.464 205.17 405.32 205.014C405.182 204.852 405.011 204.729 404.807 204.645C404.609 204.561 404.39 204.519 404.15 204.519C403.904 204.519 403.682 204.561 403.484 204.645C403.286 204.729 403.115 204.852 402.971 205.014C402.833 205.17 402.725 205.362 402.647 205.59C402.569 205.818 402.53 206.076 402.53 206.364V207.354C402.53 207.642 402.569 207.9 402.647 208.128C402.725 208.356 402.833 208.551 402.971 208.713C403.115 208.869 403.286 208.989 403.484 209.073C403.682 209.157 403.904 209.199 404.15 209.199ZM409.819 206.526L409.126 205.194H409.099V210H408.127V203.718H409.261L411.313 207.192L412.006 208.524H412.033V203.718H413.005V210H411.871L409.819 206.526Z" fill="#999999"/>
<path d="M348.607 224V217.718H352.531V218.618H349.624V220.364H352.207V221.264H349.624V224H348.607ZM353.74 224V217.718H357.763V218.618H354.757V220.364H357.484V221.264H354.757V223.1H357.763V224H353.74ZM362.999 224L362.432 222.299H360.083L359.534 224H358.499L360.641 217.718H361.919L364.061 224H362.999ZM361.28 218.654H361.235L360.326 221.426H362.18L361.28 218.654ZM366.051 224H365.034V217.718H367.743C368.307 217.718 368.751 217.889 369.075 218.231C369.399 218.567 369.561 219.026 369.561 219.608C369.561 220.058 369.456 220.433 369.246 220.733C369.042 221.027 368.739 221.234 368.337 221.354L369.696 224H368.562L367.302 221.462H366.051V224ZM367.671 220.607C367.929 220.607 368.13 220.541 368.274 220.409C368.418 220.271 368.49 220.076 368.49 219.824V219.392C368.49 219.14 368.418 218.948 368.274 218.816C368.13 218.678 367.929 218.609 367.671 218.609H366.051V220.607H367.671Z" fill="#62A294"/>
<path d="M288.5 353.022C288.5 350.534 290.518 348.5 293 348.5H375.833C378.319 348.5 380.333 350.515 380.333 353V371C380.333 373.485 378.319 375.5 375.833 375.5H293C290.518 375.5 288.5 373.466 288.5 370.977V370.973V370.959V370.944V370.939V370.919V370.915V370.914V370.899V370.885V370.879V370.858V370.854V370.852V370.838V370.823V370.817V370.796V370.791V370.791V370.775V370.759V370.754V370.732V370.73V370.726V370.711V370.693V370.689V370.67V370.668V370.659V370.646V370.624V370.611V370.602V370.589V370.58V370.557V370.553V370.552V370.535V370.516V370.513V370.494V370.49V370.479V370.467V370.445V370.441V370.437V370.422V370.403V370.399V370.38V370.376V370.364V370.353V370.33V370.325V370.324V370.306V370.284V370.283V370.269V370.26V370.244V370.236V370.215V370.213V370.202V370.189V370.166V370.161V370.16V370.142V370.118V370.117V370.108V370.095V370.074V370.071V370.055V370.047V370.03V370.023V370.004V369.999V369.986V369.975V369.952V369.952V369.94V369.928V369.904V369.902V369.895V369.88V369.856V369.852V369.848V369.832V369.807V369.803V369.801V369.783V369.759V369.755V369.753V369.735V369.711V369.707V369.704V369.687V369.663V369.66V369.655V369.639V369.615V369.614V369.605V369.591V369.568V369.567V369.555V369.543V369.523V369.519V369.504V369.495V369.478V369.472V369.452V369.448V369.434V369.424V369.4V369.399V369.391V369.376V369.353V369.349V369.346V369.329V369.307V369.306V369.292V369.282V369.265V369.259V369.238V369.235V369.225V369.212V369.189V369.184V369.182V369.166V369.145V369.143V369.126V369.12V369.106V369.097V369.074V369.07V369.068V369.051V369.03V369.028V369.012V369.006V368.993V368.983V368.961V368.957V368.954V368.939V368.921V368.917V368.896V368.894V368.886V368.873V368.851V368.851V368.836V368.829V368.817V368.807V368.786V368.784V368.776V368.765V368.751V368.743V368.722V368.719V368.715V368.701V368.687V368.681V368.66V368.656V368.653V368.639V368.626V368.619V368.599V368.596V368.591V368.579V368.566V368.559V368.539V368.537V368.528V368.519V368.509V368.5V368.481V368.481V368.464V368.462V368.454V368.443V368.428V368.424V368.405V368.402V368.4V368.387V368.376V368.369V368.351V368.351V368.335V368.333V368.327V368.315V368.303V368.298V368.281V368.28V368.269V368.264V368.257V368.247V368.235V368.23V368.214V368.213V368.202V368.198V368.192V368.182V368.171V368.166V368.151V368.151V368.135V368.134V368.131V368.12V368.112V368.105V368.093V368.091V368.077V368.075V368.066V368.063V368.058V368.049V368.041V368.035V368.024V368.022V368.009V368.008V367.997V367.996V367.992V367.983V367.977V367.971V367.962V367.959V367.948V367.947V367.936V367.934V367.928V367.925V367.921V367.914V367.908V367.903V367.896V367.893V367.884V367.883V367.873V367.873V367.863V367.862V367.857V367.854V367.851V367.845V367.841V367.837V367.832V367.828V367.823V367.821V367.814V367.813V367.806V367.806V367.799V367.798V367.792V367.791V367.786V367.785V367.784V367.779V367.777V367.774V367.771V367.768V367.766V367.763V367.761V367.759V367.756V367.754V367.751V367.75V367.747V367.747V367.744V367.743V367.741V367.74V367.738V367.738V367.736V367.736V367.734V367.734V367.732V367.732V367.731V367.73V367.73V367.714V367.641V367.568V367.494V367.419V367.343V367.266V367.189V367.111V367.032V366.952V366.872V366.79V366.708V366.625V366.542V366.457V366.372V366.286C288.5 366.166 288.458 366.079 288.443 366.049C288.423 366.009 288.401 365.978 288.387 365.959C288.358 365.92 288.327 365.885 288.302 365.86C288.25 365.806 288.182 365.743 288.109 365.679C287.959 365.547 287.751 365.374 287.508 365.177C287.269 364.983 286.982 364.753 286.676 364.508C286.371 364.263 286.046 364.004 285.731 363.748C285.086 363.226 284.45 362.699 283.976 362.27C283.739 362.055 283.552 361.873 283.429 361.734C283.427 361.732 283.426 361.73 283.424 361.728C283.544 361.611 283.722 361.46 283.949 361.282C284.42 360.913 285.055 360.465 285.701 360.018C285.919 359.868 286.139 359.717 286.353 359.57C286.767 359.285 287.161 359.015 287.482 358.787C287.726 358.614 287.938 358.458 288.093 358.333C288.168 358.272 288.242 358.209 288.3 358.149C288.328 358.12 288.365 358.079 288.398 358.031L288.399 358.03C288.419 358 288.5 357.882 288.5 357.714V357.628V357.543V357.458V357.375V357.292V357.21V357.128V357.048V356.968V356.889V356.811V356.734V356.657V356.581V356.506V356.432V356.358V356.286V356.27V356.269V356.269V356.269V356.268V356.268V356.266V356.266V356.264V356.264V356.262V356.262V356.259V356.259V356.256V356.256V356.253V356.252V356.25V356.248V356.246V356.244V356.241V356.239V356.236V356.234V356.231V356.228V356.226V356.222V356.22V356.216V356.214V356.214V356.209V356.208V356.202V356.201V356.194V356.194V356.187V356.186V356.179V356.177V356.171V356.168V356.163V356.158V356.154V356.148V356.146V356.143V356.138V356.136V356.127V356.127V356.117V356.116V356.107V356.104V356.097V356.091V356.086V356.079V356.075V356.072V356.065V356.064V356.053V356.052V356.041V356.038V356.029V356.023V356.016V356.008V356.004V356.002V355.992V355.991V355.978V355.976V355.965V355.959V355.951V355.942V355.937V355.934V355.925V355.923V355.909V355.906V355.894V355.888V355.88V355.869V355.865V355.864V355.849V355.849V355.834V355.829V355.818V355.808V355.802V355.798V355.787V355.786V355.77V355.765V355.753V355.743V355.736V355.731V355.72V355.719V355.702V355.697V355.684V355.673V355.667V355.665V355.649V355.649V355.631V355.624V355.613V355.6V355.598V355.594V355.576V355.572V355.557V355.546V355.538V355.535V355.519V355.518V355.5V355.491V355.48V355.472V355.462V355.461V355.441V355.434V355.421V355.409V355.404V355.401V355.381V355.374V355.361V355.346V355.344V355.34V355.319V355.313V355.298V355.285V355.281V355.278V355.256V355.249V355.235V355.224V355.216V355.214V355.192V355.183V355.171V355.164V355.149V355.149V355.127V355.114V355.105V355.104V355.083V355.079V355.061V355.045V355.043V355.039V355.016V355.007V354.994V354.987V354.971V354.969V354.949V354.932V354.93V354.926V354.903V354.894V354.88V354.873V354.857V354.855V354.834V354.817V354.815V354.811V354.788V354.775V354.764V354.762V354.741V354.735V354.718V354.708V354.694V354.693V354.671V354.654V354.651V354.647V354.623V354.609V354.6V354.6V354.576V354.566V354.552V354.548V354.528V354.522V354.504V354.496V354.481V354.477V354.457V354.445V354.433V354.432V354.409V354.394V354.386V354.385V354.361V354.345V354.34V354.337V354.313V354.295V354.293V354.289V354.265V354.247V354.245V354.24V354.216V354.199V354.197V354.192V354.168V354.152V354.147V354.144V354.12V354.105V354.098V354.096V354.072V354.059V354.048V354.047V354.024V354.014V354V353.996V353.977V353.97V353.953V353.945V353.929V353.926V353.905V353.892V353.882V353.881V353.858V353.84V353.839V353.834V353.81V353.798V353.787V353.785V353.763V353.756V353.74V353.731V353.717V353.715V353.693V353.676V353.675V353.67V353.647V353.636V353.624V353.62V353.601V353.597V353.578V353.563V353.558V353.555V353.532V353.521V353.51V353.506V353.487V353.484V353.465V353.448V353.447V353.442V353.42V353.411V353.398V353.389V353.376V353.376V353.354V353.341V353.332V353.33V353.31V353.307V353.289V353.274V353.27V353.267V353.246V353.241V353.225V353.209V353.208V353.204V353.183V353.177V353.162V353.148V353.145V353.141V353.121V353.115V353.101V353.085V353.085V353.08V353.06V353.055V353.04V353.026V353.022ZM283.302 361.57C283.303 361.57 283.305 361.574 283.308 361.58C283.304 361.573 283.302 361.57 283.302 361.57ZM283.3 361.866C283.297 361.872 283.295 361.875 283.295 361.875C283.294 361.875 283.296 361.872 283.3 361.866Z" fill="#FAFAFA" stroke="#F2BE56"/>
<path d="M295.294 365V358.718H297.994C298.576 358.718 299.026 358.889 299.344 359.231C299.662 359.573 299.821 360.032 299.821 360.608C299.821 361.184 299.662 361.643 299.344 361.985C299.026 362.327 298.576 362.498 297.994 362.498H296.311V365H295.294ZM296.311 361.607H297.931C298.189 361.607 298.39 361.541 298.534 361.409C298.678 361.271 298.75 361.076 298.75 360.824V360.392C298.75 360.14 298.678 359.948 298.534 359.816C298.39 359.678 298.189 359.609 297.931 359.609H296.311V361.607ZM301.953 365H300.936V358.718H303.645C304.209 358.718 304.653 358.889 304.977 359.231C305.301 359.567 305.463 360.026 305.463 360.608C305.463 361.058 305.358 361.433 305.148 361.733C304.944 362.027 304.641 362.234 304.239 362.354L305.598 365H304.464L303.204 362.462H301.953V365ZM303.573 361.607C303.831 361.607 304.032 361.541 304.176 361.409C304.32 361.271 304.392 361.076 304.392 360.824V360.392C304.392 360.14 304.32 359.948 304.176 359.816C304.032 359.678 303.831 359.609 303.573 359.609H301.953V361.607H303.573ZM309.176 365.108C308.768 365.108 308.396 365.039 308.06 364.901C307.73 364.757 307.445 364.55 307.205 364.28C306.971 364.004 306.788 363.665 306.656 363.263C306.53 362.855 306.467 362.387 306.467 361.859C306.467 361.331 306.53 360.866 306.656 360.464C306.788 360.056 306.971 359.717 307.205 359.447C307.445 359.171 307.73 358.964 308.06 358.826C308.396 358.682 308.768 358.61 309.176 358.61C309.584 358.61 309.953 358.682 310.283 358.826C310.619 358.964 310.904 359.171 311.138 359.447C311.378 359.717 311.561 360.056 311.687 360.464C311.819 360.866 311.885 361.331 311.885 361.859C311.885 362.387 311.819 362.855 311.687 363.263C311.561 363.665 311.378 364.004 311.138 364.28C310.904 364.55 310.619 364.757 310.283 364.901C309.953 365.039 309.584 365.108 309.176 365.108ZM309.176 364.199C309.416 364.199 309.635 364.157 309.833 364.073C310.037 363.989 310.208 363.869 310.346 363.713C310.49 363.551 310.601 363.356 310.679 363.128C310.757 362.9 310.796 362.642 310.796 362.354V361.364C310.796 361.076 310.757 360.818 310.679 360.59C310.601 360.362 310.49 360.17 310.346 360.014C310.208 359.852 310.037 359.729 309.833 359.645C309.635 359.561 309.416 359.519 309.176 359.519C308.93 359.519 308.708 359.561 308.51 359.645C308.312 359.729 308.141 359.852 307.997 360.014C307.859 360.17 307.751 360.362 307.673 360.59C307.595 360.818 307.556 361.076 307.556 361.364V362.354C307.556 362.642 307.595 362.9 307.673 363.128C307.751 363.356 307.859 363.551 307.997 363.713C308.141 363.869 308.312 363.989 308.51 364.073C308.708 364.157 308.93 364.199 309.176 364.199ZM315.511 365.108C314.689 365.108 314.044 364.832 313.576 364.28C313.108 363.722 312.874 362.915 312.874 361.859C312.874 361.331 312.934 360.866 313.054 360.464C313.174 360.062 313.348 359.723 313.576 359.447C313.804 359.171 314.08 358.964 314.404 358.826C314.734 358.682 315.103 358.61 315.511 358.61C316.057 358.61 316.513 358.73 316.879 358.97C317.251 359.21 317.542 359.564 317.752 360.032L316.897 360.5C316.789 360.2 316.621 359.963 316.393 359.789C316.171 359.609 315.877 359.519 315.511 359.519C315.025 359.519 314.644 359.684 314.368 360.014C314.092 360.344 313.954 360.8 313.954 361.382V362.336C313.954 362.918 314.092 363.374 314.368 363.704C314.644 364.034 315.025 364.199 315.511 364.199C315.889 364.199 316.195 364.103 316.429 363.911C316.669 363.713 316.846 363.461 316.96 363.155L317.779 363.65C317.569 364.106 317.275 364.463 316.897 364.721C316.519 364.979 316.057 365.108 315.511 365.108ZM319.874 365H318.857V358.718H321.566C322.13 358.718 322.574 358.889 322.898 359.231C323.222 359.567 323.384 360.026 323.384 360.608C323.384 361.058 323.279 361.433 323.069 361.733C322.865 362.027 322.562 362.234 322.16 362.354L323.519 365H322.385L321.125 362.462H319.874V365ZM321.494 361.607C321.752 361.607 321.953 361.541 322.097 361.409C322.241 361.271 322.313 361.076 322.313 360.824V360.392C322.313 360.14 322.241 359.948 322.097 359.816C321.953 359.678 321.752 359.609 321.494 359.609H319.874V361.607H321.494ZM328.679 365L328.112 363.299H325.763L325.214 365H324.179L326.321 358.718H327.599L329.741 365H328.679ZM326.96 359.654H326.915L326.006 362.426H327.86L326.96 359.654ZM332.595 365.108C332.067 365.108 331.617 365.012 331.245 364.82C330.879 364.628 330.564 364.37 330.3 364.046L331.002 363.389C331.224 363.659 331.467 363.863 331.731 364.001C332.001 364.139 332.307 364.208 332.649 364.208C333.051 364.208 333.354 364.118 333.558 363.938C333.762 363.758 333.864 363.515 333.864 363.209C333.864 362.963 333.792 362.768 333.648 362.624C333.504 362.48 333.249 362.372 332.883 362.3L332.325 362.201C331.713 362.087 331.254 361.886 330.948 361.598C330.642 361.31 330.489 360.914 330.489 360.41C330.489 360.134 330.54 359.885 330.642 359.663C330.75 359.435 330.897 359.246 331.083 359.096C331.275 358.94 331.506 358.82 331.776 358.736C332.046 358.652 332.349 358.61 332.685 358.61C333.159 358.61 333.57 358.694 333.918 358.862C334.266 359.024 334.563 359.261 334.809 359.573L334.098 360.203C333.936 359.993 333.738 359.825 333.504 359.699C333.27 359.573 332.979 359.51 332.631 359.51C332.271 359.51 331.992 359.582 331.794 359.726C331.596 359.87 331.497 360.08 331.497 360.356C331.497 360.62 331.578 360.818 331.74 360.95C331.902 361.076 332.154 361.172 332.496 361.238L333.054 361.355C333.684 361.475 334.143 361.679 334.431 361.967C334.725 362.255 334.872 362.651 334.872 363.155C334.872 363.449 334.821 363.716 334.719 363.956C334.617 364.196 334.467 364.403 334.269 364.577C334.077 364.745 333.84 364.877 333.558 364.973C333.276 365.063 332.955 365.108 332.595 365.108ZM338.274 359.618V365H337.257V359.618H335.385V358.718H340.146V359.618H338.274ZM340.815 365V364.172H341.67V359.546H340.815V358.718H343.551V359.546H342.687V364.172H343.551V365H340.815ZM346.521 361.526L345.828 360.194H345.801V365H344.829V358.718H345.963L348.015 362.192L348.708 363.524H348.735V358.718H349.707V365H348.573L346.521 361.526ZM355.178 365L354.611 363.299H352.262L351.713 365H350.678L352.82 358.718H354.098L356.24 365H355.178ZM353.459 359.654H353.414L352.505 362.426H354.359L353.459 359.654ZM358.955 359.618V365H357.938V359.618H356.066V358.718H360.827V359.618H358.955ZM364.046 365.108C363.638 365.108 363.266 365.039 362.93 364.901C362.6 364.757 362.315 364.55 362.075 364.28C361.841 364.004 361.658 363.665 361.526 363.263C361.4 362.855 361.337 362.387 361.337 361.859C361.337 361.331 361.4 360.866 361.526 360.464C361.658 360.056 361.841 359.717 362.075 359.447C362.315 359.171 362.6 358.964 362.93 358.826C363.266 358.682 363.638 358.61 364.046 358.61C364.454 358.61 364.823 358.682 365.153 358.826C365.489 358.964 365.774 359.171 366.008 359.447C366.248 359.717 366.431 360.056 366.557 360.464C366.689 360.866 366.755 361.331 366.755 361.859C366.755 362.387 366.689 362.855 366.557 363.263C366.431 363.665 366.248 364.004 366.008 364.28C365.774 364.55 365.489 364.757 365.153 364.901C364.823 365.039 364.454 365.108 364.046 365.108ZM364.046 364.199C364.286 364.199 364.505 364.157 364.703 364.073C364.907 363.989 365.078 363.869 365.216 363.713C365.36 363.551 365.471 363.356 365.549 363.128C365.627 362.9 365.666 362.642 365.666 362.354V361.364C365.666 361.076 365.627 360.818 365.549 360.59C365.471 360.362 365.36 360.17 365.216 360.014C365.078 359.852 364.907 359.729 364.703 359.645C364.505 359.561 364.286 359.519 364.046 359.519C363.8 359.519 363.578 359.561 363.38 359.645C363.182 359.729 363.011 359.852 362.867 360.014C362.729 360.17 362.621 360.362 362.543 360.59C362.465 360.818 362.426 361.076 362.426 361.364V362.354C362.426 362.642 362.465 362.9 362.543 363.128C362.621 363.356 362.729 363.551 362.867 363.713C363.011 363.869 363.182 363.989 363.38 364.073C363.578 364.157 363.8 364.199 364.046 364.199ZM369.04 365H368.023V358.718H370.732C371.296 358.718 371.74 358.889 372.064 359.231C372.388 359.567 372.55 360.026 372.55 360.608C372.55 361.058 372.445 361.433 372.235 361.733C372.031 362.027 371.728 362.234 371.326 362.354L372.685 365H371.551L370.291 362.462H369.04V365ZM370.66 361.607C370.918 361.607 371.119 361.541 371.263 361.409C371.407 361.271 371.479 361.076 371.479 360.824V360.392C371.479 360.14 371.407 359.948 371.263 359.816C371.119 359.678 370.918 359.609 370.66 359.609H369.04V361.607H370.66Z" fill="#666666"/>
<path d="M4.99344 245.333C2.50902 245.333 0.500002 243.319 0.500002 240.833L0.499999 225C0.499999 222.515 2.51472 220.5 5 220.5L83 220.5C85.4853 220.5 87.5 222.515 87.5 225L87.5 240.833C87.5 243.316 85.4657 245.333 82.9775 245.333L82.9735 245.333L82.9594 245.333L82.9446 245.333L82.9396 245.333L82.9195 245.333L82.9151 245.333L82.9145 245.333L82.8993 245.333L82.8851 245.333L82.8789 245.333L82.8584 245.333L82.8545 245.333L82.8523 245.333L82.8378 245.333L82.8233 245.333L82.817 245.333L82.7961 245.333L82.7915 245.333L82.7908 245.333L82.775 245.333L82.7592 245.333L82.7538 245.333L82.7325 245.333L82.73 245.333L82.7263 245.333L82.711 245.333L82.6928 245.333L82.6894 245.333L82.67 245.333L82.6677 245.333L82.6587 245.333L82.6459 245.333L82.624 245.333L82.6106 245.333L82.6019 245.333L82.5887 245.333L82.5798 245.333L82.5575 245.333L82.5528 245.333L82.552 245.333L82.5352 245.333L82.5163 245.333L82.5127 245.333L82.494 245.333L82.4902 245.333L82.4792 245.333L82.4675 245.333L82.4448 245.333L82.4415 245.333L82.4368 245.333L82.4219 245.333L82.4032 245.333L82.399 245.333L82.3802 245.333L82.376 245.333L82.3642 245.333L82.353 245.333L82.3298 245.333L82.3247 245.333L82.3244 245.333L82.3066 245.333L82.2845 245.333L82.2833 245.333L82.2692 245.333L82.2599 245.333L82.2437 245.333L82.2365 245.333L82.2147 245.333L82.213 245.333L82.2023 245.333L82.1895 245.333L82.1659 245.333L82.1609 245.333L82.1603 245.333L82.1423 245.333L82.1186 245.333L82.1176 245.333L82.1078 245.333L82.0948 245.333L82.0743 245.333L82.0711 245.333L82.0554 245.333L82.0472 245.333L82.0303 245.333L82.0234 245.333L82.0037 245.333L81.9995 245.333L81.9857 245.333L81.9756 245.333L81.9526 245.333L81.9516 245.333L81.9405 245.333L81.9277 245.333L81.9037 245.333L81.9022 245.333L81.8946 245.333L81.8797 245.333L81.8556 245.333L81.8524 245.333L81.8481 245.333L81.8316 245.333L81.8075 245.333L81.8034 245.333L81.8009 245.333L81.7835 245.333L81.7594 245.333L81.755 245.333L81.753 245.333L81.7354 245.333L81.7113 245.333L81.7072 245.333L81.7045 245.333L81.6873 245.333L81.6632 245.333L81.6601 245.333L81.6553 245.333L81.6392 245.333L81.6152 245.333L81.6137 245.333L81.6055 245.333L81.5912 245.333L81.5679 245.333L81.5672 245.333L81.555 245.333L81.5433 245.333L81.5228 245.333L81.5194 245.333L81.5038 245.333L81.4955 245.333L81.4783 245.333L81.4716 245.333L81.452 245.333L81.4478 245.333L81.4344 245.333L81.424 245.333L81.4003 245.333L81.3995 245.333L81.3912 245.333L81.3766 245.333L81.3529 245.333L81.3486 245.333L81.3462 245.333L81.3293 245.333L81.3066 245.333L81.3058 245.333L81.2924 245.333L81.2823 245.333L81.2653 245.333L81.2588 245.333L81.2378 245.333L81.2355 245.333L81.2246 245.333L81.2122 245.333L81.1889 245.333L81.1845 245.333L81.1825 245.333L81.1658 245.333L81.1451 245.333L81.1427 245.333L81.1265 245.333L81.1197 245.333L81.1062 245.333L81.0968 245.333L81.0739 245.333L81.0699 245.333L81.068 245.333L81.0512 245.333L81.0304 245.333L81.0285 245.333L81.0125 245.333L81.0059 245.333L80.9934 245.333L80.9835 245.333L80.9611 245.333L80.957 245.333L80.9545 245.333L80.9388 245.333L80.9212 245.333L80.9166 245.333L80.8957 245.333L80.8946 245.333L80.886 245.333L80.8726 245.333L80.8514 245.333L80.8508 245.333L80.8363 245.333L80.8291 245.333L80.8174 245.333L80.8075 245.333L80.786 245.333L80.784 245.333L80.7761 245.333L80.7647 245.333L80.7511 245.333L80.7435 245.333L80.7224 245.333L80.7189 245.333L80.7152 245.333L80.7014 245.333L80.6872 245.333L80.6806 245.333L80.6599 245.333L80.6561 245.333L80.6536 245.333L80.6394 245.333L80.6256 245.333L80.619 245.333L80.5988 245.333L80.5956 245.333L80.5912 245.333L80.5787 245.333L80.5663 245.333L80.5588 245.333L80.539 245.333L80.5375 245.333L80.5282 245.333L80.5194 245.333L80.5092 245.333L80.5 245.333L80.4815 245.333L80.4807 245.333L80.4644 245.333L80.4616 245.333L80.4544 245.333L80.4427 245.333L80.4278 245.333L80.424 245.333L80.4054 245.333L80.4018 245.333L80.3999 245.333L80.387 245.333L80.3763 245.333L80.3689 245.333L80.3513 245.333L80.3508 245.333L80.3347 245.333L80.333 245.333L80.3269 245.333L80.3154 245.333L80.3031 245.333L80.298 245.333L80.2808 245.333L80.2798 245.333L80.2687 245.333L80.2638 245.333L80.257 245.333L80.247 245.333L80.2347 245.333L80.2304 245.333L80.214 245.333L80.213 245.333L80.202 245.333L80.1978 245.333L80.1918 245.333L80.1819 245.333L80.1711 245.333L80.1662 245.333L80.1509 245.333L80.1507 245.333L80.1354 245.333L80.1346 245.333L80.1313 245.333L80.1204 245.333L80.1121 245.333L80.1056 245.333L80.0935 245.333L80.091 245.333L80.0767 245.333L80.0754 245.333L80.0664 245.333L80.0626 245.333L80.0577 245.333L80.0488 245.333L80.0406 245.333L80.0352 245.333L80.024 245.333L80.0219 245.333L80.0088 245.333L80.0078 245.333L79.9974 245.333L79.996 245.333L79.9922 245.333L79.9834 245.333L79.977 245.333L79.9711 245.333L79.9623 245.333L79.9591 245.333L79.9481 245.333L79.9474 245.333L79.9359 245.333L79.9344 245.333L79.9277 245.333L79.9247 245.333L79.9212 245.333L79.9138 245.333L79.9084 245.333L79.9031 245.333L79.8961 245.333L79.8928 245.333L79.8843 245.333L79.8827 245.333L79.8729 245.333L79.8635 245.333L79.862 245.333L79.8573 245.333L79.8543 245.333L79.8515 245.333L79.8454 245.333L79.8415 245.333L79.8368 245.333L79.832 245.333L79.8286 245.333L79.8229 245.333L79.8206 245.333L79.8142 245.333L79.813 245.333L79.806 245.333L79.8056 245.333L79.7986 245.333L79.7983 245.333L79.7919 245.333L79.7909 245.333L79.7861 245.333L79.7856 245.333L79.784 245.333L79.7795 245.333L79.7775 245.333L79.7738 245.333L79.7715 245.333L79.7685 245.333L79.7659 245.333L79.7634 245.333L79.7607 245.333L79.7587 245.333L79.7559 245.333L79.7544 245.333L79.7515 245.333L79.7504 245.333L79.7476 245.333L79.7467 245.333L79.744 245.333L79.7434 245.333L79.7409 245.333L79.7405 245.333L79.7381 245.333L79.7379 245.333L79.7358 245.333L79.7357 245.333L79.7339 245.333L79.7338 245.333L79.7323 245.333L79.7312 245.333L79.7304 245.333L79.73 245.333L79.7141 245.333L79.6414 245.333L79.5679 245.333L79.4937 245.333L79.4186 245.333L79.3429 245.333L79.2663 245.333L79.1889 245.333L79.1108 245.333L79.0319 245.333L78.9522 245.333L78.8717 245.333L78.7904 245.333L78.7083 245.333L78.6254 245.333L78.5417 245.333L78.4572 245.333L78.3718 245.333L78.2857 245.333C78.1664 245.333 78.0787 245.375 78.0489 245.39C78.0092 245.41 77.9781 245.432 77.959 245.446C77.9201 245.475 77.8855 245.506 77.8596 245.531C77.8056 245.583 77.7434 245.651 77.6786 245.725C77.5469 245.874 77.3741 246.083 77.177 246.325C76.983 246.564 76.7531 246.851 76.5077 247.157C76.2634 247.463 76.0036 247.787 75.7485 248.102C75.2262 248.747 74.6994 249.384 74.2703 249.857C74.0547 250.095 73.8729 250.281 73.734 250.404C73.7322 250.406 73.7304 250.408 73.7286 250.409C73.6109 250.289 73.46 250.112 73.282 249.884C72.9128 249.413 72.465 248.778 72.0184 248.132C71.8677 247.914 71.7168 247.694 71.5696 247.48C71.2854 247.066 71.0152 246.672 70.7872 246.351C70.6144 246.108 70.4583 245.895 70.3333 245.741C70.2721 245.665 70.2089 245.591 70.1489 245.533C70.1197 245.505 70.0792 245.468 70.0309 245.435L70.03 245.434C70.0004 245.414 69.8818 245.333 69.7143 245.333L4.99344 245.333ZM73.5703 250.531C73.5704 250.53 73.5739 250.528 73.5805 250.525C73.5735 250.53 73.5702 250.531 73.5703 250.531ZM73.8657 250.533C73.872 250.536 73.8752 250.538 73.8753 250.538C73.8754 250.539 73.8723 250.537 73.8657 250.533Z" fill="#FAFAFA" stroke="#D1B43C"/>
<path d="M10.3077 236V229.718H13.0077C13.5897 229.718 14.0397 229.889 14.3577 230.231C14.6757 230.573 14.8347 231.032 14.8347 231.608C14.8347 232.184 14.6757 232.643 14.3577 232.985C14.0397 233.327 13.5897 233.498 13.0077 233.498H11.3247V236H10.3077ZM11.3247 232.607H12.9447C13.2027 232.607 13.4037 232.541 13.5477 232.409C13.6917 232.271 13.7637 232.076 13.7637 231.824V231.392C13.7637 231.14 13.6917 230.948 13.5477 230.816C13.4037 230.678 13.2027 230.609 12.9447 230.609H11.3247V232.607ZM15.9503 236V229.718H19.9733V230.618H16.9673V232.364H19.6943V233.264H16.9673V235.1H19.9733V236H15.9503ZM22.3022 236H21.2852V229.718H23.9942C24.5582 229.718 25.0022 229.889 25.3262 230.231C25.6502 230.567 25.8122 231.026 25.8122 231.608C25.8122 232.058 25.7072 232.433 25.4972 232.733C25.2932 233.027 24.9902 233.234 24.5882 233.354L25.9472 236H24.8132L23.5532 233.462H22.3022V236ZM23.9222 232.607C24.1802 232.607 24.3812 232.541 24.5252 232.409C24.6692 232.271 24.7412 232.076 24.7412 231.824V231.392C24.7412 231.14 24.6692 230.948 24.5252 230.816C24.3812 230.678 24.1802 230.609 23.9222 230.609H22.3022V232.607H23.9222ZM27.1827 236V229.718H31.1067V230.618H28.1997V232.364H30.7827V233.264H28.1997V236H27.1827ZM32.3155 236V229.718H36.3385V230.618H33.3325V232.364H36.0595V233.264H33.3325V235.1H36.3385V236H32.3155ZM40.0085 236.108C39.1865 236.108 38.5415 235.832 38.0735 235.28C37.6055 234.722 37.3715 233.915 37.3715 232.859C37.3715 232.331 37.4315 231.866 37.5515 231.464C37.6715 231.062 37.8455 230.723 38.0735 230.447C38.3015 230.171 38.5775 229.964 38.9015 229.826C39.2315 229.682 39.6005 229.61 40.0085 229.61C40.5545 229.61 41.0105 229.73 41.3765 229.97C41.7485 230.21 42.0395 230.564 42.2495 231.032L41.3945 231.5C41.2865 231.2 41.1185 230.963 40.8905 230.789C40.6685 230.609 40.3745 230.519 40.0085 230.519C39.5225 230.519 39.1415 230.684 38.8655 231.014C38.5895 231.344 38.4515 231.8 38.4515 232.382V233.336C38.4515 233.918 38.5895 234.374 38.8655 234.704C39.1415 235.034 39.5225 235.199 40.0085 235.199C40.3865 235.199 40.6925 235.103 40.9265 234.911C41.1665 234.713 41.3435 234.461 41.4575 234.155L42.2765 234.65C42.0665 235.106 41.7725 235.463 41.3945 235.721C41.0165 235.979 40.5545 236.108 40.0085 236.108ZM45.6856 230.618V236H44.6686V230.618H42.7966V229.718H47.5576V230.618H45.6856ZM48.2262 236V235.172H49.0812V230.546H48.2262V229.718H50.9622V230.546H50.0982V235.172H50.9622V236H48.2262ZM54.6703 236.108C54.2623 236.108 53.8903 236.039 53.5543 235.901C53.2243 235.757 52.9393 235.55 52.6993 235.28C52.4653 235.004 52.2823 234.665 52.1503 234.263C52.0243 233.855 51.9613 233.387 51.9613 232.859C51.9613 232.331 52.0243 231.866 52.1503 231.464C52.2823 231.056 52.4653 230.717 52.6993 230.447C52.9393 230.171 53.2243 229.964 53.5543 229.826C53.8903 229.682 54.2623 229.61 54.6703 229.61C55.0783 229.61 55.4473 229.682 55.7773 229.826C56.1133 229.964 56.3983 230.171 56.6323 230.447C56.8723 230.717 57.0553 231.056 57.1813 231.464C57.3133 231.866 57.3793 232.331 57.3793 232.859C57.3793 233.387 57.3133 233.855 57.1813 234.263C57.0553 234.665 56.8723 235.004 56.6323 235.28C56.3983 235.55 56.1133 235.757 55.7773 235.901C55.4473 236.039 55.0783 236.108 54.6703 236.108ZM54.6703 235.199C54.9103 235.199 55.1293 235.157 55.3273 235.073C55.5313 234.989 55.7023 234.869 55.8403 234.713C55.9843 234.551 56.0953 234.356 56.1733 234.128C56.2513 233.9 56.2903 233.642 56.2903 233.354V232.364C56.2903 232.076 56.2513 231.818 56.1733 231.59C56.0953 231.362 55.9843 231.17 55.8403 231.014C55.7023 230.852 55.5313 230.729 55.3273 230.645C55.1293 230.561 54.9103 230.519 54.6703 230.519C54.4243 230.519 54.2023 230.561 54.0043 230.645C53.8063 230.729 53.6353 230.852 53.4913 231.014C53.3533 231.17 53.2453 231.362 53.1673 231.59C53.0893 231.818 53.0503 232.076 53.0503 232.364V233.354C53.0503 233.642 53.0893 233.9 53.1673 234.128C53.2453 234.356 53.3533 234.551 53.4913 234.713C53.6353 234.869 53.8063 234.989 54.0043 235.073C54.2023 235.157 54.4243 235.199 54.6703 235.199ZM60.3395 232.526L59.6465 231.194H59.6195V236H58.6475V229.718H59.7815L61.8335 233.192L62.5265 234.524H62.5535V229.718H63.5255V236H62.3915L60.3395 232.526ZM64.8023 236V235.172H65.6573V230.546H64.8023V229.718H67.5383V230.546H66.6743V235.172H67.5383V236H64.8023ZM70.6975 236.108C70.1695 236.108 69.7195 236.012 69.3475 235.82C68.9815 235.628 68.6665 235.37 68.4025 235.046L69.1045 234.389C69.3265 234.659 69.5695 234.863 69.8335 235.001C70.1035 235.139 70.4095 235.208 70.7515 235.208C71.1535 235.208 71.4565 235.118 71.6605 234.938C71.8645 234.758 71.9665 234.515 71.9665 234.209C71.9665 233.963 71.8945 233.768 71.7505 233.624C71.6065 233.48 71.3515 233.372 70.9855 233.3L70.4275 233.201C69.8155 233.087 69.3565 232.886 69.0505 232.598C68.7445 232.31 68.5915 231.914 68.5915 231.41C68.5915 231.134 68.6425 230.885 68.7445 230.663C68.8525 230.435 68.9995 230.246 69.1855 230.096C69.3775 229.94 69.6085 229.82 69.8785 229.736C70.1485 229.652 70.4515 229.61 70.7875 229.61C71.2615 229.61 71.6725 229.694 72.0205 229.862C72.3685 230.024 72.6655 230.261 72.9115 230.573L72.2005 231.203C72.0385 230.993 71.8405 230.825 71.6065 230.699C71.3725 230.573 71.0815 230.51 70.7335 230.51C70.3735 230.51 70.0945 230.582 69.8965 230.726C69.6985 230.87 69.5995 231.08 69.5995 231.356C69.5995 231.62 69.6805 231.818 69.8425 231.95C70.0045 232.076 70.2565 232.172 70.5985 232.238L71.1565 232.355C71.7865 232.475 72.2455 232.679 72.5335 232.967C72.8275 233.255 72.9745 233.651 72.9745 234.155C72.9745 234.449 72.9235 234.716 72.8215 234.956C72.7195 235.196 72.5695 235.403 72.3715 235.577C72.1795 235.745 71.9425 235.877 71.6605 235.973C71.3785 236.063 71.0575 236.108 70.6975 236.108ZM76.377 230.618V236H75.36V230.618H73.488V229.718H78.249V230.618H76.377Z" fill="#666666"/>
<defs>
<filter id="filter0_f_59_60" x="-4.3" y="87.7" width="114.712" height="114.712" filterUnits="userSpaceOnUse" color-interpolation-filters="sRGB">
<feFlood flood-opacity="0" result="BackgroundImageFix"/>
<feBlend mode="normal" in="SourceGraphic" in2="BackgroundImageFix" result="shape"/>
<feGaussianBlur stdDeviation="2.15" result="effect1_foregroundBlur_59_60"/>
</filter>
<filter id="filter1_f_59_60" x="278.7" y="29.7" width="90.6413" height="90.6413" filterUnits="userSpaceOnUse" color-interpolation-filters="sRGB">
<feFlood flood-opacity="0" result="BackgroundImageFix"/>
<feBlend mode="normal" in="SourceGraphic" in2="BackgroundImageFix" result="shape"/>
<feGaussianBlur stdDeviation="2.15" result="effect1_foregroundBlur_59_60"/>
</filter>
<filter id="filter2_f_59_60" x="201.89" y="63.6666" width="20.7182" height="63.3334" filterUnits="userSpaceOnUse" color-interpolation-filters="sRGB">
<feFlood flood-opacity="0" result="BackgroundImageFix"/>
<feBlend mode="normal" in="SourceGraphic" in2="BackgroundImageFix" result="shape"/>
<feGaussianBlur stdDeviation="1.5" result="effect1_foregroundBlur_59_60"/>
</filter>
<filter id="filter3_f_59_60" x="139" y="32.6654" width="56.3347" height="27.9652" filterUnits="userSpaceOnUse" color-interpolation-filters="sRGB">
<feFlood flood-opacity="0" result="BackgroundImageFix"/>
<feBlend mode="normal" in="SourceGraphic" in2="BackgroundImageFix" result="shape"/>
<feGaussianBlur stdDeviation="1.5" result="effect1_foregroundBlur_59_60"/>
</filter>
<filter id="filter4_f_59_60" x="176" y="0" width="82" height="78" filterUnits="userSpaceOnUse" color-interpolation-filters="sRGB">
<feFlood flood-opacity="0" result="BackgroundImageFix"/>
<feBlend mode="normal" in="SourceGraphic" in2="BackgroundImageFix" result="shape"/>
<feGaussianBlur stdDeviation="3" result="effect1_foregroundBlur_59_60"/>
</filter>
<filter id="filter5_f_59_60" x="81.2" y="27.2" width="68.6" height="68.6" filterUnits="userSpaceOnUse" color-interpolation-filters="sRGB">
<feFlood flood-opacity="0" result="BackgroundImageFix"/>
<feBlend mode="normal" in="SourceGraphic" in2="BackgroundImageFix" result="shape"/>
<feGaussianBlur stdDeviation="3.4" result="effect1_foregroundBlur_59_60"/>
</filter>
<filter id="filter6_f_59_60" x="64.666" y="75.9998" width="41.2575" height="53.3342" filterUnits="userSpaceOnUse" color-interpolation-filters="sRGB">
<feFlood flood-opacity="0" result="BackgroundImageFix"/>
<feBlend mode="normal" in="SourceGraphic" in2="BackgroundImageFix" result="shape"/>
<feGaussianBlur stdDeviation="2" result="effect1_foregroundBlur_59_60"/>
</filter>
<linearGradient id="paint0_linear_59_60" x1="211.5" y1="122.98" x2="213.5" y2="71.9804" gradientUnits="userSpaceOnUse">
<stop stop-color="#62A294"/>
<stop offset="1" stop-color="#D1B43C"/>
</linearGradient>
<linearGradient id="paint1_linear_59_60" x1="142.879" y1="51.515" x2="186.879" y2="40.515" gradientUnits="userSpaceOnUse">
<stop stop-color="#62A294"/>
<stop offset="1" stop-color="#D1B43C"/>
</linearGradient>
<linearGradient id="paint2_linear_59_60" x1="99.4209" y1="81.2698" x2="74.4209" y2="120.27" gradientUnits="userSpaceOnUse">
<stop stop-color="#62A294"/>
<stop offset="1" stop-color="#F2BE56"/>
</linearGradient>
<linearGradient id="paint3_linear_59_60" x1="171.167" y1="198.373" x2="95.1667" y2="266.373" gradientUnits="userSpaceOnUse">
<stop stop-color="#62A294"/>
<stop offset="1" stop-color="#D1B43C"/>
</linearGradient>
<linearGradient id="paint4_linear_59_60" x1="224.333" y1="217.98" x2="228.333" y2="320.98" gradientUnits="userSpaceOnUse">
<stop stop-color="#62A294"/>
<stop offset="1" stop-color="#F2BE56"/>
</linearGradient>
</defs>
</svg>
