<svg width="90" height="90" viewBox="0 0 90 90" fill="none" xmlns="http://www.w3.org/2000/svg">
<g clip-path="url(#clip0_2868_1256)">
<rect width="90" height="90" transform="matrix(-1 0 0 1 90 0)" fill="#F3F3F3"/>
<path d="M17.6595 15.4012C12.7261 24.0158 21.4774 39.2375 26.3555 45.7109L29.1518 38.4062C29.0614 34.9487 29.1514 27.5826 30.2336 25.7788C31.5865 23.524 36.2763 18.6532 44.1228 21.7197C51.9694 24.7861 58.6434 29.9281 62.0706 35.5199C65.4978 41.1116 68.925 49.5895 64.2352 53.7382L62.0706 60.8632C63.9045 62.1258 67.464 65.553 67.031 69.1606C68.9218 68.9765 72.3448 68.2997 75.2737 66.0217C80.7505 61.7619 83.2808 52.4004 77.2985 39.6995C75.6783 36.5008 71.8972 29.671 69.7345 27.9411C69.8611 25.884 68.1203 20.5165 62.8037 17.0228C57.8192 13.7472 53.4188 13.0526 51.2454 12.9522L48.8595 11.9039C38.5515 6.93397 23.8263 4.63308 17.6595 15.4012Z" fill="#F3F3F3"/>
<path d="M26.238 47.651C26.5455 49.0357 27.9905 52.9285 28.6745 54.7018C27.2642 61.4327 29.513 62.587 31.3721 63.3563C32.8594 63.9717 35.427 63.164 36.9442 62.9076L40.2136 66.1129L41.1111 71.9465L35.2774 74.639C37.051 77.1178 41.3419 82.2676 44.3164 83.0369C48.0346 83.9985 53.6759 83.8062 59.0608 81.6266C63.3687 79.8829 64.1138 77.6519 65.6738 75.7714C64.7763 75.3868 63.9915 73.344 63.0171 72.7799C61.7991 72.0747 59.9583 67.0745 59.0608 63.3563C58.3428 60.3818 58.1633 54.5524 58.1633 52.0095C63.0995 50.5992 64.638 46.9451 64.638 44.3809C64.638 42.3295 61.9883 42.1158 60.6635 42.2654C58.4582 44.7783 55.0862 44.7228 53.6759 44.3809L52.3938 36.1112C51.7527 35.5556 49.8039 33.9188 47.1371 31.8161C44.4703 29.7134 41.6667 25.6833 40.5982 23.931L39.1238 22.7129C37.3288 23.525 33.5209 25.5468 32.6491 27.1366C31.7772 28.7264 30.5763 31.7732 30.0848 33.0979C29.6147 33.6963 28.5591 34.9957 28.0975 35.4059C27.636 35.8162 28.2899 37.7997 28.6745 38.7401C27.7342 41.1334 25.9304 46.2662 26.238 47.651Z" fill="white"/>
<path d="M53.6306 83.2553C46.374 85.3507 37.5283 82.1757 35.8714 74.1831L26.7362 76.93L24.2528 78.2219C22.9296 78.8363 21.7103 79.1802 19.7172 81.2244C17.7241 83.2686 13.227 94.5129 11.1826 100.411L86.0919 102.097C88.2851 98.0512 86.6586 92.5601 85.101 87.923C83.5521 83.3121 83.2478 81.0717 77.6378 78.9455C73.1878 77.259 68.5832 74.9267 66.4112 74.1816C63.3449 77.6951 62.7014 80.636 53.6306 83.2553Z" fill="black"/>
<path d="M66.4112 74.1816C63.3449 77.6951 62.7014 80.636 53.6306 83.2553C46.374 85.3507 37.5283 82.1757 35.8714 74.1831L26.7362 76.93L24.2528 78.2219C22.9296 78.8363 21.7103 79.1802 19.7172 81.2244C17.7241 83.2686 13.227 94.5129 11.1826 100.411L86.0919 102.097C88.2851 98.0512 86.6586 92.5601 85.101 87.923C83.5521 83.3121 83.2478 81.0717 77.6378 78.9455C73.1878 77.259 68.5832 74.9267 66.4112 74.1816ZM66.4112 74.1816L64.4198 74.1825" stroke="black" stroke-width="1.5" stroke-linecap="round" stroke-linejoin="round"/>
<path d="M31.3258 24.0421C29.5322 26.2466 29.3818 30.9399 29.5308 33.0109C30.1292 31.7513 31.441 28.8604 31.9018 27.374C32.3626 25.8875 35.4682 24.0636 36.9634 23.3375C37.0275 23.1025 37.476 22.5686 38.7575 22.3123C40.3592 21.992 39.7185 23.5937 41.5125 26.0925C43.3065 28.5913 50.0981 33.653 52.2125 36.2799C53.904 38.3815 53.8187 43.0592 53.541 44.5756C57.3341 46.6259 59.5167 43.2851 60.1574 41.9183C61.1825 41.726 63.4635 41.867 64.3861 43.9685C65.3088 46.0701 63.7027 48.3041 62.7843 49.1584C63.1431 52.3363 60.4564 56.4198 59.0682 58.0643C58.7051 58.5983 58.1968 60.499 59.0682 63.8308C59.9396 67.1625 62.2813 72.867 64.1181 74.1698C64.6947 73.3582 67.3206 68.9309 67.0131 66.7781C66.7055 64.6253 63.6666 61.9889 62.3851 60.857L64.3861 53.6434C68.8071 50.0554 65.6035 42.3027 63.6813 38.2021C61.7592 34.1015 58.2993 31.3464 54.1347 27.374C49.97 23.4015 45.1006 21.9272 41.5125 21.1584C37.9245 20.3895 33.5678 21.2865 31.3258 24.0421Z" fill="#353535"/>
<path d="M49.0049 59.6463C51.489 57.8459 56.3022 53.6685 58.3983 51.8049L62.668 49.709C62.4869 50.7182 61.9849 53.0781 61.4259 54.4444C60.7273 56.1523 55.5261 62.5955 53.663 63.8376C52.1725 64.8313 45.7447 67.7709 42.7171 69.1164C43.2864 69.6598 44.4871 70.933 44.7355 71.6782C44.9839 72.4235 43.4934 77.0606 42.7171 79.2859C41.5009 79.4412 38.7425 79.7672 37.4383 79.8294C36.1341 79.8915 34.9283 79.493 34.4884 79.2859L36.041 72.0664H34.1002L33.0134 70.7467C30.4672 71.6161 27.7605 74.3694 26.7254 75.6373C26.6012 76.9415 28.7436 79.2859 29.8303 80.2951C28.1532 81.5993 24.9915 81.2008 23.6204 80.8385C23.3357 79.5188 22.9372 76.1963 23.6204 73.4637C24.3035 70.7311 28.0449 67.0463 29.8303 65.5455H35.2219L35.5142 63.2285L36.8294 62.907L39.6352 65.9336H41.4749C42.9499 64.588 46.5208 61.4468 49.0049 59.6463Z" fill="#353535"/>
<path d="M63.0208 49.2031C62.7864 50.9067 61.6277 55.106 58.8681 58.2748C55.4187 62.2358 54.3327 63.7051 49.4138 66.0049C45.4787 67.8447 43.3873 68.8157 42.8334 69.0712M36.1264 71.5626C36.2542 74.7567 34.0178 78.909 34.5927 79.6756C35.0527 80.2889 40.6784 79.6756 42.8334 78.909C43.9196 75.9918 45.4021 71.8181 44.431 71.0516C43.46 70.285 41.2959 67.862 40.6784 66.8186C38.8631 66.7251 35.2113 67.1442 35.1262 69.5681" stroke="black" stroke-width="1.5" stroke-linecap="round" stroke-linejoin="round"/>
<path d="M36.8586 63.1993L40.643 66.4032M40.643 66.4032C43.1129 65.4259 46.3066 61.7203 47.4982 60.96C49.6736 59.5721 52.4586 58.3826 54.3316 55.992C55.0368 55.092 57.5277 53.0388 58.6776 51.6973M40.643 66.4032L35.2327 65.815M35.5523 63.5784L35.2327 65.815M35.2327 65.815C33.231 65.4742 30.3027 65.4309 29.6383 65.6864C28.8079 66.0058 23.1705 73.5433 23.2982 75.5236C23.1517 76.5253 23.115 79.0564 24.1411 81.1672C25.6559 81.3505 28.0845 81.7023 29.6383 79.8846L27.183 77.2827L26.7066 75.5236C28.311 73.8012 31.8912 70.4444 33.3763 70.7962" stroke="black" stroke-width="1.5" stroke-linecap="round" stroke-linejoin="round"/>
<path d="M36.1274 71.9478H33.8277C33.7255 70.5168 31.3566 68.5385 30.3345 67.3887C29.7624 67.472 28.3075 67.8601 27.0645 68.7462" stroke="black" stroke-width="1.5" stroke-linecap="round" stroke-linejoin="round"/>
<path d="M31.8587 40.0996C31.3262 40.8667 30.5054 42.5843 29.6368 44.117C28.6828 45.8004 29.5497 47.2984 32.1193 47.6585" stroke="black" stroke-width="1.5" stroke-linecap="round" stroke-linejoin="round"/>
<path d="M27.6034 41.6614C27.22 42.4919 26.9149 43.43 26.3527 45.1165C25.65 47.2246 26.481 49.716 27.1198 51.1853C27.7586 52.6546 28.6524 54.2516 28.7163 55.146C28.7802 56.0403 27.9645 60.8017 30.0433 62.5093C31.832 63.9786 36.2706 63.0671 39.8163 62.1545M55.93 52.2069C58.1233 52.0153 62.8804 50.6482 64.3625 46.7131C65.8445 42.7779 62.2544 41.9219 60.274 41.9858C58.9964 44.9883 53.4792 44.719 53.3748 44.4205C52.9276 43.1423 53.8858 36.8752 51.3944 35.3421C49.4013 34.1155 45.405 31.6825 41.2973 24.9069C39.4081 21.7906 38.1464 22.9327 37.4437 23.8059C36.4852 24.2105 34.034 25.2945 32.91 26.6742C31.505 28.3988 31.0801 29.9126 30.6968 31.2541C30.5364 31.8156 30.1187 32.6231 29.6684 33.4568M29.6684 33.4568C29.2233 30.6995 29.3935 24.5844 33.6352 22.1824C38.9374 19.1799 46.4755 21.5437 53.3748 26.9098C60.274 32.2759 63.4042 36.7469 65.8956 43.9661C67.8887 49.7414 65.704 52.8459 64.3625 53.6762C63.7875 55.0177 62.1722 58.4201 62.1722 60.8731M29.6684 33.4568C29.369 34.011 29.1755 34.3163 28.9134 34.8289M62.1722 60.8731C62.3852 61.0861 63.8003 62.0191 65.8956 64.4722C67.991 66.9253 65.8956 71.9342 63.9656 73.4585M62.1722 60.8731C61.3801 60.965 59.924 61.1418 59.1167 62.1545" stroke="black" stroke-width="1.5" stroke-linecap="round" stroke-linejoin="round"/>
<path d="M60.7858 45.3066L59.1885 48.4368" stroke="black" stroke-width="1.5" stroke-linecap="round" stroke-linejoin="round"/>
<path d="M58.7988 46.4765L61.1043 47.0312" stroke="black" stroke-width="1.5" stroke-linecap="round" stroke-linejoin="round"/>
<path d="M43.793 23.8438C45.8583 26.6753 51.5476 33.2074 57.7827 36.6828" stroke="black" stroke-width="1.5" stroke-linecap="round" stroke-linejoin="round"/>
<path d="M26.1266 45.5896C21.2485 39.1162 12.7257 24.0158 17.6591 15.4012C23.8259 4.63308 38.5511 6.93397 48.8591 11.9039C59.1671 16.8738 71.0351 26.4027 77.2981 39.6995C83.2804 52.4004 80.7501 61.7619 75.2733 66.0217C72.3444 68.2997 68.9092 69.0588 67.0184 69.2429" stroke="black" stroke-width="1.5" stroke-linecap="round" stroke-linejoin="round"/>
<path d="M50.8408 12.9395C52.8347 12.9715 57.4868 13.529 62.8033 17.0228C68.1199 20.5165 69.8607 25.884 69.7341 27.9411" stroke="black" stroke-width="1.5" stroke-linecap="round" stroke-linejoin="round"/>
<path d="M29.1532 51.7575L29.4112 52.488L29.1426 52.8225C29.052 52.9352 29.0147 53.0817 29.0403 53.2241L29.0867 53.4819C29.2451 54.3618 29.9729 55.0017 30.8614 54.9025C31.7581 54.8023 32.7528 54.6307 33.3243 54.5186C35.1825 54.2135 37.1988 52.4379 38.2954 51.7223C38.4154 51.644 38.4914 51.5123 38.4914 51.369C38.4914 51.0735 38.1843 50.8781 37.9167 51.0035L37.2684 51.307L34.1903 50.2624L32.0121 49.794C31.9199 49.7742 31.8239 49.7809 31.7353 49.8133L30.5074 50.2624L30.0333 50.194C29.836 50.1655 29.6407 50.257 29.5362 50.4267L29.2446 50.9002C29.0862 51.1575 29.0526 51.4726 29.1532 51.7575Z" fill="#FED1D0"/>
<path d="M35.9813 33.5698C36.2382 33.0561 36.6817 32.4441 38.0193 32.0413C39.357 31.6385 40.7987 31.6133 41.295 31.6515C41.9593 31.804 44.243 32.2217 45.764 33.3213" stroke="black" stroke-width="1.5" stroke-linecap="round" stroke-linejoin="round"/>
<path d="M30.5254 35.4774L29.3065 34.7695C29.0851 34.8538 28.617 34.891 28.0488 35.4774" stroke="black" stroke-width="1.5" stroke-linecap="round" stroke-linejoin="round"/>
<path d="M40.0904 37.5496C39.8978 38.322 39.2243 38.8192 38.5861 38.6601C37.9479 38.501 37.5866 37.7458 37.7792 36.9733C37.9718 36.2009 38.5041 36.2136 39.1423 36.3727C39.7805 36.5318 40.2829 36.7771 40.0904 37.5496Z" fill="black"/>
<path d="M30.0735 39.2343C29.896 39.9461 29.3716 40.4283 28.9022 40.3113C28.4328 40.1942 28.1961 39.5223 28.3736 38.8105C28.5511 38.0986 29.0462 38.0987 29.5157 38.2157C29.9851 38.3327 30.251 38.5225 30.0735 39.2343Z" fill="black"/>
<path d="M37.0687 37.3955C38.4754 36.5815 39.4403 35.4921 42.166 37.4864" stroke="black" stroke-width="1.5" stroke-linecap="round"/>
<path d="M27.8403 39.0776C28.0029 38.4524 28.4309 37.8851 30.4802 38.6143" stroke="black" stroke-width="1.5" stroke-linecap="round"/>
<path d="M42.6111 43.4959C42.0687 42.5277 40.4362 42.3469 38.965 43.092C37.4937 43.8372 36.7407 45.2261 37.2831 46.1943C37.8255 47.1625 39.2454 48.0192 40.7166 47.274C42.1879 46.5289 43.1535 44.4641 42.6111 43.4959Z" fill="#FED1D0"/>
<path opacity="0.2" d="M48.3564 60.2988L37.1807 62.9277L39.2845 65.5572H42.3084L48.3564 60.2988Z" fill="black"/>
<path opacity="0.2" d="M53.0234 56.8809L55.2308 52.0664H57.6813L53.0234 56.8809Z" fill="black"/>
<path opacity="0.22" d="M50.3638 80.9996L48.1703 84.0545L42.8228 82.6506L39.3408 79.9684L42.8228 78.9999L44.8543 71.4748L42.8228 69.454L50.5512 65.0149L58.569 59.2324L56.1013 63.9964C55.7565 64.662 55.2317 65.2173 54.5866 65.599L48.2068 69.3743C47.6621 69.6966 47.5501 70.4375 47.9751 70.9064L50.098 73.2489C50.2509 73.4176 50.3417 73.6335 50.3553 73.8608L50.4964 76.2222C50.5274 76.7404 50.9497 77.1487 51.4686 77.1622L56.3423 77.2891C56.8263 77.3017 57.123 77.8248 56.8854 78.2468C56.73 78.5229 56.478 78.7318 56.1778 78.8334L50.8554 80.6357C50.6576 80.7027 50.4857 80.83 50.3638 80.9996Z" fill="black"/>
<path opacity="0.2" d="M66.2471 65.1367C73.4897 55.7153 68.731 45.7749 65.4463 41.9824C68.5871 48.0722 65.8468 52.3709 64.0841 53.759L62.001 60.8095C63.6675 61.9632 65.5261 64.175 66.2471 65.1367Z" fill="black"/>
<path d="M58.6812 58.5723C58.6476 60.4009 58.8444 64.79 59.9009 67.7168C60.9574 70.6436 64.1687 74.5932 65.6423 76.2021" stroke="black" stroke-width="1.5" stroke-linecap="round" stroke-linejoin="round"/>
</g>
<defs>
<clipPath id="clip0_2868_1256">
<rect width="90" height="90" fill="white" transform="matrix(-1 0 0 1 90 0)"/>
</clipPath>
</defs>
</svg>
