<svg width="126" height="126" viewBox="0 0 126 126" fill="none" xmlns="http://www.w3.org/2000/svg">
<path d="M59.5253 5.009C61.3254 2.82167 64.6746 2.82167 66.4747 5.00901L78.2797 19.3537C79.4436 20.768 81.2352 21.51 83.0582 21.333L101.549 19.5372C104.368 19.2634 106.737 21.6316 106.463 24.4511L104.667 42.9418C104.49 44.7648 105.232 46.5564 106.646 47.7203L120.991 59.5253C123.178 61.3254 123.178 64.6746 120.991 66.4747L106.646 78.2797C105.232 79.4436 104.49 81.2352 104.667 83.0582L106.463 101.549C106.737 104.368 104.368 106.737 101.549 106.463L83.0582 104.667C81.2352 104.49 79.4436 105.232 78.2797 106.646L66.4747 120.991C64.6746 123.178 61.3254 123.178 59.5253 120.991L47.7203 106.646C46.5564 105.232 44.7648 104.49 42.9418 104.667L24.4511 106.463C21.6316 106.737 19.2634 104.368 19.5372 101.549L21.333 83.0582C21.51 81.2352 20.768 79.4436 19.3537 78.2797L5.009 66.4747C2.82167 64.6746 2.82167 61.3254 5.00901 59.5253L19.3537 47.7203C20.768 46.5564 21.51 44.7648 21.333 42.9418L19.5372 24.4511C19.2634 21.6316 21.6316 19.2634 24.4511 19.5372L42.9418 21.333C44.7648 21.51 46.5564 20.768 47.7203 19.3537L59.5253 5.009Z" fill="#F2BE56" fill-opacity="0.2" stroke="#F2BE56"/>
</svg>
