<?xml version="1.0" encoding="UTF-8" standalone="no"?>
<!DOCTYPE svg PUBLIC "-//W3C//DTD SVG 1.1//EN" "http://www.w3.org/Graphics/SVG/1.1/DTD/svg11.dtd">
<svg width="100%" height="100%" viewBox="0 0 120 120" version="1.1" xmlns="http://www.w3.org/2000/svg" xmlns:xlink="http://www.w3.org/1999/xlink" xml:space="preserve" xmlns:serif="http://www.serif.com/" style="fill-rule:evenodd;clip-rule:evenodd;stroke-linejoin:round;stroke-miterlimit:2;">
    <g transform="matrix(1.00618,0,0,1.00618,-3.38933,-3.38933)">
        <path d="M59.525,5.009C61.325,2.822 64.675,2.822 66.475,5.009L78.28,19.354C79.444,20.768 81.235,21.51 83.058,21.333L101.549,19.537C104.368,19.263 106.737,21.632 106.463,24.451L104.667,42.942C104.49,44.765 105.232,46.556 106.646,47.72L120.991,59.525C123.178,61.325 123.178,64.675 120.991,66.475L106.646,78.28C105.232,79.444 104.49,81.235 104.667,83.058L106.463,101.549C106.737,104.368 104.368,106.737 101.549,106.463L83.058,104.667C81.235,104.49 79.444,105.232 78.28,106.646L66.475,120.991C64.675,123.178 61.325,123.178 59.525,120.991L47.72,106.646C46.556,105.232 44.765,104.49 42.942,104.667L24.451,106.463C21.632,106.737 19.263,104.368 19.537,101.549L21.333,83.058C21.51,81.235 20.768,79.444 19.354,78.28L5.009,66.475C2.822,64.675 2.822,61.325 5.009,59.525L19.354,47.72C20.768,46.556 21.51,44.765 21.333,42.942L19.537,24.451C19.263,21.632 21.632,19.263 24.451,19.537L42.942,21.333C44.765,21.51 46.556,20.768 47.72,19.354L59.525,5.009Z" style="fill:rgb(242,190,86);fill-opacity:0.2;fill-rule:nonzero;"/>
        <path d="M59.525,5.009C61.325,2.822 64.675,2.822 66.475,5.009L78.28,19.354C79.444,20.768 81.235,21.51 83.058,21.333L101.549,19.537C104.368,19.263 106.737,21.632 106.463,24.451L104.667,42.942C104.49,44.765 105.232,46.556 106.646,47.72L120.991,59.525C123.178,61.325 123.178,64.675 120.991,66.475L106.646,78.28C105.232,79.444 104.49,81.235 104.667,83.058L106.463,101.549C106.737,104.368 104.368,106.737 101.549,106.463L83.058,104.667C81.235,104.49 79.444,105.232 78.28,106.646L66.475,120.991C64.675,123.178 61.325,123.178 59.525,120.991L47.72,106.646C46.556,105.232 44.765,104.49 42.942,104.667L24.451,106.463C21.632,106.737 19.263,104.368 19.537,101.549L21.333,83.058C21.51,81.235 20.768,79.444 19.354,78.28L5.009,66.475C2.822,64.675 2.822,61.325 5.009,59.525L19.354,47.72C20.768,46.556 21.51,44.765 21.333,42.942L19.537,24.451C19.263,21.632 21.632,19.263 24.451,19.537L42.942,21.333C44.765,21.51 46.556,20.768 47.72,19.354L59.525,5.009ZM60.297,5.644L48.492,19.989C47.117,21.661 45,22.538 42.845,22.328L24.354,20.533C22.161,20.32 20.32,22.161 20.533,24.354L22.328,42.845C22.537,45 21.661,47.117 19.989,48.492L5.644,60.297C3.943,61.698 3.943,64.302 5.644,65.703L19.989,77.508C21.661,78.883 22.538,81 22.328,83.155L20.533,101.646C20.32,103.838 22.161,105.681 24.354,105.468L42.845,103.672C45,103.463 47.117,104.339 48.492,106.011L60.297,120.356C61.698,122.057 64.302,122.057 65.703,120.356L77.508,106.011C78.883,104.339 81,103.463 83.155,103.672L101.646,105.468C103.838,105.681 105.681,103.838 105.468,101.646L103.672,83.155C103.463,81 104.339,78.883 106.011,77.508L120.356,65.703C122.057,64.302 122.057,61.698 120.356,60.297L106.011,48.492C104.339,47.117 103.463,45 103.672,42.845L105.468,24.354C105.681,22.161 103.838,20.32 101.646,20.533L83.155,22.328C81,22.537 78.883,21.661 77.508,19.989L65.703,5.644C64.302,3.943 61.698,3.943 60.297,5.644Z" style="fill:rgb(242,190,86);"/>
    </g>
</svg>
