<?xml version="1.0" encoding="UTF-8" standalone="no"?>
<!DOCTYPE svg PUBLIC "-//W3C//DTD SVG 1.1//EN" "http://www.w3.org/Graphics/SVG/1.1/DTD/svg11.dtd">
<svg width="100%" height="100%" viewBox="0 0 100 108" version="1.1" xmlns="http://www.w3.org/2000/svg" xmlns:xlink="http://www.w3.org/1999/xlink" xml:space="preserve" xmlns:serif="http://www.serif.com/" style="fill-rule:evenodd;clip-rule:evenodd;stroke-linejoin:round;stroke-miterlimit:2;">
    <g transform="matrix(0.996766,0,0,0.994495,-8.31054,-1.19431)">
        <path d="M56.338,1.754C57.685,1.016 59.315,1.016 60.662,1.754L106.324,26.766C107.766,27.555 108.662,29.068 108.662,30.712L108.662,80.288C108.662,81.932 107.766,83.445 106.324,84.235L60.662,109.246C59.315,109.983 57.685,109.983 56.338,109.246L10.676,84.235C9.234,83.445 8.338,81.932 8.338,80.288L8.338,30.712C8.338,29.068 9.234,27.555 10.676,26.766L56.338,1.754Z" style="fill:rgb(209,180,60);fill-opacity:0.3;fill-rule:nonzero;"/>
        <path d="M56.338,1.754C57.685,1.016 59.315,1.016 60.662,1.754L106.324,26.766C107.766,27.555 108.662,29.068 108.662,30.712L108.662,80.288C108.662,81.932 107.766,83.445 106.324,84.234L60.662,109.246C59.315,109.983 57.685,109.983 56.338,109.246L10.676,84.234C9.234,83.445 8.338,81.932 8.338,80.288L8.338,30.712C8.338,29.068 9.234,27.555 10.676,26.766L56.338,1.754ZM56.817,2.633L11.155,27.644C10.034,28.258 9.336,29.434 9.336,30.712L9.336,80.288C9.336,81.566 10.034,82.742 11.155,83.356L56.817,108.367C57.865,108.941 59.135,108.941 60.183,108.367L105.845,83.356C106.966,82.742 107.663,81.566 107.663,80.288L107.663,30.712C107.663,29.434 106.966,28.258 105.845,27.644L60.183,2.633C59.134,2.058 57.866,2.058 56.817,2.633Z" style="fill:rgb(209,180,60);"/>
    </g>
</svg>
